%TF.GenerationSoftware,KiCad,Pcbnew,6.0.2+dfsg-1*%
%TF.CreationDate,2023-02-14T20:33:29-03:00*%
%TF.ProjectId,arduStep,61726475-5374-4657-902e-6b696361645f,rev?*%
%TF.SameCoordinates,Original*%
%TF.FileFunction,Legend,Top*%
%TF.FilePolarity,Positive*%
%FSLAX46Y46*%
G04 Gerber Fmt 4.6, Leading zero omitted, Abs format (unit mm)*
G04 Created by KiCad (PCBNEW 6.0.2+dfsg-1) date 2023-02-14 20:33:29*
%MOMM*%
%LPD*%
G01*
G04 APERTURE LIST*
%ADD10C,0.150000*%
%ADD11C,0.125000*%
%ADD12C,0.100000*%
%ADD13C,0.120000*%
G04 APERTURE END LIST*
D10*
X144111666Y-94285714D02*
X144111666Y-93809523D01*
X144397380Y-94380952D02*
X143397380Y-94047619D01*
X144397380Y-93714285D01*
X144397380Y-93380952D02*
X143730714Y-93380952D01*
X143921190Y-93380952D02*
X143825952Y-93333333D01*
X143778333Y-93285714D01*
X143730714Y-93190476D01*
X143730714Y-93095238D01*
X144397380Y-92333333D02*
X143397380Y-92333333D01*
X144349761Y-92333333D02*
X144397380Y-92428571D01*
X144397380Y-92619047D01*
X144349761Y-92714285D01*
X144302142Y-92761904D01*
X144206904Y-92809523D01*
X143921190Y-92809523D01*
X143825952Y-92761904D01*
X143778333Y-92714285D01*
X143730714Y-92619047D01*
X143730714Y-92428571D01*
X143778333Y-92333333D01*
X143730714Y-91428571D02*
X144397380Y-91428571D01*
X143730714Y-91857142D02*
X144254523Y-91857142D01*
X144349761Y-91809523D01*
X144397380Y-91714285D01*
X144397380Y-91571428D01*
X144349761Y-91476190D01*
X144302142Y-91428571D01*
X143397380Y-90761904D02*
X143397380Y-90571428D01*
X143445000Y-90476190D01*
X143540238Y-90380952D01*
X143730714Y-90333333D01*
X144064047Y-90333333D01*
X144254523Y-90380952D01*
X144349761Y-90476190D01*
X144397380Y-90571428D01*
X144397380Y-90761904D01*
X144349761Y-90857142D01*
X144254523Y-90952380D01*
X144064047Y-91000000D01*
X143730714Y-91000000D01*
X143540238Y-90952380D01*
X143445000Y-90857142D01*
X143397380Y-90761904D01*
X143730714Y-89904761D02*
X144397380Y-89904761D01*
X143825952Y-89904761D02*
X143778333Y-89857142D01*
X143730714Y-89761904D01*
X143730714Y-89619047D01*
X143778333Y-89523809D01*
X143873571Y-89476190D01*
X144397380Y-89476190D01*
X144349761Y-88619047D02*
X144397380Y-88714285D01*
X144397380Y-88904761D01*
X144349761Y-89000000D01*
X144254523Y-89047619D01*
X143873571Y-89047619D01*
X143778333Y-89000000D01*
X143730714Y-88904761D01*
X143730714Y-88714285D01*
X143778333Y-88619047D01*
X143873571Y-88571428D01*
X143968809Y-88571428D01*
X144064047Y-89047619D01*
X144349761Y-88190476D02*
X144397380Y-88047619D01*
X144397380Y-87809523D01*
X144349761Y-87714285D01*
X144302142Y-87666666D01*
X144206904Y-87619047D01*
X144111666Y-87619047D01*
X144016428Y-87666666D01*
X143968809Y-87714285D01*
X143921190Y-87809523D01*
X143873571Y-88000000D01*
X143825952Y-88095238D01*
X143778333Y-88142857D01*
X143683095Y-88190476D01*
X143587857Y-88190476D01*
X143492619Y-88142857D01*
X143445000Y-88095238D01*
X143397380Y-88000000D01*
X143397380Y-87761904D01*
X143445000Y-87619047D01*
X143730714Y-87333333D02*
X143730714Y-86952380D01*
X143397380Y-87190476D02*
X144254523Y-87190476D01*
X144349761Y-87142857D01*
X144397380Y-87047619D01*
X144397380Y-86952380D01*
X144349761Y-86238095D02*
X144397380Y-86333333D01*
X144397380Y-86523809D01*
X144349761Y-86619047D01*
X144254523Y-86666666D01*
X143873571Y-86666666D01*
X143778333Y-86619047D01*
X143730714Y-86523809D01*
X143730714Y-86333333D01*
X143778333Y-86238095D01*
X143873571Y-86190476D01*
X143968809Y-86190476D01*
X144064047Y-86666666D01*
X143730714Y-85761904D02*
X144730714Y-85761904D01*
X143778333Y-85761904D02*
X143730714Y-85666666D01*
X143730714Y-85476190D01*
X143778333Y-85380952D01*
X143825952Y-85333333D01*
X143921190Y-85285714D01*
X144206904Y-85285714D01*
X144302142Y-85333333D01*
X144349761Y-85380952D01*
X144397380Y-85476190D01*
X144397380Y-85666666D01*
X144349761Y-85761904D01*
X143730714Y-84190476D02*
X144397380Y-83952380D01*
X143730714Y-83714285D01*
X144397380Y-82809523D02*
X144397380Y-83380952D01*
X144397380Y-83095238D02*
X143397380Y-83095238D01*
X143540238Y-83190476D01*
X143635476Y-83285714D01*
X143683095Y-83380952D01*
X144016428Y-82380952D02*
X144016428Y-81619047D01*
X144397380Y-81142857D02*
X143730714Y-81142857D01*
X143921190Y-81142857D02*
X143825952Y-81095238D01*
X143778333Y-81047619D01*
X143730714Y-80952380D01*
X143730714Y-80857142D01*
X144349761Y-80142857D02*
X144397380Y-80238095D01*
X144397380Y-80428571D01*
X144349761Y-80523809D01*
X144254523Y-80571428D01*
X143873571Y-80571428D01*
X143778333Y-80523809D01*
X143730714Y-80428571D01*
X143730714Y-80238095D01*
X143778333Y-80142857D01*
X143873571Y-80095238D01*
X143968809Y-80095238D01*
X144064047Y-80571428D01*
X143730714Y-79761904D02*
X144397380Y-79523809D01*
X143730714Y-79285714D01*
X144397380Y-78380952D02*
X144397380Y-78952380D01*
X144397380Y-78666666D02*
X143397380Y-78666666D01*
X143540238Y-78761904D01*
X143635476Y-78857142D01*
X143683095Y-78952380D01*
X143397380Y-78047619D02*
X143397380Y-77428571D01*
X143778333Y-77761904D01*
X143778333Y-77619047D01*
X143825952Y-77523809D01*
X143873571Y-77476190D01*
X143968809Y-77428571D01*
X144206904Y-77428571D01*
X144302142Y-77476190D01*
X144349761Y-77523809D01*
X144397380Y-77619047D01*
X144397380Y-77904761D01*
X144349761Y-78000000D01*
X144302142Y-78047619D01*
X143397380Y-76809523D02*
X143397380Y-76714285D01*
X143445000Y-76619047D01*
X143492619Y-76571428D01*
X143587857Y-76523809D01*
X143778333Y-76476190D01*
X144016428Y-76476190D01*
X144206904Y-76523809D01*
X144302142Y-76571428D01*
X144349761Y-76619047D01*
X144397380Y-76714285D01*
X144397380Y-76809523D01*
X144349761Y-76904761D01*
X144302142Y-76952380D01*
X144206904Y-77000000D01*
X144016428Y-77047619D01*
X143778333Y-77047619D01*
X143587857Y-77000000D01*
X143492619Y-76952380D01*
X143445000Y-76904761D01*
X143397380Y-76809523D01*
X143492619Y-76095238D02*
X143445000Y-76047619D01*
X143397380Y-75952380D01*
X143397380Y-75714285D01*
X143445000Y-75619047D01*
X143492619Y-75571428D01*
X143587857Y-75523809D01*
X143683095Y-75523809D01*
X143825952Y-75571428D01*
X144397380Y-76142857D01*
X144397380Y-75523809D01*
X143492619Y-75142857D02*
X143445000Y-75095238D01*
X143397380Y-75000000D01*
X143397380Y-74761904D01*
X143445000Y-74666666D01*
X143492619Y-74619047D01*
X143587857Y-74571428D01*
X143683095Y-74571428D01*
X143825952Y-74619047D01*
X144397380Y-75190476D01*
X144397380Y-74571428D01*
X143397380Y-73952380D02*
X143397380Y-73857142D01*
X143445000Y-73761904D01*
X143492619Y-73714285D01*
X143587857Y-73666666D01*
X143778333Y-73619047D01*
X144016428Y-73619047D01*
X144206904Y-73666666D01*
X144302142Y-73714285D01*
X144349761Y-73761904D01*
X144397380Y-73857142D01*
X144397380Y-73952380D01*
X144349761Y-74047619D01*
X144302142Y-74095238D01*
X144206904Y-74142857D01*
X144016428Y-74190476D01*
X143778333Y-74190476D01*
X143587857Y-74142857D01*
X143492619Y-74095238D01*
X143445000Y-74047619D01*
X143397380Y-73952380D01*
X143492619Y-73238095D02*
X143445000Y-73190476D01*
X143397380Y-73095238D01*
X143397380Y-72857142D01*
X143445000Y-72761904D01*
X143492619Y-72714285D01*
X143587857Y-72666666D01*
X143683095Y-72666666D01*
X143825952Y-72714285D01*
X144397380Y-73285714D01*
X144397380Y-72666666D01*
X143397380Y-72333333D02*
X143397380Y-71714285D01*
X143778333Y-72047619D01*
X143778333Y-71904761D01*
X143825952Y-71809523D01*
X143873571Y-71761904D01*
X143968809Y-71714285D01*
X144206904Y-71714285D01*
X144302142Y-71761904D01*
X144349761Y-71809523D01*
X144397380Y-71904761D01*
X144397380Y-72190476D01*
X144349761Y-72285714D01*
X144302142Y-72333333D01*
X146007380Y-89738095D02*
X145007380Y-89738095D01*
X145721666Y-89404761D01*
X145007380Y-89071428D01*
X146007380Y-89071428D01*
X146007380Y-88452380D02*
X145959761Y-88547619D01*
X145912142Y-88595238D01*
X145816904Y-88642857D01*
X145531190Y-88642857D01*
X145435952Y-88595238D01*
X145388333Y-88547619D01*
X145340714Y-88452380D01*
X145340714Y-88309523D01*
X145388333Y-88214285D01*
X145435952Y-88166666D01*
X145531190Y-88119047D01*
X145816904Y-88119047D01*
X145912142Y-88166666D01*
X145959761Y-88214285D01*
X146007380Y-88309523D01*
X146007380Y-88452380D01*
X146007380Y-87261904D02*
X145007380Y-87261904D01*
X145959761Y-87261904D02*
X146007380Y-87357142D01*
X146007380Y-87547619D01*
X145959761Y-87642857D01*
X145912142Y-87690476D01*
X145816904Y-87738095D01*
X145531190Y-87738095D01*
X145435952Y-87690476D01*
X145388333Y-87642857D01*
X145340714Y-87547619D01*
X145340714Y-87357142D01*
X145388333Y-87261904D01*
X145959761Y-86404761D02*
X146007380Y-86500000D01*
X146007380Y-86690476D01*
X145959761Y-86785714D01*
X145864523Y-86833333D01*
X145483571Y-86833333D01*
X145388333Y-86785714D01*
X145340714Y-86690476D01*
X145340714Y-86500000D01*
X145388333Y-86404761D01*
X145483571Y-86357142D01*
X145578809Y-86357142D01*
X145674047Y-86833333D01*
X146007380Y-85785714D02*
X145959761Y-85880952D01*
X145864523Y-85928571D01*
X145007380Y-85928571D01*
X145912142Y-85404761D02*
X145959761Y-85357142D01*
X146007380Y-85404761D01*
X145959761Y-85452380D01*
X145912142Y-85404761D01*
X146007380Y-85404761D01*
X145388333Y-85404761D02*
X145435952Y-85357142D01*
X145483571Y-85404761D01*
X145435952Y-85452380D01*
X145388333Y-85404761D01*
X145483571Y-85404761D01*
X145007380Y-84166666D02*
X145816904Y-84166666D01*
X145912142Y-84119047D01*
X145959761Y-84071428D01*
X146007380Y-83976190D01*
X146007380Y-83785714D01*
X145959761Y-83690476D01*
X145912142Y-83642857D01*
X145816904Y-83595238D01*
X145007380Y-83595238D01*
X146007380Y-82642857D02*
X146007380Y-83119047D01*
X145007380Y-83119047D01*
X146007380Y-82309523D02*
X145007380Y-82309523D01*
X146007380Y-81738095D01*
X145007380Y-81738095D01*
X145102619Y-81309523D02*
X145055000Y-81261904D01*
X145007380Y-81166666D01*
X145007380Y-80928571D01*
X145055000Y-80833333D01*
X145102619Y-80785714D01*
X145197857Y-80738095D01*
X145293095Y-80738095D01*
X145435952Y-80785714D01*
X146007380Y-81357142D01*
X146007380Y-80738095D01*
X145007380Y-80119047D02*
X145007380Y-80023809D01*
X145055000Y-79928571D01*
X145102619Y-79880952D01*
X145197857Y-79833333D01*
X145388333Y-79785714D01*
X145626428Y-79785714D01*
X145816904Y-79833333D01*
X145912142Y-79880952D01*
X145959761Y-79928571D01*
X146007380Y-80023809D01*
X146007380Y-80119047D01*
X145959761Y-80214285D01*
X145912142Y-80261904D01*
X145816904Y-80309523D01*
X145626428Y-80357142D01*
X145388333Y-80357142D01*
X145197857Y-80309523D01*
X145102619Y-80261904D01*
X145055000Y-80214285D01*
X145007380Y-80119047D01*
X145007380Y-79166666D02*
X145007380Y-79071428D01*
X145055000Y-78976190D01*
X145102619Y-78928571D01*
X145197857Y-78880952D01*
X145388333Y-78833333D01*
X145626428Y-78833333D01*
X145816904Y-78880952D01*
X145912142Y-78928571D01*
X145959761Y-78976190D01*
X146007380Y-79071428D01*
X146007380Y-79166666D01*
X145959761Y-79261904D01*
X145912142Y-79309523D01*
X145816904Y-79357142D01*
X145626428Y-79404761D01*
X145388333Y-79404761D01*
X145197857Y-79357142D01*
X145102619Y-79309523D01*
X145055000Y-79261904D01*
X145007380Y-79166666D01*
X145007380Y-78500000D02*
X145007380Y-77880952D01*
X145388333Y-78214285D01*
X145388333Y-78071428D01*
X145435952Y-77976190D01*
X145483571Y-77928571D01*
X145578809Y-77880952D01*
X145816904Y-77880952D01*
X145912142Y-77928571D01*
X145959761Y-77976190D01*
X146007380Y-78071428D01*
X146007380Y-78357142D01*
X145959761Y-78452380D01*
X145912142Y-78500000D01*
X146007380Y-77023809D02*
X145483571Y-77023809D01*
X145388333Y-77071428D01*
X145340714Y-77166666D01*
X145340714Y-77357142D01*
X145388333Y-77452380D01*
X145959761Y-77023809D02*
X146007380Y-77119047D01*
X146007380Y-77357142D01*
X145959761Y-77452380D01*
X145864523Y-77500000D01*
X145769285Y-77500000D01*
X145674047Y-77452380D01*
X145626428Y-77357142D01*
X145626428Y-77119047D01*
X145578809Y-77023809D01*
X155238095Y-102452380D02*
X155238095Y-103261904D01*
X155285714Y-103357142D01*
X155333333Y-103404761D01*
X155428571Y-103452380D01*
X155619047Y-103452380D01*
X155714285Y-103404761D01*
X155761904Y-103357142D01*
X155809523Y-103261904D01*
X155809523Y-102452380D01*
X156238095Y-103404761D02*
X156380952Y-103452380D01*
X156619047Y-103452380D01*
X156714285Y-103404761D01*
X156761904Y-103357142D01*
X156809523Y-103261904D01*
X156809523Y-103166666D01*
X156761904Y-103071428D01*
X156714285Y-103023809D01*
X156619047Y-102976190D01*
X156428571Y-102928571D01*
X156333333Y-102880952D01*
X156285714Y-102833333D01*
X156238095Y-102738095D01*
X156238095Y-102642857D01*
X156285714Y-102547619D01*
X156333333Y-102500000D01*
X156428571Y-102452380D01*
X156666666Y-102452380D01*
X156809523Y-102500000D01*
X157571428Y-102928571D02*
X157714285Y-102976190D01*
X157761904Y-103023809D01*
X157809523Y-103119047D01*
X157809523Y-103261904D01*
X157761904Y-103357142D01*
X157714285Y-103404761D01*
X157619047Y-103452380D01*
X157238095Y-103452380D01*
X157238095Y-102452380D01*
X157571428Y-102452380D01*
X157666666Y-102500000D01*
X157714285Y-102547619D01*
X157761904Y-102642857D01*
X157761904Y-102738095D01*
X157714285Y-102833333D01*
X157666666Y-102880952D01*
X157571428Y-102928571D01*
X157238095Y-102928571D01*
X152500000Y-99250000D02*
X160250000Y-99250000D01*
X160250000Y-99250000D02*
X160250000Y-107000000D01*
X160250000Y-107000000D02*
X152500000Y-107000000D01*
X152500000Y-107000000D02*
X152500000Y-99250000D01*
D11*
%TO.C,2.2mm*%
X143333333Y-99023809D02*
X143357142Y-99000000D01*
X143404761Y-98976190D01*
X143523809Y-98976190D01*
X143571428Y-99000000D01*
X143595238Y-99023809D01*
X143619047Y-99071428D01*
X143619047Y-99119047D01*
X143595238Y-99190476D01*
X143309523Y-99476190D01*
X143619047Y-99476190D01*
X143833333Y-99428571D02*
X143857142Y-99452380D01*
X143833333Y-99476190D01*
X143809523Y-99452380D01*
X143833333Y-99428571D01*
X143833333Y-99476190D01*
X144047619Y-99023809D02*
X144071428Y-99000000D01*
X144119047Y-98976190D01*
X144238095Y-98976190D01*
X144285714Y-99000000D01*
X144309523Y-99023809D01*
X144333333Y-99071428D01*
X144333333Y-99119047D01*
X144309523Y-99190476D01*
X144023809Y-99476190D01*
X144333333Y-99476190D01*
X144547619Y-99476190D02*
X144547619Y-99142857D01*
X144547619Y-99190476D02*
X144571428Y-99166666D01*
X144619047Y-99142857D01*
X144690476Y-99142857D01*
X144738095Y-99166666D01*
X144761904Y-99214285D01*
X144761904Y-99476190D01*
X144761904Y-99214285D02*
X144785714Y-99166666D01*
X144833333Y-99142857D01*
X144904761Y-99142857D01*
X144952380Y-99166666D01*
X144976190Y-99214285D01*
X144976190Y-99476190D01*
X145214285Y-99476190D02*
X145214285Y-99142857D01*
X145214285Y-99190476D02*
X145238095Y-99166666D01*
X145285714Y-99142857D01*
X145357142Y-99142857D01*
X145404761Y-99166666D01*
X145428571Y-99214285D01*
X145428571Y-99476190D01*
X145428571Y-99214285D02*
X145452380Y-99166666D01*
X145500000Y-99142857D01*
X145571428Y-99142857D01*
X145619047Y-99166666D01*
X145642857Y-99214285D01*
X145642857Y-99476190D01*
X166833333Y-99023809D02*
X166857142Y-99000000D01*
X166904761Y-98976190D01*
X167023809Y-98976190D01*
X167071428Y-99000000D01*
X167095238Y-99023809D01*
X167119047Y-99071428D01*
X167119047Y-99119047D01*
X167095238Y-99190476D01*
X166809523Y-99476190D01*
X167119047Y-99476190D01*
X167333333Y-99428571D02*
X167357142Y-99452380D01*
X167333333Y-99476190D01*
X167309523Y-99452380D01*
X167333333Y-99428571D01*
X167333333Y-99476190D01*
X167547619Y-99023809D02*
X167571428Y-99000000D01*
X167619047Y-98976190D01*
X167738095Y-98976190D01*
X167785714Y-99000000D01*
X167809523Y-99023809D01*
X167833333Y-99071428D01*
X167833333Y-99119047D01*
X167809523Y-99190476D01*
X167523809Y-99476190D01*
X167833333Y-99476190D01*
X168047619Y-99476190D02*
X168047619Y-99142857D01*
X168047619Y-99190476D02*
X168071428Y-99166666D01*
X168119047Y-99142857D01*
X168190476Y-99142857D01*
X168238095Y-99166666D01*
X168261904Y-99214285D01*
X168261904Y-99476190D01*
X168261904Y-99214285D02*
X168285714Y-99166666D01*
X168333333Y-99142857D01*
X168404761Y-99142857D01*
X168452380Y-99166666D01*
X168476190Y-99214285D01*
X168476190Y-99476190D01*
X168714285Y-99476190D02*
X168714285Y-99142857D01*
X168714285Y-99190476D02*
X168738095Y-99166666D01*
X168785714Y-99142857D01*
X168857142Y-99142857D01*
X168904761Y-99166666D01*
X168928571Y-99214285D01*
X168928571Y-99476190D01*
X168928571Y-99214285D02*
X168952380Y-99166666D01*
X169000000Y-99142857D01*
X169071428Y-99142857D01*
X169119047Y-99166666D01*
X169142857Y-99214285D01*
X169142857Y-99476190D01*
X143333333Y-64273809D02*
X143357142Y-64250000D01*
X143404761Y-64226190D01*
X143523809Y-64226190D01*
X143571428Y-64250000D01*
X143595238Y-64273809D01*
X143619047Y-64321428D01*
X143619047Y-64369047D01*
X143595238Y-64440476D01*
X143309523Y-64726190D01*
X143619047Y-64726190D01*
X143833333Y-64678571D02*
X143857142Y-64702380D01*
X143833333Y-64726190D01*
X143809523Y-64702380D01*
X143833333Y-64678571D01*
X143833333Y-64726190D01*
X144047619Y-64273809D02*
X144071428Y-64250000D01*
X144119047Y-64226190D01*
X144238095Y-64226190D01*
X144285714Y-64250000D01*
X144309523Y-64273809D01*
X144333333Y-64321428D01*
X144333333Y-64369047D01*
X144309523Y-64440476D01*
X144023809Y-64726190D01*
X144333333Y-64726190D01*
X144547619Y-64726190D02*
X144547619Y-64392857D01*
X144547619Y-64440476D02*
X144571428Y-64416666D01*
X144619047Y-64392857D01*
X144690476Y-64392857D01*
X144738095Y-64416666D01*
X144761904Y-64464285D01*
X144761904Y-64726190D01*
X144761904Y-64464285D02*
X144785714Y-64416666D01*
X144833333Y-64392857D01*
X144904761Y-64392857D01*
X144952380Y-64416666D01*
X144976190Y-64464285D01*
X144976190Y-64726190D01*
X145214285Y-64726190D02*
X145214285Y-64392857D01*
X145214285Y-64440476D02*
X145238095Y-64416666D01*
X145285714Y-64392857D01*
X145357142Y-64392857D01*
X145404761Y-64416666D01*
X145428571Y-64464285D01*
X145428571Y-64726190D01*
X145428571Y-64464285D02*
X145452380Y-64416666D01*
X145500000Y-64392857D01*
X145571428Y-64392857D01*
X145619047Y-64416666D01*
X145642857Y-64464285D01*
X145642857Y-64726190D01*
D12*
X166833333Y-64273809D02*
X166857142Y-64250000D01*
X166904761Y-64226190D01*
X167023809Y-64226190D01*
X167071428Y-64250000D01*
X167095238Y-64273809D01*
X167119047Y-64321428D01*
X167119047Y-64369047D01*
X167095238Y-64440476D01*
X166809523Y-64726190D01*
X167119047Y-64726190D01*
X167333333Y-64678571D02*
X167357142Y-64702380D01*
X167333333Y-64726190D01*
X167309523Y-64702380D01*
X167333333Y-64678571D01*
X167333333Y-64726190D01*
X167547619Y-64273809D02*
X167571428Y-64250000D01*
X167619047Y-64226190D01*
X167738095Y-64226190D01*
X167785714Y-64250000D01*
X167809523Y-64273809D01*
X167833333Y-64321428D01*
X167833333Y-64369047D01*
X167809523Y-64440476D01*
X167523809Y-64726190D01*
X167833333Y-64726190D01*
X168047619Y-64726190D02*
X168047619Y-64392857D01*
X168047619Y-64440476D02*
X168071428Y-64416666D01*
X168119047Y-64392857D01*
X168190476Y-64392857D01*
X168238095Y-64416666D01*
X168261904Y-64464285D01*
X168261904Y-64726190D01*
X168261904Y-64464285D02*
X168285714Y-64416666D01*
X168333333Y-64392857D01*
X168404761Y-64392857D01*
X168452380Y-64416666D01*
X168476190Y-64464285D01*
X168476190Y-64726190D01*
X168714285Y-64726190D02*
X168714285Y-64392857D01*
X168714285Y-64440476D02*
X168738095Y-64416666D01*
X168785714Y-64392857D01*
X168857142Y-64392857D01*
X168904761Y-64416666D01*
X168928571Y-64464285D01*
X168928571Y-64726190D01*
X168928571Y-64464285D02*
X168952380Y-64416666D01*
X169000000Y-64392857D01*
X169071428Y-64392857D01*
X169119047Y-64416666D01*
X169142857Y-64464285D01*
X169142857Y-64726190D01*
D10*
%TO.C,U1*%
X155678095Y-75382380D02*
X155678095Y-76191904D01*
X155725714Y-76287142D01*
X155773333Y-76334761D01*
X155868571Y-76382380D01*
X156059047Y-76382380D01*
X156154285Y-76334761D01*
X156201904Y-76287142D01*
X156249523Y-76191904D01*
X156249523Y-75382380D01*
X157249523Y-76382380D02*
X156678095Y-76382380D01*
X156963809Y-76382380D02*
X156963809Y-75382380D01*
X156868571Y-75525238D01*
X156773333Y-75620476D01*
X156678095Y-75668095D01*
X155952380Y-90297619D02*
X156761904Y-90297619D01*
X156857142Y-90250000D01*
X156904761Y-90202380D01*
X156952380Y-90107142D01*
X156952380Y-89916666D01*
X156904761Y-89821428D01*
X156857142Y-89773809D01*
X156761904Y-89726190D01*
X155952380Y-89726190D01*
X156952380Y-88773809D02*
X156952380Y-89250000D01*
X155952380Y-89250000D01*
X156952380Y-88440476D02*
X155952380Y-88440476D01*
X156952380Y-87869047D01*
X155952380Y-87869047D01*
X156047619Y-87440476D02*
X156000000Y-87392857D01*
X155952380Y-87297619D01*
X155952380Y-87059523D01*
X156000000Y-86964285D01*
X156047619Y-86916666D01*
X156142857Y-86869047D01*
X156238095Y-86869047D01*
X156380952Y-86916666D01*
X156952380Y-87488095D01*
X156952380Y-86869047D01*
X155952380Y-86250000D02*
X155952380Y-86154761D01*
X156000000Y-86059523D01*
X156047619Y-86011904D01*
X156142857Y-85964285D01*
X156333333Y-85916666D01*
X156571428Y-85916666D01*
X156761904Y-85964285D01*
X156857142Y-86011904D01*
X156904761Y-86059523D01*
X156952380Y-86154761D01*
X156952380Y-86250000D01*
X156904761Y-86345238D01*
X156857142Y-86392857D01*
X156761904Y-86440476D01*
X156571428Y-86488095D01*
X156333333Y-86488095D01*
X156142857Y-86440476D01*
X156047619Y-86392857D01*
X156000000Y-86345238D01*
X155952380Y-86250000D01*
X155952380Y-85297619D02*
X155952380Y-85202380D01*
X156000000Y-85107142D01*
X156047619Y-85059523D01*
X156142857Y-85011904D01*
X156333333Y-84964285D01*
X156571428Y-84964285D01*
X156761904Y-85011904D01*
X156857142Y-85059523D01*
X156904761Y-85107142D01*
X156952380Y-85202380D01*
X156952380Y-85297619D01*
X156904761Y-85392857D01*
X156857142Y-85440476D01*
X156761904Y-85488095D01*
X156571428Y-85535714D01*
X156333333Y-85535714D01*
X156142857Y-85488095D01*
X156047619Y-85440476D01*
X156000000Y-85392857D01*
X155952380Y-85297619D01*
X155952380Y-84630952D02*
X155952380Y-84011904D01*
X156333333Y-84345238D01*
X156333333Y-84202380D01*
X156380952Y-84107142D01*
X156428571Y-84059523D01*
X156523809Y-84011904D01*
X156761904Y-84011904D01*
X156857142Y-84059523D01*
X156904761Y-84107142D01*
X156952380Y-84202380D01*
X156952380Y-84488095D01*
X156904761Y-84583333D01*
X156857142Y-84630952D01*
X156666666Y-83630952D02*
X156666666Y-83154761D01*
X156952380Y-83726190D02*
X155952380Y-83392857D01*
X156952380Y-83059523D01*
%TO.C,J1*%
X151096666Y-63312380D02*
X151096666Y-64026666D01*
X151049047Y-64169523D01*
X150953809Y-64264761D01*
X150810952Y-64312380D01*
X150715714Y-64312380D01*
X152096666Y-64312380D02*
X151525238Y-64312380D01*
X151810952Y-64312380D02*
X151810952Y-63312380D01*
X151715714Y-63455238D01*
X151620476Y-63550476D01*
X151525238Y-63598095D01*
%TO.C,A1*%
X149761904Y-65666666D02*
X150238095Y-65666666D01*
X149666666Y-65952380D02*
X150000000Y-64952380D01*
X150333333Y-65952380D01*
X150666666Y-65952380D02*
X150666666Y-65285714D01*
X150666666Y-65476190D02*
X150714285Y-65380952D01*
X150761904Y-65333333D01*
X150857142Y-65285714D01*
X150952380Y-65285714D01*
X151714285Y-65952380D02*
X151714285Y-64952380D01*
X151714285Y-65904761D02*
X151619047Y-65952380D01*
X151428571Y-65952380D01*
X151333333Y-65904761D01*
X151285714Y-65857142D01*
X151238095Y-65761904D01*
X151238095Y-65476190D01*
X151285714Y-65380952D01*
X151333333Y-65333333D01*
X151428571Y-65285714D01*
X151619047Y-65285714D01*
X151714285Y-65333333D01*
X152619047Y-65285714D02*
X152619047Y-65952380D01*
X152190476Y-65285714D02*
X152190476Y-65809523D01*
X152238095Y-65904761D01*
X152333333Y-65952380D01*
X152476190Y-65952380D01*
X152571428Y-65904761D01*
X152619047Y-65857142D01*
X153095238Y-65952380D02*
X153095238Y-65285714D01*
X153095238Y-64952380D02*
X153047619Y-65000000D01*
X153095238Y-65047619D01*
X153142857Y-65000000D01*
X153095238Y-64952380D01*
X153095238Y-65047619D01*
X153571428Y-65285714D02*
X153571428Y-65952380D01*
X153571428Y-65380952D02*
X153619047Y-65333333D01*
X153714285Y-65285714D01*
X153857142Y-65285714D01*
X153952380Y-65333333D01*
X154000000Y-65428571D01*
X154000000Y-65952380D01*
X154619047Y-65952380D02*
X154523809Y-65904761D01*
X154476190Y-65857142D01*
X154428571Y-65761904D01*
X154428571Y-65476190D01*
X154476190Y-65380952D01*
X154523809Y-65333333D01*
X154619047Y-65285714D01*
X154761904Y-65285714D01*
X154857142Y-65333333D01*
X154904761Y-65380952D01*
X154952380Y-65476190D01*
X154952380Y-65761904D01*
X154904761Y-65857142D01*
X154857142Y-65904761D01*
X154761904Y-65952380D01*
X154619047Y-65952380D01*
X155142857Y-66047619D02*
X155904761Y-66047619D01*
X156142857Y-65952380D02*
X156142857Y-64952380D01*
X156714285Y-65952380D01*
X156714285Y-64952380D01*
X157619047Y-65952380D02*
X157619047Y-65428571D01*
X157571428Y-65333333D01*
X157476190Y-65285714D01*
X157285714Y-65285714D01*
X157190476Y-65333333D01*
X157619047Y-65904761D02*
X157523809Y-65952380D01*
X157285714Y-65952380D01*
X157190476Y-65904761D01*
X157142857Y-65809523D01*
X157142857Y-65714285D01*
X157190476Y-65619047D01*
X157285714Y-65571428D01*
X157523809Y-65571428D01*
X157619047Y-65523809D01*
X158095238Y-65285714D02*
X158095238Y-65952380D01*
X158095238Y-65380952D02*
X158142857Y-65333333D01*
X158238095Y-65285714D01*
X158380952Y-65285714D01*
X158476190Y-65333333D01*
X158523809Y-65428571D01*
X158523809Y-65952380D01*
X159142857Y-65952380D02*
X159047619Y-65904761D01*
X159000000Y-65857142D01*
X158952380Y-65761904D01*
X158952380Y-65476190D01*
X159000000Y-65380952D01*
X159047619Y-65333333D01*
X159142857Y-65285714D01*
X159285714Y-65285714D01*
X159380952Y-65333333D01*
X159428571Y-65380952D01*
X159476190Y-65476190D01*
X159476190Y-65761904D01*
X159428571Y-65857142D01*
X159380952Y-65904761D01*
X159285714Y-65952380D01*
X159142857Y-65952380D01*
X159666666Y-66047619D02*
X160428571Y-66047619D01*
X160571428Y-65285714D02*
X160809523Y-65952380D01*
X161047619Y-65285714D01*
X161333333Y-64952380D02*
X161952380Y-64952380D01*
X161619047Y-65333333D01*
X161761904Y-65333333D01*
X161857142Y-65380952D01*
X161904761Y-65428571D01*
X161952380Y-65523809D01*
X161952380Y-65761904D01*
X161904761Y-65857142D01*
X161857142Y-65904761D01*
X161761904Y-65952380D01*
X161476190Y-65952380D01*
X161380952Y-65904761D01*
X161333333Y-65857142D01*
X162380952Y-65857142D02*
X162428571Y-65904761D01*
X162380952Y-65952380D01*
X162333333Y-65904761D01*
X162380952Y-65857142D01*
X162380952Y-65952380D01*
X162761904Y-65952380D02*
X163285714Y-65285714D01*
X162761904Y-65285714D02*
X163285714Y-65952380D01*
%TO.C,J2*%
X163596666Y-63312380D02*
X163596666Y-64026666D01*
X163549047Y-64169523D01*
X163453809Y-64264761D01*
X163310952Y-64312380D01*
X163215714Y-64312380D01*
X164025238Y-63407619D02*
X164072857Y-63360000D01*
X164168095Y-63312380D01*
X164406190Y-63312380D01*
X164501428Y-63360000D01*
X164549047Y-63407619D01*
X164596666Y-63502857D01*
X164596666Y-63598095D01*
X164549047Y-63740952D01*
X163977619Y-64312380D01*
X164596666Y-64312380D01*
%TO.C,C1*%
X156358333Y-72457142D02*
X156310714Y-72504761D01*
X156167857Y-72552380D01*
X156072619Y-72552380D01*
X155929761Y-72504761D01*
X155834523Y-72409523D01*
X155786904Y-72314285D01*
X155739285Y-72123809D01*
X155739285Y-71980952D01*
X155786904Y-71790476D01*
X155834523Y-71695238D01*
X155929761Y-71600000D01*
X156072619Y-71552380D01*
X156167857Y-71552380D01*
X156310714Y-71600000D01*
X156358333Y-71647619D01*
X157310714Y-72552380D02*
X156739285Y-72552380D01*
X157025000Y-72552380D02*
X157025000Y-71552380D01*
X156929761Y-71695238D01*
X156834523Y-71790476D01*
X156739285Y-71838095D01*
X155596428Y-68852380D02*
X155025000Y-68852380D01*
X155310714Y-68852380D02*
X155310714Y-67852380D01*
X155215476Y-67995238D01*
X155120238Y-68090476D01*
X155025000Y-68138095D01*
X156215476Y-67852380D02*
X156310714Y-67852380D01*
X156405952Y-67900000D01*
X156453571Y-67947619D01*
X156501190Y-68042857D01*
X156548809Y-68233333D01*
X156548809Y-68471428D01*
X156501190Y-68661904D01*
X156453571Y-68757142D01*
X156405952Y-68804761D01*
X156310714Y-68852380D01*
X156215476Y-68852380D01*
X156120238Y-68804761D01*
X156072619Y-68757142D01*
X156025000Y-68661904D01*
X155977380Y-68471428D01*
X155977380Y-68233333D01*
X156025000Y-68042857D01*
X156072619Y-67947619D01*
X156120238Y-67900000D01*
X156215476Y-67852380D01*
X156977380Y-68185714D02*
X156977380Y-68852380D01*
X156977380Y-68280952D02*
X157025000Y-68233333D01*
X157120238Y-68185714D01*
X157263095Y-68185714D01*
X157358333Y-68233333D01*
X157405952Y-68328571D01*
X157405952Y-68852380D01*
X157739285Y-68185714D02*
X158120238Y-68185714D01*
X157882142Y-68852380D02*
X157882142Y-67995238D01*
X157929761Y-67900000D01*
X158025000Y-67852380D01*
X158120238Y-67852380D01*
D13*
%TO.C,REF\u002A\u002A*%
X162670000Y-68960000D02*
X165330000Y-68960000D01*
X164000000Y-66360000D02*
X165330000Y-66360000D01*
X165330000Y-68960000D02*
X165330000Y-104580000D01*
X162670000Y-68960000D02*
X162670000Y-104580000D01*
X165330000Y-66360000D02*
X165330000Y-67690000D01*
X162670000Y-104580000D02*
X165330000Y-104580000D01*
X150090000Y-68870000D02*
X150090000Y-104490000D01*
X147430000Y-104490000D02*
X150090000Y-104490000D01*
X150090000Y-66270000D02*
X150090000Y-67600000D01*
X148760000Y-66270000D02*
X150090000Y-66270000D01*
X147430000Y-68870000D02*
X147430000Y-104490000D01*
X147430000Y-68870000D02*
X150090000Y-68870000D01*
%TO.C,U1*%
X159090000Y-76930000D02*
X157440000Y-76930000D01*
X153790000Y-76930000D02*
X153790000Y-97370000D01*
X159090000Y-97370000D02*
X159090000Y-76930000D01*
X153790000Y-97370000D02*
X159090000Y-97370000D01*
X155440000Y-76930000D02*
X153790000Y-76930000D01*
X155440000Y-76930000D02*
G75*
G03*
X157440000Y-76930000I1000000J0D01*
G01*
%TO.C,J1*%
X149930000Y-57160000D02*
X150430000Y-57160000D01*
X154930000Y-57160000D02*
X155430000Y-57160000D01*
X150430000Y-57160000D02*
X150430000Y-51660000D01*
X155480000Y-62460000D02*
X154880000Y-62460000D01*
X151430000Y-51050000D02*
X157740000Y-51050000D01*
X147430000Y-57160000D02*
X147930000Y-57160000D01*
X154880000Y-62460000D02*
X155180000Y-61860000D01*
X156320000Y-62770000D02*
X156320000Y-58270000D01*
X152430000Y-57160000D02*
X152930000Y-57160000D01*
X146540000Y-58270000D02*
X151430000Y-58270000D01*
X145120000Y-62770000D02*
X146540000Y-62770000D01*
X155430000Y-51660000D02*
X154930000Y-51660000D01*
X146540000Y-62770000D02*
X146540000Y-58270000D01*
X152430000Y-51660000D02*
X152430000Y-57160000D01*
X155180000Y-61860000D02*
X155480000Y-62460000D01*
X147930000Y-51660000D02*
X147430000Y-51660000D01*
X152930000Y-51660000D02*
X152430000Y-51660000D01*
X151430000Y-51050000D02*
X145120000Y-51050000D01*
X155430000Y-57160000D02*
X155430000Y-51660000D01*
X154930000Y-51660000D02*
X154930000Y-57160000D01*
X157740000Y-62770000D02*
X156320000Y-62770000D01*
X145120000Y-51050000D02*
X145120000Y-62770000D01*
X152930000Y-57160000D02*
X152930000Y-51660000D01*
X147430000Y-51660000D02*
X147430000Y-57160000D01*
X157740000Y-51050000D02*
X157740000Y-62770000D01*
X156320000Y-58270000D02*
X151430000Y-58270000D01*
X147930000Y-57160000D02*
X147930000Y-51660000D01*
X150430000Y-51660000D02*
X149930000Y-51660000D01*
X149930000Y-51660000D02*
X149930000Y-57160000D01*
%TO.C,A1*%
X150030000Y-68870000D02*
X150030000Y-104430000D01*
X147360000Y-63660000D02*
X147360000Y-66330000D01*
X147360000Y-107100000D02*
X165400000Y-107100000D01*
X165400000Y-63660000D02*
X147360000Y-63660000D01*
X150030000Y-68870000D02*
X147360000Y-68870000D01*
X162730000Y-66330000D02*
X165400000Y-66330000D01*
X162730000Y-104430000D02*
X165400000Y-104430000D01*
X150030000Y-68870000D02*
X150030000Y-66330000D01*
X162730000Y-66330000D02*
X162730000Y-104430000D01*
X150030000Y-104430000D02*
X147360000Y-104430000D01*
X147360000Y-68870000D02*
X147360000Y-107100000D01*
X165400000Y-107100000D02*
X165400000Y-63660000D01*
X150030000Y-66330000D02*
X147360000Y-66330000D01*
%TO.C,J2*%
X161540000Y-62770000D02*
X161540000Y-58270000D01*
X163930000Y-51050000D02*
X167740000Y-51050000D01*
X162430000Y-51660000D02*
X162430000Y-57160000D01*
X166320000Y-62770000D02*
X166320000Y-58270000D01*
X165430000Y-57160000D02*
X165430000Y-51660000D01*
X162430000Y-57160000D02*
X162930000Y-57160000D01*
X167740000Y-51050000D02*
X167740000Y-62770000D01*
X161540000Y-58270000D02*
X163930000Y-58270000D01*
X166320000Y-58270000D02*
X163930000Y-58270000D01*
X164880000Y-62460000D02*
X165180000Y-61860000D01*
X163930000Y-51050000D02*
X160120000Y-51050000D01*
X162930000Y-57160000D02*
X162930000Y-51660000D01*
X162930000Y-51660000D02*
X162430000Y-51660000D01*
X165430000Y-51660000D02*
X164930000Y-51660000D01*
X164930000Y-57160000D02*
X165430000Y-57160000D01*
X164930000Y-51660000D02*
X164930000Y-57160000D01*
X160120000Y-62770000D02*
X161540000Y-62770000D01*
X165480000Y-62460000D02*
X164880000Y-62460000D01*
X165180000Y-61860000D02*
X165480000Y-62460000D01*
X167740000Y-62770000D02*
X166320000Y-62770000D01*
X160120000Y-51050000D02*
X160120000Y-62770000D01*
%TO.C,C1*%
X157236252Y-71160000D02*
X155813748Y-71160000D01*
X157236252Y-69340000D02*
X155813748Y-69340000D01*
%TD*%
M02*
