%TF.GenerationSoftware,KiCad,Pcbnew,6.0.2+dfsg-1*%
%TF.CreationDate,2023-02-14T20:33:30-03:00*%
%TF.ProjectId,arduStep,61726475-5374-4657-902e-6b696361645f,rev?*%
%TF.SameCoordinates,Original*%
%TF.FileFunction,Soldermask,Bot*%
%TF.FilePolarity,Negative*%
%FSLAX46Y46*%
G04 Gerber Fmt 4.6, Leading zero omitted, Abs format (unit mm)*
G04 Created by KiCad (PCBNEW 6.0.2+dfsg-1) date 2023-02-14 20:33:30*
%MOMM*%
%LPD*%
G01*
G04 APERTURE LIST*
G04 Aperture macros list*
%AMRoundRect*
0 Rectangle with rounded corners*
0 $1 Rounding radius*
0 $2 $3 $4 $5 $6 $7 $8 $9 X,Y pos of 4 corners*
0 Add a 4 corners polygon primitive as box body*
4,1,4,$2,$3,$4,$5,$6,$7,$8,$9,$2,$3,0*
0 Add four circle primitives for the rounded corners*
1,1,$1+$1,$2,$3*
1,1,$1+$1,$4,$5*
1,1,$1+$1,$6,$7*
1,1,$1+$1,$8,$9*
0 Add four rect primitives between the rounded corners*
20,1,$1+$1,$2,$3,$4,$5,0*
20,1,$1+$1,$4,$5,$6,$7,0*
20,1,$1+$1,$6,$7,$8,$9,0*
20,1,$1+$1,$8,$9,$2,$3,0*%
G04 Aperture macros list end*
%ADD10R,1.700000X1.700000*%
%ADD11O,1.700000X1.700000*%
%ADD12C,3.500000*%
%ADD13R,1.600000X1.600000*%
%ADD14O,1.600000X1.600000*%
%ADD15RoundRect,0.250000X0.600000X0.725000X-0.600000X0.725000X-0.600000X-0.725000X0.600000X-0.725000X0*%
%ADD16O,1.700000X1.950000*%
%ADD17RoundRect,0.250000X0.600000X0.750000X-0.600000X0.750000X-0.600000X-0.750000X0.600000X-0.750000X0*%
%ADD18O,1.700000X2.000000*%
G04 APERTURE END LIST*
D10*
%TO.C,REF\u002A\u002A*%
X164000000Y-67690000D03*
D11*
X164000000Y-70230000D03*
X164000000Y-72770000D03*
X164000000Y-75310000D03*
X164000000Y-77850000D03*
X164000000Y-80390000D03*
X164000000Y-82930000D03*
X164000000Y-85470000D03*
X164000000Y-88010000D03*
X164000000Y-90550000D03*
X164000000Y-93090000D03*
X164000000Y-95630000D03*
X164000000Y-98170000D03*
X164000000Y-100710000D03*
X164000000Y-103250000D03*
%TD*%
D12*
%TO.C,2.2mm*%
X144500000Y-102000000D03*
%TD*%
%TO.C,2.2mm*%
X168000000Y-102000000D03*
%TD*%
%TO.C,2.2mm*%
X144500000Y-67250000D03*
%TD*%
%TO.C,2.2mm*%
X168000000Y-67250000D03*
%TD*%
D10*
%TO.C,REF\u002A\u002A*%
X148760000Y-67600000D03*
D11*
X148760000Y-70140000D03*
X148760000Y-72680000D03*
X148760000Y-75220000D03*
X148760000Y-77760000D03*
X148760000Y-80300000D03*
X148760000Y-82840000D03*
X148760000Y-85380000D03*
X148760000Y-87920000D03*
X148760000Y-90460000D03*
X148760000Y-93000000D03*
X148760000Y-95540000D03*
X148760000Y-98080000D03*
X148760000Y-100620000D03*
X148760000Y-103160000D03*
%TD*%
D13*
%TO.C,U1*%
X152630000Y-78260000D03*
D14*
X152630000Y-80800000D03*
X152630000Y-83340000D03*
X152630000Y-85880000D03*
X152630000Y-88420000D03*
X152630000Y-90960000D03*
X152630000Y-93500000D03*
X152630000Y-96040000D03*
X160250000Y-96040000D03*
X160250000Y-93500000D03*
X160250000Y-90960000D03*
X160250000Y-88420000D03*
X160250000Y-85880000D03*
X160250000Y-83340000D03*
X160250000Y-80800000D03*
X160250000Y-78260000D03*
%TD*%
D15*
%TO.C,J1*%
X155180000Y-60360000D03*
D16*
X152680000Y-60360000D03*
X150180000Y-60360000D03*
X147680000Y-60360000D03*
%TD*%
D14*
%TO.C,A1*%
X164000000Y-67600000D03*
X164000000Y-70140000D03*
X164000000Y-72680000D03*
X164000000Y-75220000D03*
X164000000Y-77760000D03*
X164000000Y-80300000D03*
X164000000Y-82840000D03*
X164000000Y-85380000D03*
X164000000Y-87920000D03*
X164000000Y-90460000D03*
X164000000Y-93000000D03*
X164000000Y-95540000D03*
X164000000Y-98080000D03*
X164000000Y-100620000D03*
X164000000Y-103160000D03*
X148760000Y-103160000D03*
X148760000Y-100620000D03*
X148760000Y-98080000D03*
X148760000Y-95540000D03*
X148760000Y-93000000D03*
X148760000Y-90460000D03*
X148760000Y-87920000D03*
X148760000Y-85380000D03*
X148760000Y-82840000D03*
X148760000Y-80300000D03*
X148760000Y-77760000D03*
X148760000Y-75220000D03*
X148760000Y-72680000D03*
X148760000Y-70140000D03*
D13*
X148760000Y-67600000D03*
%TD*%
D17*
%TO.C,J2*%
X165180000Y-60360000D03*
D18*
X162680000Y-60360000D03*
%TD*%
M02*
