M48
; DRILL file {KiCad 6.0.2+dfsg-1} date mar 14 feb 2023 20:33:40
; FORMAT={-:-/ absolute / inch / decimal}
; #@! TF.CreationDate,2023-02-14T20:33:40-03:00
; #@! TF.GenerationSoftware,Kicad,Pcbnew,6.0.2+dfsg-1
; #@! TF.FileFunction,Plated,1,2,PTH
FMAT,2
INCH
; #@! TA.AperFunction,Plated,PTH,ViaDrill
T1C0.0157
; #@! TA.AperFunction,Plated,PTH,ComponentDrill
T2C0.0315
; #@! TA.AperFunction,Plated,PTH,ComponentDrill
T3C0.0374
; #@! TA.AperFunction,Plated,PTH,ComponentDrill
T4C0.0394
; #@! TA.AperFunction,Plated,PTH,ComponentDrill
T5C0.0866
%
G90
G05
T1
X5.689Y-3.1299
X5.689Y-3.3268
X5.689Y-3.5433
X5.689Y-3.7598
X5.9843Y-3.9567
X6.1417Y-3.1496
X6.1417Y-3.3465
X6.1417Y-3.563
X6.1417Y-3.7795
X6.1614Y-2.5787
X6.1614Y-2.8937
X6.3386Y-2.6772
X6.3386Y-2.8346
X6.3386Y-3.9567
X6.6339Y-3.1299
X6.6339Y-3.3268
X6.6339Y-3.5433
X6.6339Y-3.7598
T2
X6.0091Y-3.0811
X6.0091Y-3.1811
X6.0091Y-3.2811
X6.0091Y-3.3811
X6.0091Y-3.4811
X6.0091Y-3.5811
X6.0091Y-3.6811
X6.0091Y-3.7811
X6.3091Y-3.0811
X6.3091Y-3.1811
X6.3091Y-3.2811
X6.3091Y-3.3811
X6.3091Y-3.4811
X6.3091Y-3.5811
X6.3091Y-3.6811
X6.3091Y-3.7811
T3
X5.8142Y-2.3764
X5.9126Y-2.3764
X6.011Y-2.3764
X6.1094Y-2.3764
T4
X5.8567Y-2.6614
X5.8567Y-2.6614
X5.8567Y-2.7614
X5.8567Y-2.7614
X5.8567Y-2.8614
X5.8567Y-2.8614
X5.8567Y-2.9614
X5.8567Y-2.9614
X5.8567Y-3.0614
X5.8567Y-3.0614
X5.8567Y-3.1614
X5.8567Y-3.1614
X5.8567Y-3.2614
X5.8567Y-3.2614
X5.8567Y-3.3614
X5.8567Y-3.3614
X5.8567Y-3.4614
X5.8567Y-3.4614
X5.8567Y-3.5614
X5.8567Y-3.5614
X5.8567Y-3.6614
X5.8567Y-3.6614
X5.8567Y-3.7614
X5.8567Y-3.7614
X5.8567Y-3.8614
X5.8567Y-3.8614
X5.8567Y-3.9614
X5.8567Y-3.9614
X5.8567Y-4.0614
X5.8567Y-4.0614
X6.4047Y-2.3764
X6.4567Y-2.6614
X6.4567Y-2.665
X6.4567Y-2.7614
X6.4567Y-2.765
X6.4567Y-2.8614
X6.4567Y-2.865
X6.4567Y-2.9614
X6.4567Y-2.965
X6.4567Y-3.0614
X6.4567Y-3.065
X6.4567Y-3.1614
X6.4567Y-3.165
X6.4567Y-3.2614
X6.4567Y-3.265
X6.4567Y-3.3614
X6.4567Y-3.365
X6.4567Y-3.4614
X6.4567Y-3.465
X6.4567Y-3.5614
X6.4567Y-3.565
X6.4567Y-3.6614
X6.4567Y-3.665
X6.4567Y-3.7614
X6.4567Y-3.765
X6.4567Y-3.8614
X6.4567Y-3.865
X6.4567Y-3.9614
X6.4567Y-3.965
X6.4567Y-4.0614
X6.4567Y-4.065
X6.5031Y-2.3764
T5
X5.689Y-2.6476
X5.689Y-4.0157
X6.6142Y-2.6476
X6.6142Y-4.0157
T0
M30
