%TF.GenerationSoftware,KiCad,Pcbnew,6.0.2+dfsg-1*%
%TF.CreationDate,2023-02-14T20:33:29-03:00*%
%TF.ProjectId,arduStep,61726475-5374-4657-902e-6b696361645f,rev?*%
%TF.SameCoordinates,Original*%
%TF.FileFunction,Legend,Bot*%
%TF.FilePolarity,Positive*%
%FSLAX46Y46*%
G04 Gerber Fmt 4.6, Leading zero omitted, Abs format (unit mm)*
G04 Created by KiCad (PCBNEW 6.0.2+dfsg-1) date 2023-02-14 20:33:29*
%MOMM*%
%LPD*%
G01*
G04 APERTURE LIST*
%ADD10C,0.150000*%
G04 APERTURE END LIST*
D10*
X146202380Y-74738095D02*
X145202380Y-74738095D01*
X145202380Y-74976190D01*
X145250000Y-75119047D01*
X145345238Y-75214285D01*
X145440476Y-75261904D01*
X145630952Y-75309523D01*
X145773809Y-75309523D01*
X145964285Y-75261904D01*
X146059523Y-75214285D01*
X146154761Y-75119047D01*
X146202380Y-74976190D01*
X146202380Y-74738095D01*
X146154761Y-76119047D02*
X146202380Y-76023809D01*
X146202380Y-75833333D01*
X146154761Y-75738095D01*
X146059523Y-75690476D01*
X145678571Y-75690476D01*
X145583333Y-75738095D01*
X145535714Y-75833333D01*
X145535714Y-76023809D01*
X145583333Y-76119047D01*
X145678571Y-76166666D01*
X145773809Y-76166666D01*
X145869047Y-75690476D01*
X146154761Y-76547619D02*
X146202380Y-76642857D01*
X146202380Y-76833333D01*
X146154761Y-76928571D01*
X146059523Y-76976190D01*
X146011904Y-76976190D01*
X145916666Y-76928571D01*
X145869047Y-76833333D01*
X145869047Y-76690476D01*
X145821428Y-76595238D01*
X145726190Y-76547619D01*
X145678571Y-76547619D01*
X145583333Y-76595238D01*
X145535714Y-76690476D01*
X145535714Y-76833333D01*
X145583333Y-76928571D01*
X146202380Y-77404761D02*
X145535714Y-77404761D01*
X145202380Y-77404761D02*
X145250000Y-77357142D01*
X145297619Y-77404761D01*
X145250000Y-77452380D01*
X145202380Y-77404761D01*
X145297619Y-77404761D01*
X145535714Y-77880952D02*
X146202380Y-77880952D01*
X145630952Y-77880952D02*
X145583333Y-77928571D01*
X145535714Y-78023809D01*
X145535714Y-78166666D01*
X145583333Y-78261904D01*
X145678571Y-78309523D01*
X146202380Y-78309523D01*
X145535714Y-79214285D02*
X146345238Y-79214285D01*
X146440476Y-79166666D01*
X146488095Y-79119047D01*
X146535714Y-79023809D01*
X146535714Y-78880952D01*
X146488095Y-78785714D01*
X146154761Y-79214285D02*
X146202380Y-79119047D01*
X146202380Y-78928571D01*
X146154761Y-78833333D01*
X146107142Y-78785714D01*
X146011904Y-78738095D01*
X145726190Y-78738095D01*
X145630952Y-78785714D01*
X145583333Y-78833333D01*
X145535714Y-78928571D01*
X145535714Y-79119047D01*
X145583333Y-79214285D01*
X146202380Y-80452380D02*
X145202380Y-80452380D01*
X145583333Y-80452380D02*
X145535714Y-80547619D01*
X145535714Y-80738095D01*
X145583333Y-80833333D01*
X145630952Y-80880952D01*
X145726190Y-80928571D01*
X146011904Y-80928571D01*
X146107142Y-80880952D01*
X146154761Y-80833333D01*
X146202380Y-80738095D01*
X146202380Y-80547619D01*
X146154761Y-80452380D01*
X145535714Y-81261904D02*
X146202380Y-81500000D01*
X145535714Y-81738095D02*
X146202380Y-81500000D01*
X146440476Y-81404761D01*
X146488095Y-81357142D01*
X146535714Y-81261904D01*
X146107142Y-83452380D02*
X146154761Y-83404761D01*
X146202380Y-83261904D01*
X146202380Y-83166666D01*
X146154761Y-83023809D01*
X146059523Y-82928571D01*
X145964285Y-82880952D01*
X145773809Y-82833333D01*
X145630952Y-82833333D01*
X145440476Y-82880952D01*
X145345238Y-82928571D01*
X145250000Y-83023809D01*
X145202380Y-83166666D01*
X145202380Y-83261904D01*
X145250000Y-83404761D01*
X145297619Y-83452380D01*
X146202380Y-83880952D02*
X145535714Y-83880952D01*
X145726190Y-83880952D02*
X145630952Y-83928571D01*
X145583333Y-83976190D01*
X145535714Y-84071428D01*
X145535714Y-84166666D01*
X146202380Y-84500000D02*
X145535714Y-84500000D01*
X145202380Y-84500000D02*
X145250000Y-84452380D01*
X145297619Y-84500000D01*
X145250000Y-84547619D01*
X145202380Y-84500000D01*
X145297619Y-84500000D01*
X146154761Y-84928571D02*
X146202380Y-85023809D01*
X146202380Y-85214285D01*
X146154761Y-85309523D01*
X146059523Y-85357142D01*
X146011904Y-85357142D01*
X145916666Y-85309523D01*
X145869047Y-85214285D01*
X145869047Y-85071428D01*
X145821428Y-84976190D01*
X145726190Y-84928571D01*
X145678571Y-84928571D01*
X145583333Y-84976190D01*
X145535714Y-85071428D01*
X145535714Y-85214285D01*
X145583333Y-85309523D01*
X145535714Y-85642857D02*
X145535714Y-86023809D01*
X145202380Y-85785714D02*
X146059523Y-85785714D01*
X146154761Y-85833333D01*
X146202380Y-85928571D01*
X146202380Y-86023809D01*
X146202380Y-86357142D02*
X145535714Y-86357142D01*
X145202380Y-86357142D02*
X145250000Y-86309523D01*
X145297619Y-86357142D01*
X145250000Y-86404761D01*
X145202380Y-86357142D01*
X145297619Y-86357142D01*
X146202380Y-87261904D02*
X145678571Y-87261904D01*
X145583333Y-87214285D01*
X145535714Y-87119047D01*
X145535714Y-86928571D01*
X145583333Y-86833333D01*
X146154761Y-87261904D02*
X146202380Y-87166666D01*
X146202380Y-86928571D01*
X146154761Y-86833333D01*
X146059523Y-86785714D01*
X145964285Y-86785714D01*
X145869047Y-86833333D01*
X145821428Y-86928571D01*
X145821428Y-87166666D01*
X145773809Y-87261904D01*
X145535714Y-87738095D02*
X146202380Y-87738095D01*
X145630952Y-87738095D02*
X145583333Y-87785714D01*
X145535714Y-87880952D01*
X145535714Y-88023809D01*
X145583333Y-88119047D01*
X145678571Y-88166666D01*
X146202380Y-88166666D01*
X146107142Y-89976190D02*
X146154761Y-89928571D01*
X146202380Y-89785714D01*
X146202380Y-89690476D01*
X146154761Y-89547619D01*
X146059523Y-89452380D01*
X145964285Y-89404761D01*
X145773809Y-89357142D01*
X145630952Y-89357142D01*
X145440476Y-89404761D01*
X145345238Y-89452380D01*
X145250000Y-89547619D01*
X145202380Y-89690476D01*
X145202380Y-89785714D01*
X145250000Y-89928571D01*
X145297619Y-89976190D01*
X146202380Y-90833333D02*
X145678571Y-90833333D01*
X145583333Y-90785714D01*
X145535714Y-90690476D01*
X145535714Y-90500000D01*
X145583333Y-90404761D01*
X146154761Y-90833333D02*
X146202380Y-90738095D01*
X146202380Y-90500000D01*
X146154761Y-90404761D01*
X146059523Y-90357142D01*
X145964285Y-90357142D01*
X145869047Y-90404761D01*
X145821428Y-90500000D01*
X145821428Y-90738095D01*
X145773809Y-90833333D01*
X146202380Y-91309523D02*
X145535714Y-91309523D01*
X145726190Y-91309523D02*
X145630952Y-91357142D01*
X145583333Y-91404761D01*
X145535714Y-91500000D01*
X145535714Y-91595238D01*
X146202380Y-91928571D02*
X145535714Y-91928571D01*
X145726190Y-91928571D02*
X145630952Y-91976190D01*
X145583333Y-92023809D01*
X145535714Y-92119047D01*
X145535714Y-92214285D01*
X146154761Y-92928571D02*
X146202380Y-92833333D01*
X146202380Y-92642857D01*
X146154761Y-92547619D01*
X146059523Y-92500000D01*
X145678571Y-92500000D01*
X145583333Y-92547619D01*
X145535714Y-92642857D01*
X145535714Y-92833333D01*
X145583333Y-92928571D01*
X145678571Y-92976190D01*
X145773809Y-92976190D01*
X145869047Y-92500000D01*
X146202380Y-93404761D02*
X145535714Y-93404761D01*
X145726190Y-93404761D02*
X145630952Y-93452380D01*
X145583333Y-93500000D01*
X145535714Y-93595238D01*
X145535714Y-93690476D01*
X146202380Y-94452380D02*
X145678571Y-94452380D01*
X145583333Y-94404761D01*
X145535714Y-94309523D01*
X145535714Y-94119047D01*
X145583333Y-94023809D01*
X146154761Y-94452380D02*
X146202380Y-94357142D01*
X146202380Y-94119047D01*
X146154761Y-94023809D01*
X146059523Y-93976190D01*
X145964285Y-93976190D01*
X145869047Y-94023809D01*
X145821428Y-94119047D01*
X145821428Y-94357142D01*
X145773809Y-94452380D01*
X146154761Y-94880952D02*
X146202380Y-94976190D01*
X146202380Y-95166666D01*
X146154761Y-95261904D01*
X146059523Y-95309523D01*
X146011904Y-95309523D01*
X145916666Y-95261904D01*
X145869047Y-95166666D01*
X145869047Y-95023809D01*
X145821428Y-94928571D01*
X145726190Y-94880952D01*
X145678571Y-94880952D01*
X145583333Y-94928571D01*
X145535714Y-95023809D01*
X145535714Y-95166666D01*
X145583333Y-95261904D01*
X167202380Y-74416666D02*
X166202380Y-74416666D01*
X166916666Y-74750000D01*
X166202380Y-75083333D01*
X167202380Y-75083333D01*
X167202380Y-75988095D02*
X166678571Y-75988095D01*
X166583333Y-75940476D01*
X166535714Y-75845238D01*
X166535714Y-75654761D01*
X166583333Y-75559523D01*
X167154761Y-75988095D02*
X167202380Y-75892857D01*
X167202380Y-75654761D01*
X167154761Y-75559523D01*
X167059523Y-75511904D01*
X166964285Y-75511904D01*
X166869047Y-75559523D01*
X166821428Y-75654761D01*
X166821428Y-75892857D01*
X166773809Y-75988095D01*
X167202380Y-76892857D02*
X166202380Y-76892857D01*
X167154761Y-76892857D02*
X167202380Y-76797619D01*
X167202380Y-76607142D01*
X167154761Y-76511904D01*
X167107142Y-76464285D01*
X167011904Y-76416666D01*
X166726190Y-76416666D01*
X166630952Y-76464285D01*
X166583333Y-76511904D01*
X166535714Y-76607142D01*
X166535714Y-76797619D01*
X166583333Y-76892857D01*
X167154761Y-77750000D02*
X167202380Y-77654761D01*
X167202380Y-77464285D01*
X167154761Y-77369047D01*
X167059523Y-77321428D01*
X166678571Y-77321428D01*
X166583333Y-77369047D01*
X166535714Y-77464285D01*
X166535714Y-77654761D01*
X166583333Y-77750000D01*
X166678571Y-77797619D01*
X166773809Y-77797619D01*
X166869047Y-77321428D01*
X167202380Y-79130952D02*
X167154761Y-79035714D01*
X167107142Y-78988095D01*
X167011904Y-78940476D01*
X166726190Y-78940476D01*
X166630952Y-78988095D01*
X166583333Y-79035714D01*
X166535714Y-79130952D01*
X166535714Y-79273809D01*
X166583333Y-79369047D01*
X166630952Y-79416666D01*
X166726190Y-79464285D01*
X167011904Y-79464285D01*
X167107142Y-79416666D01*
X167154761Y-79369047D01*
X167202380Y-79273809D01*
X167202380Y-79130952D01*
X166535714Y-79892857D02*
X167202380Y-79892857D01*
X166630952Y-79892857D02*
X166583333Y-79940476D01*
X166535714Y-80035714D01*
X166535714Y-80178571D01*
X166583333Y-80273809D01*
X166678571Y-80321428D01*
X167202380Y-80321428D01*
X166678571Y-81559523D02*
X166678571Y-81892857D01*
X167202380Y-82035714D02*
X167202380Y-81559523D01*
X166202380Y-81559523D01*
X166202380Y-82035714D01*
X167202380Y-82892857D02*
X166678571Y-82892857D01*
X166583333Y-82845238D01*
X166535714Y-82750000D01*
X166535714Y-82559523D01*
X166583333Y-82464285D01*
X167154761Y-82892857D02*
X167202380Y-82797619D01*
X167202380Y-82559523D01*
X167154761Y-82464285D01*
X167059523Y-82416666D01*
X166964285Y-82416666D01*
X166869047Y-82464285D01*
X166821428Y-82559523D01*
X166821428Y-82797619D01*
X166773809Y-82892857D01*
X167202380Y-83369047D02*
X166535714Y-83369047D01*
X166726190Y-83369047D02*
X166630952Y-83416666D01*
X166583333Y-83464285D01*
X166535714Y-83559523D01*
X166535714Y-83654761D01*
X166535714Y-83845238D02*
X166535714Y-84226190D01*
X166202380Y-83988095D02*
X167059523Y-83988095D01*
X167154761Y-84035714D01*
X167202380Y-84130952D01*
X167202380Y-84226190D01*
X167202380Y-84559523D02*
X166202380Y-84559523D01*
X167202380Y-84988095D02*
X166678571Y-84988095D01*
X166583333Y-84940476D01*
X166535714Y-84845238D01*
X166535714Y-84702380D01*
X166583333Y-84607142D01*
X166630952Y-84559523D01*
X167202380Y-86226190D02*
X166202380Y-86226190D01*
X166583333Y-86226190D02*
X166535714Y-86321428D01*
X166535714Y-86511904D01*
X166583333Y-86607142D01*
X166630952Y-86654761D01*
X166726190Y-86702380D01*
X167011904Y-86702380D01*
X167107142Y-86654761D01*
X167154761Y-86607142D01*
X167202380Y-86511904D01*
X167202380Y-86321428D01*
X167154761Y-86226190D01*
X166535714Y-87035714D02*
X167202380Y-87273809D01*
X166535714Y-87511904D02*
X167202380Y-87273809D01*
X167440476Y-87178571D01*
X167488095Y-87130952D01*
X167535714Y-87035714D01*
X167202380Y-88654761D02*
X166202380Y-88654761D01*
X166678571Y-88654761D02*
X166678571Y-89226190D01*
X167202380Y-89226190D02*
X166202380Y-89226190D01*
X166535714Y-90130952D02*
X167202380Y-90130952D01*
X166535714Y-89702380D02*
X167059523Y-89702380D01*
X167154761Y-89750000D01*
X167202380Y-89845238D01*
X167202380Y-89988095D01*
X167154761Y-90083333D01*
X167107142Y-90130952D01*
X167202380Y-90607142D02*
X166535714Y-90607142D01*
X166630952Y-90607142D02*
X166583333Y-90654761D01*
X166535714Y-90750000D01*
X166535714Y-90892857D01*
X166583333Y-90988095D01*
X166678571Y-91035714D01*
X167202380Y-91035714D01*
X166678571Y-91035714D02*
X166583333Y-91083333D01*
X166535714Y-91178571D01*
X166535714Y-91321428D01*
X166583333Y-91416666D01*
X166678571Y-91464285D01*
X167202380Y-91464285D01*
X167202380Y-92369047D02*
X166678571Y-92369047D01*
X166583333Y-92321428D01*
X166535714Y-92226190D01*
X166535714Y-92035714D01*
X166583333Y-91940476D01*
X167154761Y-92369047D02*
X167202380Y-92273809D01*
X167202380Y-92035714D01*
X167154761Y-91940476D01*
X167059523Y-91892857D01*
X166964285Y-91892857D01*
X166869047Y-91940476D01*
X166821428Y-92035714D01*
X166821428Y-92273809D01*
X166773809Y-92369047D01*
X166535714Y-92845238D02*
X167202380Y-92845238D01*
X166630952Y-92845238D02*
X166583333Y-92892857D01*
X166535714Y-92988095D01*
X166535714Y-93130952D01*
X166583333Y-93226190D01*
X166678571Y-93273809D01*
X167202380Y-93273809D01*
X167154761Y-93702380D02*
X167202380Y-93797619D01*
X167202380Y-93988095D01*
X167154761Y-94083333D01*
X167059523Y-94130952D01*
X167011904Y-94130952D01*
X166916666Y-94083333D01*
X166869047Y-93988095D01*
X166869047Y-93845238D01*
X166821428Y-93750000D01*
X166726190Y-93702380D01*
X166678571Y-93702380D01*
X166583333Y-93750000D01*
X166535714Y-93845238D01*
X166535714Y-93988095D01*
X166583333Y-94083333D01*
X156940476Y-64404761D02*
X156797619Y-64452380D01*
X156559523Y-64452380D01*
X156464285Y-64404761D01*
X156416666Y-64357142D01*
X156369047Y-64261904D01*
X156369047Y-64166666D01*
X156416666Y-64071428D01*
X156464285Y-64023809D01*
X156559523Y-63976190D01*
X156750000Y-63928571D01*
X156845238Y-63880952D01*
X156892857Y-63833333D01*
X156940476Y-63738095D01*
X156940476Y-63642857D01*
X156892857Y-63547619D01*
X156845238Y-63500000D01*
X156750000Y-63452380D01*
X156511904Y-63452380D01*
X156369047Y-63500000D01*
X156083333Y-63785714D02*
X155702380Y-63785714D01*
X155940476Y-63452380D02*
X155940476Y-64309523D01*
X155892857Y-64404761D01*
X155797619Y-64452380D01*
X155702380Y-64452380D01*
X154988095Y-64404761D02*
X155083333Y-64452380D01*
X155273809Y-64452380D01*
X155369047Y-64404761D01*
X155416666Y-64309523D01*
X155416666Y-63928571D01*
X155369047Y-63833333D01*
X155273809Y-63785714D01*
X155083333Y-63785714D01*
X154988095Y-63833333D01*
X154940476Y-63928571D01*
X154940476Y-64023809D01*
X155416666Y-64119047D01*
X154511904Y-63785714D02*
X154511904Y-64785714D01*
X154511904Y-63833333D02*
X154416666Y-63785714D01*
X154226190Y-63785714D01*
X154130952Y-63833333D01*
X154083333Y-63880952D01*
X154035714Y-63976190D01*
X154035714Y-64261904D01*
X154083333Y-64357142D01*
X154130952Y-64404761D01*
X154226190Y-64452380D01*
X154416666Y-64452380D01*
X154511904Y-64404761D01*
X153607142Y-63785714D02*
X153607142Y-64785714D01*
X153607142Y-63833333D02*
X153511904Y-63785714D01*
X153321428Y-63785714D01*
X153226190Y-63833333D01*
X153178571Y-63880952D01*
X153130952Y-63976190D01*
X153130952Y-64261904D01*
X153178571Y-64357142D01*
X153226190Y-64404761D01*
X153321428Y-64452380D01*
X153511904Y-64452380D01*
X153607142Y-64404761D01*
X152321428Y-64404761D02*
X152416666Y-64452380D01*
X152607142Y-64452380D01*
X152702380Y-64404761D01*
X152750000Y-64309523D01*
X152750000Y-63928571D01*
X152702380Y-63833333D01*
X152607142Y-63785714D01*
X152416666Y-63785714D01*
X152321428Y-63833333D01*
X152273809Y-63928571D01*
X152273809Y-64023809D01*
X152750000Y-64119047D01*
X151845238Y-64452380D02*
X151845238Y-63785714D01*
X151845238Y-63976190D02*
X151797619Y-63880952D01*
X151750000Y-63833333D01*
X151654761Y-63785714D01*
X151559523Y-63785714D01*
X150464285Y-64452380D02*
X150464285Y-63785714D01*
X150464285Y-63880952D02*
X150416666Y-63833333D01*
X150321428Y-63785714D01*
X150178571Y-63785714D01*
X150083333Y-63833333D01*
X150035714Y-63928571D01*
X150035714Y-64452380D01*
X150035714Y-63928571D02*
X149988095Y-63833333D01*
X149892857Y-63785714D01*
X149750000Y-63785714D01*
X149654761Y-63833333D01*
X149607142Y-63928571D01*
X149607142Y-64452380D01*
X148988095Y-64452380D02*
X149083333Y-64404761D01*
X149130952Y-64357142D01*
X149178571Y-64261904D01*
X149178571Y-63976190D01*
X149130952Y-63880952D01*
X149083333Y-63833333D01*
X148988095Y-63785714D01*
X148845238Y-63785714D01*
X148750000Y-63833333D01*
X148702380Y-63880952D01*
X148654761Y-63976190D01*
X148654761Y-64261904D01*
X148702380Y-64357142D01*
X148750000Y-64404761D01*
X148845238Y-64452380D01*
X148988095Y-64452380D01*
X148369047Y-63785714D02*
X147988095Y-63785714D01*
X148226190Y-63452380D02*
X148226190Y-64309523D01*
X148178571Y-64404761D01*
X148083333Y-64452380D01*
X147988095Y-64452380D01*
X147511904Y-64452380D02*
X147607142Y-64404761D01*
X147654761Y-64357142D01*
X147702380Y-64261904D01*
X147702380Y-63976190D01*
X147654761Y-63880952D01*
X147607142Y-63833333D01*
X147511904Y-63785714D01*
X147369047Y-63785714D01*
X147273809Y-63833333D01*
X147226190Y-63880952D01*
X147178571Y-63976190D01*
X147178571Y-64261904D01*
X147226190Y-64357142D01*
X147273809Y-64404761D01*
X147369047Y-64452380D01*
X147511904Y-64452380D01*
X146750000Y-64452380D02*
X146750000Y-63785714D01*
X146750000Y-63976190D02*
X146702380Y-63880952D01*
X146654761Y-63833333D01*
X146559523Y-63785714D01*
X146464285Y-63785714D01*
X162761904Y-63500000D02*
X162857142Y-63452380D01*
X163000000Y-63452380D01*
X163142857Y-63500000D01*
X163238095Y-63595238D01*
X163285714Y-63690476D01*
X163333333Y-63880952D01*
X163333333Y-64023809D01*
X163285714Y-64214285D01*
X163238095Y-64309523D01*
X163142857Y-64404761D01*
X163000000Y-64452380D01*
X162904761Y-64452380D01*
X162761904Y-64404761D01*
X162714285Y-64357142D01*
X162714285Y-64023809D01*
X162904761Y-64023809D01*
X162285714Y-64452380D02*
X162285714Y-63452380D01*
X161714285Y-64452380D01*
X161714285Y-63452380D01*
X161238095Y-64452380D02*
X161238095Y-63452380D01*
X161000000Y-63452380D01*
X160857142Y-63500000D01*
X160761904Y-63595238D01*
X160714285Y-63690476D01*
X160666666Y-63880952D01*
X160666666Y-64023809D01*
X160714285Y-64214285D01*
X160761904Y-64309523D01*
X160857142Y-64404761D01*
X161000000Y-64452380D01*
X161238095Y-64452380D01*
X165690476Y-63452380D02*
X166166666Y-63452380D01*
X166214285Y-63928571D01*
X166166666Y-63880952D01*
X166071428Y-63833333D01*
X165833333Y-63833333D01*
X165738095Y-63880952D01*
X165690476Y-63928571D01*
X165642857Y-64023809D01*
X165642857Y-64261904D01*
X165690476Y-64357142D01*
X165738095Y-64404761D01*
X165833333Y-64452380D01*
X166071428Y-64452380D01*
X166166666Y-64404761D01*
X166214285Y-64357142D01*
X165357142Y-63452380D02*
X165023809Y-64452380D01*
X164690476Y-63452380D01*
M02*
