%TF.GenerationSoftware,KiCad,Pcbnew,6.0.2+dfsg-1*%
%TF.CreationDate,2023-02-14T20:33:27-03:00*%
%TF.ProjectId,arduStep,61726475-5374-4657-902e-6b696361645f,rev?*%
%TF.SameCoordinates,Original*%
%TF.FileFunction,Copper,L1,Top*%
%TF.FilePolarity,Positive*%
%FSLAX46Y46*%
G04 Gerber Fmt 4.6, Leading zero omitted, Abs format (unit mm)*
G04 Created by KiCad (PCBNEW 6.0.2+dfsg-1) date 2023-02-14 20:33:27*
%MOMM*%
%LPD*%
G01*
G04 APERTURE LIST*
G04 Aperture macros list*
%AMRoundRect*
0 Rectangle with rounded corners*
0 $1 Rounding radius*
0 $2 $3 $4 $5 $6 $7 $8 $9 X,Y pos of 4 corners*
0 Add a 4 corners polygon primitive as box body*
4,1,4,$2,$3,$4,$5,$6,$7,$8,$9,$2,$3,0*
0 Add four circle primitives for the rounded corners*
1,1,$1+$1,$2,$3*
1,1,$1+$1,$4,$5*
1,1,$1+$1,$6,$7*
1,1,$1+$1,$8,$9*
0 Add four rect primitives between the rounded corners*
20,1,$1+$1,$2,$3,$4,$5,0*
20,1,$1+$1,$4,$5,$6,$7,0*
20,1,$1+$1,$6,$7,$8,$9,0*
20,1,$1+$1,$8,$9,$2,$3,0*%
G04 Aperture macros list end*
%TA.AperFunction,ComponentPad*%
%ADD10R,1.700000X1.700000*%
%TD*%
%TA.AperFunction,ComponentPad*%
%ADD11O,1.700000X1.700000*%
%TD*%
%TA.AperFunction,ComponentPad*%
%ADD12C,3.500000*%
%TD*%
%TA.AperFunction,ComponentPad*%
%ADD13R,1.600000X1.600000*%
%TD*%
%TA.AperFunction,ComponentPad*%
%ADD14O,1.600000X1.600000*%
%TD*%
%TA.AperFunction,ComponentPad*%
%ADD15RoundRect,0.250000X0.600000X0.725000X-0.600000X0.725000X-0.600000X-0.725000X0.600000X-0.725000X0*%
%TD*%
%TA.AperFunction,ComponentPad*%
%ADD16O,1.700000X1.950000*%
%TD*%
%TA.AperFunction,ComponentPad*%
%ADD17RoundRect,0.250000X0.600000X0.750000X-0.600000X0.750000X-0.600000X-0.750000X0.600000X-0.750000X0*%
%TD*%
%TA.AperFunction,ComponentPad*%
%ADD18O,1.700000X2.000000*%
%TD*%
%TA.AperFunction,SMDPad,CuDef*%
%ADD19RoundRect,0.250000X0.325000X0.650000X-0.325000X0.650000X-0.325000X-0.650000X0.325000X-0.650000X0*%
%TD*%
%TA.AperFunction,ViaPad*%
%ADD20C,0.800000*%
%TD*%
%TA.AperFunction,Conductor*%
%ADD21C,0.250000*%
%TD*%
G04 APERTURE END LIST*
D10*
%TO.P,REF\u002A\u002A,1*%
%TO.N,N/C*%
X164000000Y-67690000D03*
D11*
%TO.P,REF\u002A\u002A,2*%
X164000000Y-70230000D03*
%TO.P,REF\u002A\u002A,3*%
X164000000Y-72770000D03*
%TO.P,REF\u002A\u002A,4*%
X164000000Y-75310000D03*
%TO.P,REF\u002A\u002A,5*%
X164000000Y-77850000D03*
%TO.P,REF\u002A\u002A,6*%
X164000000Y-80390000D03*
%TO.P,REF\u002A\u002A,7*%
X164000000Y-82930000D03*
%TO.P,REF\u002A\u002A,8*%
X164000000Y-85470000D03*
%TO.P,REF\u002A\u002A,9*%
X164000000Y-88010000D03*
%TO.P,REF\u002A\u002A,10*%
X164000000Y-90550000D03*
%TO.P,REF\u002A\u002A,11*%
X164000000Y-93090000D03*
%TO.P,REF\u002A\u002A,12*%
X164000000Y-95630000D03*
%TO.P,REF\u002A\u002A,13*%
X164000000Y-98170000D03*
%TO.P,REF\u002A\u002A,14*%
X164000000Y-100710000D03*
%TO.P,REF\u002A\u002A,15*%
X164000000Y-103250000D03*
%TD*%
D12*
%TO.P,2.2mm,1*%
%TO.N,N/C*%
X144500000Y-102000000D03*
%TD*%
%TO.P,2.2mm,1*%
%TO.N,N/C*%
X168000000Y-102000000D03*
%TD*%
%TO.P,2.2mm,1*%
%TO.N,N/C*%
X144500000Y-67250000D03*
%TD*%
%TO.P,2.2mm,1*%
%TO.N,N/C*%
X168000000Y-67250000D03*
%TD*%
D10*
%TO.P,REF\u002A\u002A,1*%
%TO.N,N/C*%
X148760000Y-67600000D03*
D11*
%TO.P,REF\u002A\u002A,2*%
X148760000Y-70140000D03*
%TO.P,REF\u002A\u002A,3*%
X148760000Y-72680000D03*
%TO.P,REF\u002A\u002A,4*%
X148760000Y-75220000D03*
%TO.P,REF\u002A\u002A,5*%
X148760000Y-77760000D03*
%TO.P,REF\u002A\u002A,6*%
X148760000Y-80300000D03*
%TO.P,REF\u002A\u002A,7*%
X148760000Y-82840000D03*
%TO.P,REF\u002A\u002A,8*%
X148760000Y-85380000D03*
%TO.P,REF\u002A\u002A,9*%
X148760000Y-87920000D03*
%TO.P,REF\u002A\u002A,10*%
X148760000Y-90460000D03*
%TO.P,REF\u002A\u002A,11*%
X148760000Y-93000000D03*
%TO.P,REF\u002A\u002A,12*%
X148760000Y-95540000D03*
%TO.P,REF\u002A\u002A,13*%
X148760000Y-98080000D03*
%TO.P,REF\u002A\u002A,14*%
X148760000Y-100620000D03*
%TO.P,REF\u002A\u002A,15*%
X148760000Y-103160000D03*
%TD*%
D13*
%TO.P,U1,1,I1*%
%TO.N,/in1*%
X152630000Y-78260000D03*
D14*
%TO.P,U1,2,I2*%
%TO.N,/in2*%
X152630000Y-80800000D03*
%TO.P,U1,3,I3*%
%TO.N,/in3*%
X152630000Y-83340000D03*
%TO.P,U1,4,I4*%
%TO.N,/in4*%
X152630000Y-85880000D03*
%TO.P,U1,5,I5*%
%TO.N,unconnected-(U1-Pad5)*%
X152630000Y-88420000D03*
%TO.P,U1,6,I6*%
%TO.N,unconnected-(U1-Pad6)*%
X152630000Y-90960000D03*
%TO.P,U1,7,I7*%
%TO.N,unconnected-(U1-Pad7)*%
X152630000Y-93500000D03*
%TO.P,U1,8,GND*%
%TO.N,GND*%
X152630000Y-96040000D03*
%TO.P,U1,9,COM*%
%TO.N,5V*%
X160250000Y-96040000D03*
%TO.P,U1,10,O7*%
%TO.N,unconnected-(U1-Pad10)*%
X160250000Y-93500000D03*
%TO.P,U1,11,O6*%
%TO.N,unconnected-(U1-Pad11)*%
X160250000Y-90960000D03*
%TO.P,U1,12,O5*%
%TO.N,unconnected-(U1-Pad12)*%
X160250000Y-88420000D03*
%TO.P,U1,13,O4*%
%TO.N,Net-(J1-Pad1)*%
X160250000Y-85880000D03*
%TO.P,U1,14,O3*%
%TO.N,Net-(J1-Pad2)*%
X160250000Y-83340000D03*
%TO.P,U1,15,O2*%
%TO.N,Net-(J1-Pad3)*%
X160250000Y-80800000D03*
%TO.P,U1,16,O1*%
%TO.N,Net-(J1-Pad4)*%
X160250000Y-78260000D03*
%TD*%
D15*
%TO.P,J1,1,Pin_1*%
%TO.N,Net-(J1-Pad1)*%
X155180000Y-60360000D03*
D16*
%TO.P,J1,2,Pin_2*%
%TO.N,Net-(J1-Pad2)*%
X152680000Y-60360000D03*
%TO.P,J1,3,Pin_3*%
%TO.N,Net-(J1-Pad3)*%
X150180000Y-60360000D03*
%TO.P,J1,4,Pin_4*%
%TO.N,Net-(J1-Pad4)*%
X147680000Y-60360000D03*
%TD*%
D14*
%TO.P,A1,30,VIN*%
%TO.N,unconnected-(A1-Pad30)*%
X164000000Y-67600000D03*
%TO.P,A1,29,GND*%
%TO.N,GND*%
X164000000Y-70140000D03*
%TO.P,A1,28,~{RESET}*%
%TO.N,unconnected-(A1-Pad28)*%
X164000000Y-72680000D03*
%TO.P,A1,27,+5V*%
%TO.N,unconnected-(A1-Pad27)*%
X164000000Y-75220000D03*
%TO.P,A1,26,A7*%
%TO.N,unconnected-(A1-Pad26)*%
X164000000Y-77760000D03*
%TO.P,A1,25,A6*%
%TO.N,unconnected-(A1-Pad25)*%
X164000000Y-80300000D03*
%TO.P,A1,24,A5*%
%TO.N,unconnected-(A1-Pad24)*%
X164000000Y-82840000D03*
%TO.P,A1,23,A4*%
%TO.N,unconnected-(A1-Pad23)*%
X164000000Y-85380000D03*
%TO.P,A1,22,A3*%
%TO.N,unconnected-(A1-Pad22)*%
X164000000Y-87920000D03*
%TO.P,A1,21,A2*%
%TO.N,unconnected-(A1-Pad21)*%
X164000000Y-90460000D03*
%TO.P,A1,20,A1*%
%TO.N,unconnected-(A1-Pad20)*%
X164000000Y-93000000D03*
%TO.P,A1,19,A0*%
%TO.N,unconnected-(A1-Pad19)*%
X164000000Y-95540000D03*
%TO.P,A1,18,AREF*%
%TO.N,unconnected-(A1-Pad18)*%
X164000000Y-98080000D03*
%TO.P,A1,17,3V3*%
%TO.N,unconnected-(A1-Pad17)*%
X164000000Y-100620000D03*
%TO.P,A1,16,D13*%
%TO.N,unconnected-(A1-Pad16)*%
X164000000Y-103160000D03*
%TO.P,A1,15,D12*%
%TO.N,unconnected-(A1-Pad15)*%
X148760000Y-103160000D03*
%TO.P,A1,14,D11*%
%TO.N,unconnected-(A1-Pad14)*%
X148760000Y-100620000D03*
%TO.P,A1,13,D10*%
%TO.N,unconnected-(A1-Pad13)*%
X148760000Y-98080000D03*
%TO.P,A1,12,D9*%
%TO.N,unconnected-(A1-Pad12)*%
X148760000Y-95540000D03*
%TO.P,A1,11,D8*%
%TO.N,unconnected-(A1-Pad11)*%
X148760000Y-93000000D03*
%TO.P,A1,10,D7*%
%TO.N,/in4*%
X148760000Y-90460000D03*
%TO.P,A1,9,D6*%
%TO.N,/in3*%
X148760000Y-87920000D03*
%TO.P,A1,8,D5*%
%TO.N,/in2*%
X148760000Y-85380000D03*
%TO.P,A1,7,D4*%
%TO.N,/in1*%
X148760000Y-82840000D03*
%TO.P,A1,6,D3*%
%TO.N,unconnected-(A1-Pad6)*%
X148760000Y-80300000D03*
%TO.P,A1,5,D2*%
%TO.N,unconnected-(A1-Pad5)*%
X148760000Y-77760000D03*
%TO.P,A1,4,GND*%
%TO.N,unconnected-(A1-Pad4)*%
X148760000Y-75220000D03*
%TO.P,A1,3,~{RESET}*%
%TO.N,unconnected-(A1-Pad3)*%
X148760000Y-72680000D03*
%TO.P,A1,2,D0/RX*%
%TO.N,unconnected-(A1-Pad2)*%
X148760000Y-70140000D03*
D13*
%TO.P,A1,1,D1/TX*%
%TO.N,unconnected-(A1-Pad1)*%
X148760000Y-67600000D03*
%TD*%
D17*
%TO.P,J2,1,Pin_1*%
%TO.N,5V*%
X165180000Y-60360000D03*
D18*
%TO.P,J2,2,Pin_2*%
%TO.N,GND*%
X162680000Y-60360000D03*
%TD*%
D19*
%TO.P,C1,1*%
%TO.N,5V*%
X158000000Y-70250000D03*
%TO.P,C1,2*%
%TO.N,GND*%
X155050000Y-70250000D03*
%TD*%
D20*
%TO.N,GND*%
X161000000Y-100500000D03*
X152000000Y-100500000D03*
X161000000Y-72000000D03*
X161000000Y-68000000D03*
X156500000Y-73500000D03*
X156500000Y-65500000D03*
X156000000Y-96000000D03*
X156000000Y-80000000D03*
X156000000Y-90500000D03*
X156000000Y-85000000D03*
X144500000Y-95500000D03*
X144500000Y-79500000D03*
X144500000Y-90000000D03*
X144500000Y-84500000D03*
X168500000Y-79500000D03*
X168500000Y-84500000D03*
X168500000Y-90000000D03*
X168500000Y-95500000D03*
%TD*%
D21*
%TO.N,/in2*%
X152630000Y-85880000D02*
X149260000Y-85880000D01*
X149260000Y-85880000D02*
X148760000Y-85380000D01*
%TO.N,/in1*%
X152630000Y-83340000D02*
X149260000Y-83340000D01*
X149260000Y-83340000D02*
X148760000Y-82840000D01*
%TO.N,unconnected-(A1-Pad6)*%
X152630000Y-80800000D02*
X149260000Y-80800000D01*
X149260000Y-80800000D02*
X148760000Y-80300000D01*
%TO.N,unconnected-(A1-Pad5)*%
X152630000Y-78260000D02*
X149260000Y-78260000D01*
X149260000Y-78260000D02*
X148760000Y-77760000D01*
%TO.N,5V*%
X158000000Y-70250000D02*
X158000000Y-93790000D01*
X158000000Y-93790000D02*
X160250000Y-96040000D01*
X165180000Y-60360000D02*
X165180000Y-60820000D01*
X165180000Y-60820000D02*
X158000000Y-68000000D01*
X158000000Y-68000000D02*
X158000000Y-70250000D01*
%TD*%
%TA.AperFunction,Conductor*%
%TO.N,GND*%
G36*
X170184121Y-57528002D02*
G01*
X170230614Y-57581658D01*
X170242000Y-57634000D01*
X170242000Y-66149549D01*
X170221998Y-66217670D01*
X170168342Y-66264163D01*
X170098068Y-66274267D01*
X170033488Y-66244773D01*
X170002994Y-66205277D01*
X169961942Y-66122031D01*
X169961939Y-66122026D01*
X169960115Y-66118327D01*
X169795633Y-65872162D01*
X169792919Y-65869068D01*
X169792915Y-65869062D01*
X169603136Y-65652662D01*
X169600427Y-65649573D01*
X169597338Y-65646864D01*
X169380938Y-65457085D01*
X169380932Y-65457081D01*
X169377838Y-65454367D01*
X169374412Y-65452078D01*
X169374407Y-65452074D01*
X169135106Y-65292179D01*
X169131673Y-65289885D01*
X169127974Y-65288061D01*
X169127969Y-65288058D01*
X168991687Y-65220852D01*
X168866145Y-65158941D01*
X168862239Y-65157615D01*
X168589710Y-65065104D01*
X168589706Y-65065103D01*
X168585797Y-65063776D01*
X168581753Y-65062972D01*
X168581747Y-65062970D01*
X168299465Y-65006820D01*
X168299459Y-65006819D01*
X168295426Y-65006017D01*
X168291321Y-65005748D01*
X168291314Y-65005747D01*
X168004119Y-64986924D01*
X168000000Y-64986654D01*
X167995881Y-64986924D01*
X167708686Y-65005747D01*
X167708679Y-65005748D01*
X167704574Y-65006017D01*
X167700541Y-65006819D01*
X167700535Y-65006820D01*
X167418253Y-65062970D01*
X167418247Y-65062972D01*
X167414203Y-65063776D01*
X167410294Y-65065103D01*
X167410290Y-65065104D01*
X167137761Y-65157615D01*
X167133855Y-65158941D01*
X167008313Y-65220852D01*
X166872031Y-65288058D01*
X166872026Y-65288061D01*
X166868327Y-65289885D01*
X166864894Y-65292179D01*
X166625593Y-65452074D01*
X166625588Y-65452078D01*
X166622162Y-65454367D01*
X166619068Y-65457081D01*
X166619062Y-65457085D01*
X166402662Y-65646864D01*
X166399573Y-65649573D01*
X166396864Y-65652662D01*
X166207085Y-65869062D01*
X166207081Y-65869068D01*
X166204367Y-65872162D01*
X166039885Y-66118327D01*
X165908941Y-66383855D01*
X165907616Y-66387760D01*
X165907615Y-66387761D01*
X165824611Y-66632285D01*
X165813776Y-66664203D01*
X165812972Y-66668247D01*
X165812970Y-66668253D01*
X165789058Y-66788469D01*
X165756017Y-66954574D01*
X165736654Y-67250000D01*
X165736924Y-67254119D01*
X165753943Y-67513777D01*
X165756017Y-67545426D01*
X165756819Y-67549459D01*
X165756820Y-67549465D01*
X165812970Y-67831747D01*
X165813776Y-67835797D01*
X165908941Y-68116145D01*
X166039885Y-68381673D01*
X166042179Y-68385106D01*
X166177838Y-68588134D01*
X166204367Y-68627838D01*
X166207081Y-68630932D01*
X166207085Y-68630938D01*
X166336316Y-68778297D01*
X166399573Y-68850427D01*
X166402662Y-68853136D01*
X166619062Y-69042915D01*
X166619068Y-69042919D01*
X166622162Y-69045633D01*
X166625588Y-69047922D01*
X166625593Y-69047926D01*
X166773102Y-69146488D01*
X166868327Y-69210115D01*
X166872026Y-69211939D01*
X166872031Y-69211942D01*
X166989405Y-69269824D01*
X167133855Y-69341059D01*
X167137760Y-69342384D01*
X167137761Y-69342385D01*
X167410290Y-69434896D01*
X167410294Y-69434897D01*
X167414203Y-69436224D01*
X167418247Y-69437028D01*
X167418253Y-69437030D01*
X167700535Y-69493180D01*
X167700541Y-69493181D01*
X167704574Y-69493983D01*
X167708679Y-69494252D01*
X167708686Y-69494253D01*
X167995881Y-69513076D01*
X168000000Y-69513346D01*
X168004119Y-69513076D01*
X168291314Y-69494253D01*
X168291321Y-69494252D01*
X168295426Y-69493983D01*
X168299459Y-69493181D01*
X168299465Y-69493180D01*
X168581747Y-69437030D01*
X168581753Y-69437028D01*
X168585797Y-69436224D01*
X168589706Y-69434897D01*
X168589710Y-69434896D01*
X168862239Y-69342385D01*
X168862240Y-69342384D01*
X168866145Y-69341059D01*
X169010595Y-69269824D01*
X169127969Y-69211942D01*
X169127974Y-69211939D01*
X169131673Y-69210115D01*
X169226898Y-69146488D01*
X169374407Y-69047926D01*
X169374412Y-69047922D01*
X169377838Y-69045633D01*
X169380932Y-69042919D01*
X169380938Y-69042915D01*
X169597338Y-68853136D01*
X169600427Y-68850427D01*
X169663684Y-68778297D01*
X169792915Y-68630938D01*
X169792919Y-68630932D01*
X169795633Y-68627838D01*
X169822163Y-68588134D01*
X169957821Y-68385106D01*
X169960115Y-68381673D01*
X170002994Y-68294723D01*
X170051062Y-68242474D01*
X170119748Y-68224507D01*
X170187244Y-68246526D01*
X170232120Y-68301541D01*
X170242000Y-68350451D01*
X170242000Y-100899549D01*
X170221998Y-100967670D01*
X170168342Y-101014163D01*
X170098068Y-101024267D01*
X170033488Y-100994773D01*
X170002994Y-100955277D01*
X169961942Y-100872031D01*
X169961939Y-100872026D01*
X169960115Y-100868327D01*
X169856573Y-100713365D01*
X169797926Y-100625593D01*
X169797922Y-100625588D01*
X169795633Y-100622162D01*
X169792919Y-100619068D01*
X169792915Y-100619062D01*
X169603136Y-100402662D01*
X169600427Y-100399573D01*
X169592182Y-100392342D01*
X169380938Y-100207085D01*
X169380932Y-100207081D01*
X169377838Y-100204367D01*
X169374412Y-100202078D01*
X169374407Y-100202074D01*
X169135106Y-100042179D01*
X169131673Y-100039885D01*
X169127974Y-100038061D01*
X169127969Y-100038058D01*
X168976275Y-99963251D01*
X168866145Y-99908941D01*
X168788609Y-99882621D01*
X168589710Y-99815104D01*
X168589706Y-99815103D01*
X168585797Y-99813776D01*
X168581753Y-99812972D01*
X168581747Y-99812970D01*
X168299465Y-99756820D01*
X168299459Y-99756819D01*
X168295426Y-99756017D01*
X168291321Y-99755748D01*
X168291314Y-99755747D01*
X168004119Y-99736924D01*
X168000000Y-99736654D01*
X167995881Y-99736924D01*
X167708686Y-99755747D01*
X167708679Y-99755748D01*
X167704574Y-99756017D01*
X167700541Y-99756819D01*
X167700535Y-99756820D01*
X167418253Y-99812970D01*
X167418247Y-99812972D01*
X167414203Y-99813776D01*
X167410294Y-99815103D01*
X167410290Y-99815104D01*
X167211391Y-99882621D01*
X167133855Y-99908941D01*
X167023725Y-99963251D01*
X166872031Y-100038058D01*
X166872026Y-100038061D01*
X166868327Y-100039885D01*
X166864894Y-100042179D01*
X166625593Y-100202074D01*
X166625588Y-100202078D01*
X166622162Y-100204367D01*
X166619068Y-100207081D01*
X166619062Y-100207085D01*
X166407818Y-100392342D01*
X166399573Y-100399573D01*
X166396864Y-100402662D01*
X166207085Y-100619062D01*
X166207081Y-100619068D01*
X166204367Y-100622162D01*
X166202078Y-100625588D01*
X166202074Y-100625593D01*
X166143427Y-100713365D01*
X166039885Y-100868327D01*
X166038061Y-100872026D01*
X166038058Y-100872031D01*
X166020286Y-100908069D01*
X165908941Y-101133855D01*
X165907616Y-101137760D01*
X165907615Y-101137761D01*
X165842692Y-101329020D01*
X165813776Y-101414203D01*
X165812972Y-101418247D01*
X165812970Y-101418253D01*
X165760122Y-101683938D01*
X165756017Y-101704574D01*
X165755748Y-101708679D01*
X165755747Y-101708686D01*
X165742118Y-101916638D01*
X165736654Y-102000000D01*
X165737284Y-102009612D01*
X165746735Y-102153802D01*
X165756017Y-102295426D01*
X165756819Y-102299459D01*
X165756820Y-102299465D01*
X165811962Y-102576680D01*
X165813776Y-102585797D01*
X165815103Y-102589706D01*
X165815104Y-102589710D01*
X165857958Y-102715954D01*
X165908941Y-102866145D01*
X165941586Y-102932342D01*
X166034899Y-103121562D01*
X166039885Y-103131673D01*
X166061061Y-103163365D01*
X166185576Y-103349715D01*
X166204367Y-103377838D01*
X166207081Y-103380932D01*
X166207085Y-103380938D01*
X166375016Y-103572425D01*
X166399573Y-103600427D01*
X166402662Y-103603136D01*
X166619062Y-103792915D01*
X166619068Y-103792919D01*
X166622162Y-103795633D01*
X166625588Y-103797922D01*
X166625593Y-103797926D01*
X166809405Y-103920744D01*
X166868327Y-103960115D01*
X166872026Y-103961939D01*
X166872031Y-103961942D01*
X167008313Y-104029148D01*
X167133855Y-104091059D01*
X167137760Y-104092384D01*
X167137761Y-104092385D01*
X167410290Y-104184896D01*
X167410294Y-104184897D01*
X167414203Y-104186224D01*
X167418247Y-104187028D01*
X167418253Y-104187030D01*
X167700535Y-104243180D01*
X167700541Y-104243181D01*
X167704574Y-104243983D01*
X167708679Y-104244252D01*
X167708686Y-104244253D01*
X167995881Y-104263076D01*
X168000000Y-104263346D01*
X168004119Y-104263076D01*
X168291314Y-104244253D01*
X168291321Y-104244252D01*
X168295426Y-104243983D01*
X168299459Y-104243181D01*
X168299465Y-104243180D01*
X168581747Y-104187030D01*
X168581753Y-104187028D01*
X168585797Y-104186224D01*
X168589706Y-104184897D01*
X168589710Y-104184896D01*
X168862239Y-104092385D01*
X168862240Y-104092384D01*
X168866145Y-104091059D01*
X168991687Y-104029148D01*
X169127969Y-103961942D01*
X169127974Y-103961939D01*
X169131673Y-103960115D01*
X169190595Y-103920744D01*
X169374407Y-103797926D01*
X169374412Y-103797922D01*
X169377838Y-103795633D01*
X169380932Y-103792919D01*
X169380938Y-103792915D01*
X169597338Y-103603136D01*
X169600427Y-103600427D01*
X169624984Y-103572425D01*
X169792915Y-103380938D01*
X169792919Y-103380932D01*
X169795633Y-103377838D01*
X169814425Y-103349715D01*
X169938939Y-103163365D01*
X169960115Y-103131673D01*
X169965102Y-103121562D01*
X170002994Y-103044723D01*
X170051062Y-102992474D01*
X170119748Y-102974507D01*
X170187244Y-102996526D01*
X170232120Y-103051541D01*
X170242000Y-103100451D01*
X170242000Y-105874000D01*
X170221998Y-105942121D01*
X170168342Y-105988614D01*
X170116000Y-106000000D01*
X142384000Y-106000000D01*
X142315879Y-105979998D01*
X142269386Y-105926342D01*
X142258000Y-105874000D01*
X142258000Y-103100451D01*
X142278002Y-103032330D01*
X142331658Y-102985837D01*
X142401932Y-102975733D01*
X142466512Y-103005227D01*
X142497006Y-103044723D01*
X142534899Y-103121562D01*
X142539885Y-103131673D01*
X142561061Y-103163365D01*
X142685576Y-103349715D01*
X142704367Y-103377838D01*
X142707081Y-103380932D01*
X142707085Y-103380938D01*
X142875016Y-103572425D01*
X142899573Y-103600427D01*
X142902662Y-103603136D01*
X143119062Y-103792915D01*
X143119068Y-103792919D01*
X143122162Y-103795633D01*
X143125588Y-103797922D01*
X143125593Y-103797926D01*
X143309405Y-103920744D01*
X143368327Y-103960115D01*
X143372026Y-103961939D01*
X143372031Y-103961942D01*
X143508313Y-104029148D01*
X143633855Y-104091059D01*
X143637760Y-104092384D01*
X143637761Y-104092385D01*
X143910290Y-104184896D01*
X143910294Y-104184897D01*
X143914203Y-104186224D01*
X143918247Y-104187028D01*
X143918253Y-104187030D01*
X144200535Y-104243180D01*
X144200541Y-104243181D01*
X144204574Y-104243983D01*
X144208679Y-104244252D01*
X144208686Y-104244253D01*
X144495881Y-104263076D01*
X144500000Y-104263346D01*
X144504119Y-104263076D01*
X144791314Y-104244253D01*
X144791321Y-104244252D01*
X144795426Y-104243983D01*
X144799459Y-104243181D01*
X144799465Y-104243180D01*
X145081747Y-104187030D01*
X145081753Y-104187028D01*
X145085797Y-104186224D01*
X145089706Y-104184897D01*
X145089710Y-104184896D01*
X145362239Y-104092385D01*
X145362240Y-104092384D01*
X145366145Y-104091059D01*
X145491687Y-104029148D01*
X145627969Y-103961942D01*
X145627974Y-103961939D01*
X145631673Y-103960115D01*
X145690595Y-103920744D01*
X145874407Y-103797926D01*
X145874412Y-103797922D01*
X145877838Y-103795633D01*
X145880932Y-103792919D01*
X145880938Y-103792915D01*
X146097338Y-103603136D01*
X146100427Y-103600427D01*
X146124984Y-103572425D01*
X146292915Y-103380938D01*
X146292919Y-103380932D01*
X146295633Y-103377838D01*
X146314425Y-103349715D01*
X146438939Y-103163365D01*
X146460115Y-103131673D01*
X146462570Y-103126695D01*
X147397251Y-103126695D01*
X147397548Y-103131848D01*
X147397548Y-103131851D01*
X147408007Y-103313240D01*
X147410110Y-103349715D01*
X147411247Y-103354761D01*
X147411248Y-103354767D01*
X147429228Y-103434547D01*
X147459222Y-103567639D01*
X147543266Y-103774616D01*
X147594019Y-103857438D01*
X147656940Y-103960115D01*
X147659987Y-103965088D01*
X147806250Y-104133938D01*
X147978126Y-104276632D01*
X148171000Y-104389338D01*
X148379692Y-104469030D01*
X148384760Y-104470061D01*
X148384763Y-104470062D01*
X148492017Y-104491883D01*
X148598597Y-104513567D01*
X148603772Y-104513757D01*
X148603774Y-104513757D01*
X148816673Y-104521564D01*
X148816677Y-104521564D01*
X148821837Y-104521753D01*
X148826957Y-104521097D01*
X148826959Y-104521097D01*
X149038288Y-104494025D01*
X149038289Y-104494025D01*
X149043416Y-104493368D01*
X149048366Y-104491883D01*
X149252429Y-104430661D01*
X149252434Y-104430659D01*
X149257384Y-104429174D01*
X149457994Y-104330896D01*
X149639860Y-104201173D01*
X149654862Y-104186224D01*
X149794435Y-104047137D01*
X149798096Y-104043489D01*
X149857594Y-103960689D01*
X149925435Y-103866277D01*
X149928453Y-103862077D01*
X149961292Y-103795633D01*
X150025136Y-103666453D01*
X150025137Y-103666451D01*
X150027430Y-103661811D01*
X150092370Y-103448069D01*
X150121529Y-103226590D01*
X150121771Y-103216695D01*
X162637251Y-103216695D01*
X162637548Y-103221848D01*
X162637548Y-103221851D01*
X162643011Y-103316590D01*
X162650110Y-103439715D01*
X162651247Y-103444761D01*
X162651248Y-103444767D01*
X162653109Y-103453023D01*
X162699222Y-103657639D01*
X162783266Y-103864616D01*
X162785965Y-103869020D01*
X162895115Y-104047137D01*
X162899987Y-104055088D01*
X163046250Y-104223938D01*
X163218126Y-104366632D01*
X163411000Y-104479338D01*
X163619692Y-104559030D01*
X163624760Y-104560061D01*
X163624763Y-104560062D01*
X163732017Y-104581883D01*
X163838597Y-104603567D01*
X163843772Y-104603757D01*
X163843774Y-104603757D01*
X164056673Y-104611564D01*
X164056677Y-104611564D01*
X164061837Y-104611753D01*
X164066957Y-104611097D01*
X164066959Y-104611097D01*
X164278288Y-104584025D01*
X164278289Y-104584025D01*
X164283416Y-104583368D01*
X164288366Y-104581883D01*
X164492429Y-104520661D01*
X164492434Y-104520659D01*
X164497384Y-104519174D01*
X164697994Y-104420896D01*
X164879860Y-104291173D01*
X164897769Y-104273327D01*
X164973832Y-104197529D01*
X165038096Y-104133489D01*
X165097594Y-104050689D01*
X165165435Y-103956277D01*
X165168453Y-103952077D01*
X165212934Y-103862077D01*
X165265136Y-103756453D01*
X165265137Y-103756451D01*
X165267430Y-103751811D01*
X165332370Y-103538069D01*
X165361529Y-103316590D01*
X165363156Y-103250000D01*
X165344852Y-103027361D01*
X165290431Y-102810702D01*
X165201354Y-102605840D01*
X165148800Y-102524604D01*
X165140398Y-102509415D01*
X165139850Y-102508240D01*
X165139846Y-102508234D01*
X165137523Y-102503251D01*
X165105506Y-102457526D01*
X165102927Y-102453695D01*
X165082824Y-102422621D01*
X165080014Y-102418277D01*
X165076533Y-102414452D01*
X165075728Y-102413406D01*
X165066768Y-102402202D01*
X165009357Y-102320211D01*
X165009355Y-102320208D01*
X165006198Y-102315700D01*
X164844300Y-102153802D01*
X164839792Y-102150645D01*
X164839789Y-102150643D01*
X164723442Y-102069176D01*
X164679114Y-102013719D01*
X164671805Y-101943099D01*
X164703836Y-101879739D01*
X164722545Y-101863384D01*
X164879860Y-101751173D01*
X164897769Y-101733327D01*
X165034435Y-101597137D01*
X165038096Y-101593489D01*
X165097594Y-101510689D01*
X165165435Y-101416277D01*
X165168453Y-101412077D01*
X165212934Y-101322077D01*
X165265136Y-101216453D01*
X165265137Y-101216451D01*
X165267430Y-101211811D01*
X165324038Y-101025493D01*
X165330865Y-101003023D01*
X165330865Y-101003021D01*
X165332370Y-100998069D01*
X165361529Y-100776590D01*
X165363156Y-100710000D01*
X165344852Y-100487361D01*
X165290431Y-100270702D01*
X165201354Y-100065840D01*
X165148800Y-99984604D01*
X165140398Y-99969415D01*
X165139850Y-99968240D01*
X165139846Y-99968234D01*
X165137523Y-99963251D01*
X165105506Y-99917526D01*
X165102927Y-99913695D01*
X165080014Y-99878277D01*
X165076533Y-99874452D01*
X165075728Y-99873406D01*
X165066768Y-99862202D01*
X165009357Y-99780211D01*
X165009355Y-99780208D01*
X165006198Y-99775700D01*
X164844300Y-99613802D01*
X164839792Y-99610645D01*
X164839789Y-99610643D01*
X164723442Y-99529176D01*
X164679114Y-99473719D01*
X164671805Y-99403099D01*
X164703836Y-99339739D01*
X164722545Y-99323384D01*
X164879860Y-99211173D01*
X164897769Y-99193327D01*
X165034435Y-99057137D01*
X165038096Y-99053489D01*
X165097594Y-98970689D01*
X165165435Y-98876277D01*
X165168453Y-98872077D01*
X165212934Y-98782077D01*
X165265136Y-98676453D01*
X165265137Y-98676451D01*
X165267430Y-98671811D01*
X165332370Y-98458069D01*
X165361529Y-98236590D01*
X165363156Y-98170000D01*
X165344852Y-97947361D01*
X165290431Y-97730702D01*
X165201354Y-97525840D01*
X165148800Y-97444604D01*
X165140398Y-97429415D01*
X165139850Y-97428240D01*
X165139846Y-97428234D01*
X165137523Y-97423251D01*
X165105506Y-97377526D01*
X165102927Y-97373695D01*
X165082824Y-97342621D01*
X165080014Y-97338277D01*
X165076533Y-97334452D01*
X165075728Y-97333406D01*
X165066768Y-97322202D01*
X165009357Y-97240211D01*
X165009355Y-97240208D01*
X165006198Y-97235700D01*
X164844300Y-97073802D01*
X164839792Y-97070645D01*
X164839789Y-97070643D01*
X164723442Y-96989176D01*
X164679114Y-96933719D01*
X164671805Y-96863099D01*
X164703836Y-96799739D01*
X164722545Y-96783384D01*
X164879860Y-96671173D01*
X164897769Y-96653327D01*
X165034435Y-96517137D01*
X165038096Y-96513489D01*
X165055519Y-96489243D01*
X165165435Y-96336277D01*
X165168453Y-96332077D01*
X165185851Y-96296876D01*
X165265136Y-96136453D01*
X165265137Y-96136451D01*
X165267430Y-96131811D01*
X165332370Y-95918069D01*
X165361529Y-95696590D01*
X165363156Y-95630000D01*
X165344852Y-95407361D01*
X165290431Y-95190702D01*
X165201354Y-94985840D01*
X165148800Y-94904604D01*
X165140398Y-94889415D01*
X165139850Y-94888240D01*
X165139846Y-94888234D01*
X165137523Y-94883251D01*
X165105506Y-94837526D01*
X165102927Y-94833695D01*
X165089861Y-94813498D01*
X165080014Y-94798277D01*
X165076533Y-94794452D01*
X165075728Y-94793406D01*
X165066768Y-94782202D01*
X165009357Y-94700211D01*
X165009355Y-94700208D01*
X165006198Y-94695700D01*
X164844300Y-94533802D01*
X164839792Y-94530645D01*
X164839789Y-94530643D01*
X164723442Y-94449176D01*
X164679114Y-94393719D01*
X164671805Y-94323099D01*
X164703836Y-94259739D01*
X164722545Y-94243384D01*
X164879860Y-94131173D01*
X164897769Y-94113327D01*
X165016077Y-93995431D01*
X165038096Y-93973489D01*
X165055519Y-93949243D01*
X165165435Y-93796277D01*
X165168453Y-93792077D01*
X165195261Y-93737836D01*
X165265136Y-93596453D01*
X165265137Y-93596451D01*
X165267430Y-93591811D01*
X165332370Y-93378069D01*
X165361529Y-93156590D01*
X165363156Y-93090000D01*
X165344852Y-92867361D01*
X165290431Y-92650702D01*
X165201354Y-92445840D01*
X165148800Y-92364604D01*
X165140398Y-92349415D01*
X165139850Y-92348240D01*
X165139846Y-92348234D01*
X165137523Y-92343251D01*
X165105506Y-92297526D01*
X165102927Y-92293695D01*
X165080014Y-92258277D01*
X165076533Y-92254452D01*
X165075728Y-92253406D01*
X165066768Y-92242202D01*
X165009357Y-92160211D01*
X165009355Y-92160208D01*
X165006198Y-92155700D01*
X164844300Y-91993802D01*
X164839792Y-91990645D01*
X164839789Y-91990643D01*
X164723442Y-91909176D01*
X164679114Y-91853719D01*
X164671805Y-91783099D01*
X164703836Y-91719739D01*
X164722545Y-91703384D01*
X164879860Y-91591173D01*
X164897769Y-91573327D01*
X165034435Y-91437137D01*
X165038096Y-91433489D01*
X165055519Y-91409243D01*
X165165435Y-91256277D01*
X165168453Y-91252077D01*
X165212934Y-91162077D01*
X165265136Y-91056453D01*
X165265137Y-91056451D01*
X165267430Y-91051811D01*
X165332370Y-90838069D01*
X165361529Y-90616590D01*
X165363156Y-90550000D01*
X165344852Y-90327361D01*
X165290431Y-90110702D01*
X165201354Y-89905840D01*
X165148800Y-89824604D01*
X165140398Y-89809415D01*
X165139850Y-89808240D01*
X165139846Y-89808234D01*
X165137523Y-89803251D01*
X165105506Y-89757526D01*
X165102927Y-89753695D01*
X165080014Y-89718277D01*
X165076533Y-89714452D01*
X165075728Y-89713406D01*
X165066768Y-89702202D01*
X165009357Y-89620211D01*
X165009355Y-89620208D01*
X165006198Y-89615700D01*
X164844300Y-89453802D01*
X164839792Y-89450645D01*
X164839789Y-89450643D01*
X164723442Y-89369176D01*
X164679114Y-89313719D01*
X164671805Y-89243099D01*
X164703836Y-89179739D01*
X164722545Y-89163384D01*
X164879860Y-89051173D01*
X164897769Y-89033327D01*
X165034435Y-88897137D01*
X165038096Y-88893489D01*
X165055519Y-88869243D01*
X165165435Y-88716277D01*
X165168453Y-88712077D01*
X165212934Y-88622077D01*
X165265136Y-88516453D01*
X165265137Y-88516451D01*
X165267430Y-88511811D01*
X165332370Y-88298069D01*
X165361529Y-88076590D01*
X165363156Y-88010000D01*
X165344852Y-87787361D01*
X165290431Y-87570702D01*
X165201354Y-87365840D01*
X165148800Y-87284604D01*
X165140398Y-87269415D01*
X165139850Y-87268240D01*
X165139846Y-87268234D01*
X165137523Y-87263251D01*
X165105506Y-87217526D01*
X165102927Y-87213695D01*
X165080014Y-87178277D01*
X165076533Y-87174452D01*
X165075728Y-87173406D01*
X165066768Y-87162202D01*
X165009357Y-87080211D01*
X165009355Y-87080208D01*
X165006198Y-87075700D01*
X164844300Y-86913802D01*
X164839792Y-86910645D01*
X164839789Y-86910643D01*
X164723442Y-86829176D01*
X164679114Y-86773719D01*
X164671805Y-86703099D01*
X164703836Y-86639739D01*
X164722545Y-86623384D01*
X164879860Y-86511173D01*
X164897769Y-86493327D01*
X165034435Y-86357137D01*
X165038096Y-86353489D01*
X165055519Y-86329243D01*
X165165435Y-86176277D01*
X165168453Y-86172077D01*
X165267430Y-85971811D01*
X165332370Y-85758069D01*
X165361529Y-85536590D01*
X165363156Y-85470000D01*
X165344852Y-85247361D01*
X165290431Y-85030702D01*
X165201354Y-84825840D01*
X165148800Y-84744604D01*
X165140398Y-84729415D01*
X165139850Y-84728240D01*
X165139846Y-84728234D01*
X165137523Y-84723251D01*
X165105506Y-84677526D01*
X165102927Y-84673695D01*
X165080014Y-84638277D01*
X165076533Y-84634452D01*
X165075728Y-84633406D01*
X165066768Y-84622202D01*
X165009357Y-84540211D01*
X165009355Y-84540208D01*
X165006198Y-84535700D01*
X164844300Y-84373802D01*
X164839792Y-84370645D01*
X164839789Y-84370643D01*
X164723442Y-84289176D01*
X164679114Y-84233719D01*
X164671805Y-84163099D01*
X164703836Y-84099739D01*
X164722545Y-84083384D01*
X164879860Y-83971173D01*
X164897769Y-83953327D01*
X165034435Y-83817137D01*
X165038096Y-83813489D01*
X165055519Y-83789243D01*
X165165435Y-83636277D01*
X165168453Y-83632077D01*
X165267430Y-83431811D01*
X165332370Y-83218069D01*
X165361529Y-82996590D01*
X165363156Y-82930000D01*
X165344852Y-82707361D01*
X165290431Y-82490702D01*
X165201354Y-82285840D01*
X165148800Y-82204604D01*
X165140398Y-82189415D01*
X165139850Y-82188240D01*
X165139846Y-82188234D01*
X165137523Y-82183251D01*
X165105506Y-82137526D01*
X165102927Y-82133695D01*
X165080014Y-82098277D01*
X165076533Y-82094452D01*
X165075728Y-82093406D01*
X165066768Y-82082202D01*
X165009357Y-82000211D01*
X165009355Y-82000208D01*
X165006198Y-81995700D01*
X164844300Y-81833802D01*
X164839792Y-81830645D01*
X164839789Y-81830643D01*
X164723442Y-81749176D01*
X164679114Y-81693719D01*
X164671805Y-81623099D01*
X164703836Y-81559739D01*
X164722545Y-81543384D01*
X164879860Y-81431173D01*
X164897769Y-81413327D01*
X165034435Y-81277137D01*
X165038096Y-81273489D01*
X165055519Y-81249243D01*
X165165435Y-81096277D01*
X165168453Y-81092077D01*
X165267430Y-80891811D01*
X165332370Y-80678069D01*
X165361529Y-80456590D01*
X165363156Y-80390000D01*
X165344852Y-80167361D01*
X165290431Y-79950702D01*
X165201354Y-79745840D01*
X165148800Y-79664604D01*
X165140398Y-79649415D01*
X165139850Y-79648240D01*
X165139846Y-79648234D01*
X165137523Y-79643251D01*
X165105506Y-79597526D01*
X165102927Y-79593695D01*
X165100637Y-79590155D01*
X165080014Y-79558277D01*
X165076533Y-79554452D01*
X165075728Y-79553406D01*
X165066768Y-79542202D01*
X165009357Y-79460211D01*
X165009355Y-79460208D01*
X165006198Y-79455700D01*
X164844300Y-79293802D01*
X164839792Y-79290645D01*
X164839789Y-79290643D01*
X164723442Y-79209176D01*
X164679114Y-79153719D01*
X164671805Y-79083099D01*
X164703836Y-79019739D01*
X164722545Y-79003384D01*
X164879860Y-78891173D01*
X164897769Y-78873327D01*
X165034435Y-78737137D01*
X165038096Y-78733489D01*
X165055519Y-78709243D01*
X165165435Y-78556277D01*
X165168453Y-78552077D01*
X165267430Y-78351811D01*
X165332370Y-78138069D01*
X165361529Y-77916590D01*
X165363156Y-77850000D01*
X165344852Y-77627361D01*
X165290431Y-77410702D01*
X165201354Y-77205840D01*
X165148800Y-77124604D01*
X165140398Y-77109415D01*
X165139850Y-77108240D01*
X165139846Y-77108234D01*
X165137523Y-77103251D01*
X165105506Y-77057526D01*
X165102927Y-77053695D01*
X165086329Y-77028039D01*
X165080014Y-77018277D01*
X165076533Y-77014452D01*
X165075728Y-77013406D01*
X165066768Y-77002202D01*
X165009357Y-76920211D01*
X165009355Y-76920208D01*
X165006198Y-76915700D01*
X164844300Y-76753802D01*
X164839792Y-76750645D01*
X164839789Y-76750643D01*
X164723442Y-76669176D01*
X164679114Y-76613719D01*
X164671805Y-76543099D01*
X164703836Y-76479739D01*
X164722545Y-76463384D01*
X164879860Y-76351173D01*
X164897769Y-76333327D01*
X165034435Y-76197137D01*
X165038096Y-76193489D01*
X165097594Y-76110689D01*
X165165435Y-76016277D01*
X165168453Y-76012077D01*
X165212934Y-75922077D01*
X165265136Y-75816453D01*
X165265137Y-75816451D01*
X165267430Y-75811811D01*
X165332370Y-75598069D01*
X165361529Y-75376590D01*
X165363156Y-75310000D01*
X165344852Y-75087361D01*
X165290431Y-74870702D01*
X165201354Y-74665840D01*
X165148800Y-74584604D01*
X165140398Y-74569415D01*
X165139850Y-74568240D01*
X165139846Y-74568234D01*
X165137523Y-74563251D01*
X165105506Y-74517526D01*
X165102927Y-74513695D01*
X165082824Y-74482621D01*
X165080014Y-74478277D01*
X165076533Y-74474452D01*
X165075728Y-74473406D01*
X165066768Y-74462202D01*
X165009357Y-74380211D01*
X165009355Y-74380208D01*
X165006198Y-74375700D01*
X164844300Y-74213802D01*
X164839792Y-74210645D01*
X164839789Y-74210643D01*
X164723442Y-74129176D01*
X164679114Y-74073719D01*
X164671805Y-74003099D01*
X164703836Y-73939739D01*
X164722545Y-73923384D01*
X164879860Y-73811173D01*
X164897769Y-73793327D01*
X165034435Y-73657137D01*
X165038096Y-73653489D01*
X165097594Y-73570689D01*
X165165435Y-73476277D01*
X165168453Y-73472077D01*
X165212934Y-73382077D01*
X165265136Y-73276453D01*
X165265137Y-73276451D01*
X165267430Y-73271811D01*
X165332370Y-73058069D01*
X165361529Y-72836590D01*
X165363156Y-72770000D01*
X165344852Y-72547361D01*
X165290431Y-72330702D01*
X165201354Y-72125840D01*
X165148800Y-72044604D01*
X165140398Y-72029415D01*
X165139850Y-72028240D01*
X165139846Y-72028234D01*
X165137523Y-72023251D01*
X165105506Y-71977526D01*
X165102927Y-71973695D01*
X165082824Y-71942621D01*
X165080014Y-71938277D01*
X165076533Y-71934452D01*
X165075728Y-71933406D01*
X165066768Y-71922202D01*
X165009357Y-71840211D01*
X165009355Y-71840208D01*
X165006198Y-71835700D01*
X164844300Y-71673802D01*
X164839792Y-71670645D01*
X164839789Y-71670643D01*
X164723442Y-71589176D01*
X164679114Y-71533719D01*
X164671805Y-71463099D01*
X164703836Y-71399739D01*
X164722545Y-71383384D01*
X164729853Y-71378171D01*
X164879860Y-71271173D01*
X164897769Y-71253327D01*
X165034435Y-71117137D01*
X165038096Y-71113489D01*
X165075534Y-71061389D01*
X165165435Y-70936277D01*
X165168453Y-70932077D01*
X165212934Y-70842077D01*
X165265136Y-70736453D01*
X165265137Y-70736451D01*
X165267430Y-70731811D01*
X165332370Y-70518069D01*
X165361529Y-70296590D01*
X165363156Y-70230000D01*
X165344852Y-70007361D01*
X165290431Y-69790702D01*
X165201354Y-69585840D01*
X165146823Y-69501548D01*
X165142218Y-69493223D01*
X165142165Y-69493254D01*
X165133934Y-69478998D01*
X165112921Y-69448988D01*
X165110342Y-69445157D01*
X165082824Y-69402620D01*
X165082822Y-69402617D01*
X165080014Y-69398277D01*
X165074135Y-69391816D01*
X165064119Y-69379291D01*
X165008972Y-69300533D01*
X165001916Y-69292125D01*
X164946844Y-69237053D01*
X164912818Y-69174741D01*
X164917883Y-69103926D01*
X164960430Y-69047090D01*
X164991710Y-69029976D01*
X165088295Y-68993768D01*
X165088296Y-68993767D01*
X165096705Y-68990615D01*
X165213261Y-68903261D01*
X165300615Y-68786705D01*
X165351745Y-68650316D01*
X165358500Y-68588134D01*
X165358500Y-66791866D01*
X165351745Y-66729684D01*
X165300615Y-66593295D01*
X165213261Y-66476739D01*
X165096705Y-66389385D01*
X164960316Y-66338255D01*
X164898134Y-66331500D01*
X164338137Y-66331500D01*
X164305528Y-66327207D01*
X164228087Y-66306457D01*
X164000000Y-66286502D01*
X163771913Y-66306457D01*
X163694472Y-66327207D01*
X163661863Y-66331500D01*
X163101866Y-66331500D01*
X163039684Y-66338255D01*
X162903295Y-66389385D01*
X162786739Y-66476739D01*
X162699385Y-66593295D01*
X162648255Y-66729684D01*
X162641500Y-66791866D01*
X162641500Y-68588134D01*
X162648255Y-68650316D01*
X162699385Y-68786705D01*
X162786739Y-68903261D01*
X162903295Y-68990615D01*
X162911704Y-68993767D01*
X162911705Y-68993768D01*
X163008290Y-69029976D01*
X163065055Y-69072617D01*
X163089755Y-69139179D01*
X163074548Y-69208528D01*
X163053156Y-69237053D01*
X162998084Y-69292125D01*
X162991028Y-69300533D01*
X162941605Y-69371116D01*
X162940690Y-69370475D01*
X162939989Y-69371703D01*
X162940628Y-69372139D01*
X162931201Y-69385958D01*
X162930327Y-69387222D01*
X162866072Y-69478988D01*
X162859241Y-69490820D01*
X162854209Y-69498825D01*
X162814743Y-69556680D01*
X162720688Y-69759305D01*
X162660989Y-69974570D01*
X162637251Y-70196695D01*
X162637548Y-70201848D01*
X162637548Y-70201851D01*
X162643011Y-70296590D01*
X162650110Y-70419715D01*
X162651247Y-70424761D01*
X162651248Y-70424767D01*
X162653109Y-70433023D01*
X162699222Y-70637639D01*
X162783266Y-70844616D01*
X162785965Y-70849020D01*
X162895115Y-71027137D01*
X162899987Y-71035088D01*
X163046250Y-71203938D01*
X163218126Y-71346632D01*
X163269012Y-71376367D01*
X163317735Y-71428006D01*
X163330806Y-71497789D01*
X163304074Y-71563561D01*
X163277712Y-71588368D01*
X163160211Y-71670643D01*
X163160208Y-71670645D01*
X163155700Y-71673802D01*
X162993802Y-71835700D01*
X162990645Y-71840208D01*
X162990643Y-71840211D01*
X162933232Y-71922202D01*
X162862477Y-72023251D01*
X162860152Y-72028236D01*
X162857401Y-72033002D01*
X162857170Y-72032869D01*
X162851615Y-72042627D01*
X162814743Y-72096680D01*
X162720688Y-72299305D01*
X162660989Y-72514570D01*
X162637251Y-72736695D01*
X162637548Y-72741848D01*
X162637548Y-72741851D01*
X162643011Y-72836590D01*
X162650110Y-72959715D01*
X162651247Y-72964761D01*
X162651248Y-72964767D01*
X162653109Y-72973023D01*
X162699222Y-73177639D01*
X162783266Y-73384616D01*
X162785965Y-73389020D01*
X162895115Y-73567137D01*
X162899987Y-73575088D01*
X163046250Y-73743938D01*
X163218126Y-73886632D01*
X163256983Y-73909338D01*
X163269012Y-73916367D01*
X163317735Y-73968006D01*
X163330806Y-74037789D01*
X163304074Y-74103561D01*
X163277712Y-74128368D01*
X163160211Y-74210643D01*
X163160208Y-74210645D01*
X163155700Y-74213802D01*
X162993802Y-74375700D01*
X162990645Y-74380208D01*
X162990643Y-74380211D01*
X162933232Y-74462202D01*
X162862477Y-74563251D01*
X162860152Y-74568236D01*
X162857401Y-74573002D01*
X162857170Y-74572869D01*
X162851615Y-74582627D01*
X162814743Y-74636680D01*
X162720688Y-74839305D01*
X162660989Y-75054570D01*
X162637251Y-75276695D01*
X162637548Y-75281848D01*
X162637548Y-75281851D01*
X162643011Y-75376590D01*
X162650110Y-75499715D01*
X162651247Y-75504761D01*
X162651248Y-75504767D01*
X162653109Y-75513023D01*
X162699222Y-75717639D01*
X162783266Y-75924616D01*
X162785965Y-75929020D01*
X162895115Y-76107137D01*
X162899987Y-76115088D01*
X163046250Y-76283938D01*
X163218126Y-76426632D01*
X163256983Y-76449338D01*
X163269012Y-76456367D01*
X163317735Y-76508006D01*
X163330806Y-76577789D01*
X163304074Y-76643561D01*
X163277712Y-76668368D01*
X163160211Y-76750643D01*
X163160208Y-76750645D01*
X163155700Y-76753802D01*
X162993802Y-76915700D01*
X162990645Y-76920208D01*
X162990643Y-76920211D01*
X162962062Y-76961029D01*
X162862477Y-77103251D01*
X162860152Y-77108236D01*
X162857401Y-77113002D01*
X162857170Y-77112869D01*
X162851615Y-77122627D01*
X162814743Y-77176680D01*
X162801083Y-77206109D01*
X162734438Y-77349684D01*
X162720688Y-77379305D01*
X162660989Y-77594570D01*
X162637251Y-77816695D01*
X162637548Y-77821848D01*
X162637548Y-77821851D01*
X162643011Y-77916590D01*
X162650110Y-78039715D01*
X162651247Y-78044761D01*
X162651248Y-78044767D01*
X162671119Y-78132939D01*
X162699222Y-78257639D01*
X162783266Y-78464616D01*
X162899987Y-78655088D01*
X163046250Y-78823938D01*
X163218126Y-78966632D01*
X163256983Y-78989338D01*
X163269012Y-78996367D01*
X163317735Y-79048006D01*
X163330806Y-79117789D01*
X163304074Y-79183561D01*
X163277712Y-79208368D01*
X163160211Y-79290643D01*
X163160208Y-79290645D01*
X163155700Y-79293802D01*
X162993802Y-79455700D01*
X162990645Y-79460208D01*
X162990643Y-79460211D01*
X162966785Y-79494284D01*
X162862477Y-79643251D01*
X162860152Y-79648236D01*
X162857401Y-79653002D01*
X162857170Y-79652869D01*
X162851615Y-79662627D01*
X162814743Y-79716680D01*
X162720688Y-79919305D01*
X162660989Y-80134570D01*
X162637251Y-80356695D01*
X162637548Y-80361848D01*
X162637548Y-80361851D01*
X162643011Y-80456590D01*
X162650110Y-80579715D01*
X162651247Y-80584761D01*
X162651248Y-80584767D01*
X162671119Y-80672939D01*
X162699222Y-80797639D01*
X162783266Y-81004616D01*
X162899987Y-81195088D01*
X163046250Y-81363938D01*
X163218126Y-81506632D01*
X163256983Y-81529338D01*
X163269012Y-81536367D01*
X163317735Y-81588006D01*
X163330806Y-81657789D01*
X163304074Y-81723561D01*
X163277712Y-81748368D01*
X163160211Y-81830643D01*
X163160208Y-81830645D01*
X163155700Y-81833802D01*
X162993802Y-81995700D01*
X162990645Y-82000208D01*
X162990643Y-82000211D01*
X162966785Y-82034284D01*
X162862477Y-82183251D01*
X162860152Y-82188236D01*
X162857401Y-82193002D01*
X162857170Y-82192869D01*
X162851615Y-82202627D01*
X162814743Y-82256680D01*
X162720688Y-82459305D01*
X162660989Y-82674570D01*
X162637251Y-82896695D01*
X162637548Y-82901848D01*
X162637548Y-82901851D01*
X162643011Y-82996590D01*
X162650110Y-83119715D01*
X162651247Y-83124761D01*
X162651248Y-83124767D01*
X162671119Y-83212939D01*
X162699222Y-83337639D01*
X162783266Y-83544616D01*
X162899987Y-83735088D01*
X163046250Y-83903938D01*
X163218126Y-84046632D01*
X163256983Y-84069338D01*
X163269012Y-84076367D01*
X163317735Y-84128006D01*
X163330806Y-84197789D01*
X163304074Y-84263561D01*
X163277712Y-84288368D01*
X163160211Y-84370643D01*
X163160208Y-84370645D01*
X163155700Y-84373802D01*
X162993802Y-84535700D01*
X162990645Y-84540208D01*
X162990643Y-84540211D01*
X162966785Y-84574284D01*
X162862477Y-84723251D01*
X162860152Y-84728236D01*
X162857401Y-84733002D01*
X162857170Y-84732869D01*
X162851615Y-84742627D01*
X162814743Y-84796680D01*
X162720688Y-84999305D01*
X162660989Y-85214570D01*
X162637251Y-85436695D01*
X162637548Y-85441848D01*
X162637548Y-85441851D01*
X162643011Y-85536590D01*
X162650110Y-85659715D01*
X162651247Y-85664761D01*
X162651248Y-85664767D01*
X162671119Y-85752939D01*
X162699222Y-85877639D01*
X162783266Y-86084616D01*
X162899987Y-86275088D01*
X163046250Y-86443938D01*
X163218126Y-86586632D01*
X163256983Y-86609338D01*
X163269012Y-86616367D01*
X163317735Y-86668006D01*
X163330806Y-86737789D01*
X163304074Y-86803561D01*
X163277712Y-86828368D01*
X163160211Y-86910643D01*
X163160208Y-86910645D01*
X163155700Y-86913802D01*
X162993802Y-87075700D01*
X162990645Y-87080208D01*
X162990643Y-87080211D01*
X162966785Y-87114284D01*
X162862477Y-87263251D01*
X162860152Y-87268236D01*
X162857401Y-87273002D01*
X162857170Y-87272869D01*
X162851615Y-87282627D01*
X162814743Y-87336680D01*
X162720688Y-87539305D01*
X162660989Y-87754570D01*
X162637251Y-87976695D01*
X162637548Y-87981848D01*
X162637548Y-87981851D01*
X162643011Y-88076590D01*
X162650110Y-88199715D01*
X162651247Y-88204761D01*
X162651248Y-88204767D01*
X162653109Y-88213023D01*
X162699222Y-88417639D01*
X162783266Y-88624616D01*
X162785965Y-88629020D01*
X162895115Y-88807137D01*
X162899987Y-88815088D01*
X163046250Y-88983938D01*
X163218126Y-89126632D01*
X163256983Y-89149338D01*
X163269012Y-89156367D01*
X163317735Y-89208006D01*
X163330806Y-89277789D01*
X163304074Y-89343561D01*
X163277712Y-89368368D01*
X163160211Y-89450643D01*
X163160208Y-89450645D01*
X163155700Y-89453802D01*
X162993802Y-89615700D01*
X162990645Y-89620208D01*
X162990643Y-89620211D01*
X162966785Y-89654284D01*
X162862477Y-89803251D01*
X162860152Y-89808236D01*
X162857401Y-89813002D01*
X162857170Y-89812869D01*
X162851615Y-89822627D01*
X162814743Y-89876680D01*
X162720688Y-90079305D01*
X162660989Y-90294570D01*
X162637251Y-90516695D01*
X162637548Y-90521848D01*
X162637548Y-90521851D01*
X162643011Y-90616590D01*
X162650110Y-90739715D01*
X162651247Y-90744761D01*
X162651248Y-90744767D01*
X162653109Y-90753023D01*
X162699222Y-90957639D01*
X162783266Y-91164616D01*
X162785965Y-91169020D01*
X162895115Y-91347137D01*
X162899987Y-91355088D01*
X163046250Y-91523938D01*
X163218126Y-91666632D01*
X163256983Y-91689338D01*
X163269012Y-91696367D01*
X163317735Y-91748006D01*
X163330806Y-91817789D01*
X163304074Y-91883561D01*
X163277712Y-91908368D01*
X163160211Y-91990643D01*
X163160208Y-91990645D01*
X163155700Y-91993802D01*
X162993802Y-92155700D01*
X162990645Y-92160208D01*
X162990643Y-92160211D01*
X162966785Y-92194284D01*
X162862477Y-92343251D01*
X162860152Y-92348236D01*
X162857401Y-92353002D01*
X162857170Y-92352869D01*
X162851615Y-92362627D01*
X162814743Y-92416680D01*
X162720688Y-92619305D01*
X162660989Y-92834570D01*
X162637251Y-93056695D01*
X162637548Y-93061848D01*
X162637548Y-93061851D01*
X162643011Y-93156590D01*
X162650110Y-93279715D01*
X162651247Y-93284761D01*
X162651248Y-93284767D01*
X162653109Y-93293023D01*
X162699222Y-93497639D01*
X162783266Y-93704616D01*
X162785965Y-93709020D01*
X162895115Y-93887137D01*
X162899987Y-93895088D01*
X163046250Y-94063938D01*
X163218126Y-94206632D01*
X163253165Y-94227107D01*
X163269012Y-94236367D01*
X163317735Y-94288006D01*
X163330806Y-94357789D01*
X163304074Y-94423561D01*
X163277712Y-94448368D01*
X163160211Y-94530643D01*
X163160208Y-94530645D01*
X163155700Y-94533802D01*
X162993802Y-94695700D01*
X162990645Y-94700208D01*
X162990643Y-94700211D01*
X162966785Y-94734284D01*
X162862477Y-94883251D01*
X162860152Y-94888236D01*
X162857401Y-94893002D01*
X162857170Y-94892869D01*
X162851615Y-94902627D01*
X162814743Y-94956680D01*
X162720688Y-95159305D01*
X162660989Y-95374570D01*
X162637251Y-95596695D01*
X162637548Y-95601848D01*
X162637548Y-95601851D01*
X162643011Y-95696590D01*
X162650110Y-95819715D01*
X162651247Y-95824761D01*
X162651248Y-95824767D01*
X162653109Y-95833023D01*
X162699222Y-96037639D01*
X162783266Y-96244616D01*
X162815291Y-96296876D01*
X162895115Y-96427137D01*
X162899987Y-96435088D01*
X163046250Y-96603938D01*
X163218126Y-96746632D01*
X163256983Y-96769338D01*
X163269012Y-96776367D01*
X163317735Y-96828006D01*
X163330806Y-96897789D01*
X163304074Y-96963561D01*
X163277712Y-96988368D01*
X163160211Y-97070643D01*
X163160208Y-97070645D01*
X163155700Y-97073802D01*
X162993802Y-97235700D01*
X162990645Y-97240208D01*
X162990643Y-97240211D01*
X162933798Y-97321394D01*
X162862477Y-97423251D01*
X162860152Y-97428236D01*
X162857401Y-97433002D01*
X162857170Y-97432869D01*
X162851615Y-97442627D01*
X162814743Y-97496680D01*
X162720688Y-97699305D01*
X162660989Y-97914570D01*
X162637251Y-98136695D01*
X162637548Y-98141848D01*
X162637548Y-98141851D01*
X162643011Y-98236590D01*
X162650110Y-98359715D01*
X162651247Y-98364761D01*
X162651248Y-98364767D01*
X162653109Y-98373023D01*
X162699222Y-98577639D01*
X162783266Y-98784616D01*
X162785965Y-98789020D01*
X162895115Y-98967137D01*
X162899987Y-98975088D01*
X163046250Y-99143938D01*
X163218126Y-99286632D01*
X163256983Y-99309338D01*
X163269012Y-99316367D01*
X163317735Y-99368006D01*
X163330806Y-99437789D01*
X163304074Y-99503561D01*
X163277712Y-99528368D01*
X163160211Y-99610643D01*
X163160208Y-99610645D01*
X163155700Y-99613802D01*
X162993802Y-99775700D01*
X162990645Y-99780208D01*
X162990643Y-99780211D01*
X162967705Y-99812970D01*
X162862477Y-99963251D01*
X162860152Y-99968236D01*
X162857401Y-99973002D01*
X162857170Y-99972869D01*
X162851615Y-99982627D01*
X162814743Y-100036680D01*
X162799003Y-100070590D01*
X162736906Y-100204367D01*
X162720688Y-100239305D01*
X162660989Y-100454570D01*
X162637251Y-100676695D01*
X162637548Y-100681848D01*
X162637548Y-100681851D01*
X162643011Y-100776590D01*
X162650110Y-100899715D01*
X162651247Y-100904761D01*
X162651248Y-100904767D01*
X162672275Y-100998069D01*
X162699222Y-101117639D01*
X162783266Y-101324616D01*
X162785965Y-101329020D01*
X162895115Y-101507137D01*
X162899987Y-101515088D01*
X163046250Y-101683938D01*
X163218126Y-101826632D01*
X163256983Y-101849338D01*
X163269012Y-101856367D01*
X163317735Y-101908006D01*
X163330806Y-101977789D01*
X163304074Y-102043561D01*
X163277712Y-102068368D01*
X163160211Y-102150643D01*
X163160208Y-102150645D01*
X163155700Y-102153802D01*
X162993802Y-102315700D01*
X162990645Y-102320208D01*
X162990643Y-102320211D01*
X162933232Y-102402202D01*
X162862477Y-102503251D01*
X162860152Y-102508236D01*
X162857401Y-102513002D01*
X162857170Y-102512869D01*
X162851615Y-102522627D01*
X162814743Y-102576680D01*
X162720688Y-102779305D01*
X162660989Y-102994570D01*
X162637251Y-103216695D01*
X150121771Y-103216695D01*
X150123156Y-103160000D01*
X150104852Y-102937361D01*
X150050431Y-102720702D01*
X149961354Y-102515840D01*
X149898238Y-102418277D01*
X149842822Y-102332617D01*
X149842820Y-102332614D01*
X149840014Y-102328277D01*
X149689670Y-102163051D01*
X149685619Y-102159852D01*
X149685615Y-102159848D01*
X149518414Y-102027800D01*
X149518410Y-102027798D01*
X149514359Y-102024598D01*
X149473053Y-102001796D01*
X149423084Y-101951364D01*
X149408312Y-101881921D01*
X149433428Y-101815516D01*
X149460780Y-101788909D01*
X149518793Y-101747529D01*
X149639860Y-101661173D01*
X149798096Y-101503489D01*
X149857594Y-101420689D01*
X149925435Y-101326277D01*
X149928453Y-101322077D01*
X149980656Y-101216453D01*
X150025136Y-101126453D01*
X150025137Y-101126451D01*
X150027430Y-101121811D01*
X150092370Y-100908069D01*
X150121529Y-100686590D01*
X150121896Y-100671562D01*
X150123074Y-100623365D01*
X150123074Y-100623361D01*
X150123156Y-100620000D01*
X150104852Y-100397361D01*
X150050431Y-100180702D01*
X149961354Y-99975840D01*
X149898238Y-99878277D01*
X149842822Y-99792617D01*
X149842820Y-99792614D01*
X149840014Y-99788277D01*
X149689670Y-99623051D01*
X149685619Y-99619852D01*
X149685615Y-99619848D01*
X149518414Y-99487800D01*
X149518410Y-99487798D01*
X149514359Y-99484598D01*
X149473053Y-99461796D01*
X149423084Y-99411364D01*
X149408312Y-99341921D01*
X149433428Y-99275516D01*
X149460780Y-99248909D01*
X149518793Y-99207529D01*
X149639860Y-99121173D01*
X149798096Y-98963489D01*
X149857594Y-98880689D01*
X149925435Y-98786277D01*
X149928453Y-98782077D01*
X149980656Y-98676453D01*
X150025136Y-98586453D01*
X150025137Y-98586451D01*
X150027430Y-98581811D01*
X150092370Y-98368069D01*
X150121529Y-98146590D01*
X150123156Y-98080000D01*
X150104852Y-97857361D01*
X150050431Y-97640702D01*
X149961354Y-97435840D01*
X149895175Y-97333543D01*
X149842822Y-97252617D01*
X149842820Y-97252614D01*
X149840014Y-97248277D01*
X149689670Y-97083051D01*
X149685619Y-97079852D01*
X149685615Y-97079848D01*
X149518414Y-96947800D01*
X149518410Y-96947798D01*
X149514359Y-96944598D01*
X149473053Y-96921796D01*
X149423084Y-96871364D01*
X149408312Y-96801921D01*
X149433428Y-96735516D01*
X149460780Y-96708909D01*
X149518793Y-96667529D01*
X149639860Y-96581173D01*
X149798096Y-96423489D01*
X149857594Y-96340689D01*
X149882145Y-96306522D01*
X151347273Y-96306522D01*
X151394764Y-96483761D01*
X151398510Y-96494053D01*
X151490586Y-96691511D01*
X151496069Y-96701007D01*
X151621028Y-96879467D01*
X151628084Y-96887875D01*
X151782125Y-97041916D01*
X151790533Y-97048972D01*
X151968993Y-97173931D01*
X151978489Y-97179414D01*
X152175947Y-97271490D01*
X152186239Y-97275236D01*
X152358503Y-97321394D01*
X152372599Y-97321058D01*
X152376000Y-97313116D01*
X152376000Y-97307967D01*
X152884000Y-97307967D01*
X152887973Y-97321498D01*
X152896522Y-97322727D01*
X153073761Y-97275236D01*
X153084053Y-97271490D01*
X153281511Y-97179414D01*
X153291007Y-97173931D01*
X153469467Y-97048972D01*
X153477875Y-97041916D01*
X153631916Y-96887875D01*
X153638972Y-96879467D01*
X153763931Y-96701007D01*
X153769414Y-96691511D01*
X153861490Y-96494053D01*
X153865236Y-96483761D01*
X153911394Y-96311497D01*
X153911058Y-96297401D01*
X153903116Y-96294000D01*
X152902115Y-96294000D01*
X152886876Y-96298475D01*
X152885671Y-96299865D01*
X152884000Y-96307548D01*
X152884000Y-97307967D01*
X152376000Y-97307967D01*
X152376000Y-96312115D01*
X152371525Y-96296876D01*
X152370135Y-96295671D01*
X152362452Y-96294000D01*
X151362033Y-96294000D01*
X151348502Y-96297973D01*
X151347273Y-96306522D01*
X149882145Y-96306522D01*
X149925435Y-96246277D01*
X149928453Y-96242077D01*
X149980656Y-96136453D01*
X150025136Y-96046453D01*
X150025137Y-96046451D01*
X150027430Y-96041811D01*
X150092370Y-95828069D01*
X150121529Y-95606590D01*
X150121916Y-95590757D01*
X150123074Y-95543365D01*
X150123074Y-95543361D01*
X150123156Y-95540000D01*
X150104852Y-95317361D01*
X150050431Y-95100702D01*
X149961354Y-94895840D01*
X149895175Y-94793543D01*
X149842822Y-94712617D01*
X149842820Y-94712614D01*
X149840014Y-94708277D01*
X149689670Y-94543051D01*
X149685619Y-94539852D01*
X149685615Y-94539848D01*
X149518414Y-94407800D01*
X149518410Y-94407798D01*
X149514359Y-94404598D01*
X149473053Y-94381796D01*
X149423084Y-94331364D01*
X149408312Y-94261921D01*
X149433428Y-94195516D01*
X149460780Y-94168909D01*
X149518793Y-94127529D01*
X149639860Y-94041173D01*
X149691301Y-93989912D01*
X149762600Y-93918861D01*
X149798096Y-93883489D01*
X149833808Y-93833791D01*
X149925435Y-93706277D01*
X149928453Y-93702077D01*
X149970251Y-93617506D01*
X150025136Y-93506453D01*
X150025137Y-93506451D01*
X150027430Y-93501811D01*
X150092370Y-93288069D01*
X150121529Y-93066590D01*
X150123156Y-93000000D01*
X150104852Y-92777361D01*
X150050431Y-92560702D01*
X149961354Y-92355840D01*
X149898238Y-92258277D01*
X149842822Y-92172617D01*
X149842820Y-92172614D01*
X149840014Y-92168277D01*
X149689670Y-92003051D01*
X149685619Y-91999852D01*
X149685615Y-91999848D01*
X149518414Y-91867800D01*
X149518410Y-91867798D01*
X149514359Y-91864598D01*
X149473053Y-91841796D01*
X149423084Y-91791364D01*
X149408312Y-91721921D01*
X149433428Y-91655516D01*
X149460780Y-91628909D01*
X149518793Y-91587529D01*
X149639860Y-91501173D01*
X149798096Y-91343489D01*
X149857594Y-91260689D01*
X149925435Y-91166277D01*
X149928453Y-91162077D01*
X149980656Y-91056453D01*
X150025136Y-90966453D01*
X150025137Y-90966451D01*
X150027430Y-90961811D01*
X150092370Y-90748069D01*
X150121529Y-90526590D01*
X150123156Y-90460000D01*
X150104852Y-90237361D01*
X150050431Y-90020702D01*
X149961354Y-89815840D01*
X149898238Y-89718277D01*
X149842822Y-89632617D01*
X149842820Y-89632614D01*
X149840014Y-89628277D01*
X149689670Y-89463051D01*
X149685619Y-89459852D01*
X149685615Y-89459848D01*
X149518414Y-89327800D01*
X149518410Y-89327798D01*
X149514359Y-89324598D01*
X149473053Y-89301796D01*
X149423084Y-89251364D01*
X149408312Y-89181921D01*
X149433428Y-89115516D01*
X149460780Y-89088909D01*
X149518793Y-89047529D01*
X149639860Y-88961173D01*
X149798096Y-88803489D01*
X149857594Y-88720689D01*
X149925435Y-88626277D01*
X149928453Y-88622077D01*
X149980656Y-88516453D01*
X150025136Y-88426453D01*
X150025137Y-88426451D01*
X150027430Y-88421811D01*
X150092370Y-88208069D01*
X150121529Y-87986590D01*
X150123156Y-87920000D01*
X150104852Y-87697361D01*
X150050431Y-87480702D01*
X149961354Y-87275840D01*
X149898238Y-87178277D01*
X149842822Y-87092617D01*
X149842820Y-87092614D01*
X149840014Y-87088277D01*
X149689670Y-86923051D01*
X149685619Y-86919852D01*
X149685615Y-86919848D01*
X149518414Y-86787800D01*
X149518410Y-86787798D01*
X149514359Y-86784598D01*
X149473053Y-86761796D01*
X149423084Y-86711364D01*
X149408312Y-86641921D01*
X149433428Y-86575516D01*
X149460781Y-86548909D01*
X149477588Y-86536921D01*
X149550755Y-86513500D01*
X151410606Y-86513500D01*
X151478727Y-86533502D01*
X151513819Y-86567229D01*
X151614744Y-86711364D01*
X151623802Y-86724300D01*
X151785700Y-86886198D01*
X151790208Y-86889355D01*
X151790211Y-86889357D01*
X151820611Y-86910643D01*
X151973251Y-87017523D01*
X151978233Y-87019846D01*
X151978238Y-87019849D01*
X152012457Y-87035805D01*
X152065742Y-87082722D01*
X152085203Y-87150999D01*
X152064661Y-87218959D01*
X152012457Y-87264195D01*
X151978238Y-87280151D01*
X151978233Y-87280154D01*
X151973251Y-87282477D01*
X151901944Y-87332407D01*
X151790211Y-87410643D01*
X151790208Y-87410645D01*
X151785700Y-87413802D01*
X151623802Y-87575700D01*
X151492477Y-87763251D01*
X151490154Y-87768233D01*
X151490151Y-87768238D01*
X151437308Y-87881562D01*
X151395716Y-87970757D01*
X151394294Y-87976065D01*
X151394293Y-87976067D01*
X151367358Y-88076590D01*
X151336457Y-88191913D01*
X151316502Y-88420000D01*
X151336457Y-88648087D01*
X151337881Y-88653400D01*
X151337881Y-88653402D01*
X151382251Y-88818990D01*
X151395716Y-88869243D01*
X151398039Y-88874224D01*
X151398039Y-88874225D01*
X151490151Y-89071762D01*
X151490154Y-89071767D01*
X151492477Y-89076749D01*
X151527406Y-89126632D01*
X151590429Y-89216638D01*
X151623802Y-89264300D01*
X151785700Y-89426198D01*
X151790208Y-89429355D01*
X151790211Y-89429357D01*
X151820611Y-89450643D01*
X151973251Y-89557523D01*
X151978233Y-89559846D01*
X151978238Y-89559849D01*
X152012457Y-89575805D01*
X152065742Y-89622722D01*
X152085203Y-89690999D01*
X152064661Y-89758959D01*
X152012457Y-89804195D01*
X151978238Y-89820151D01*
X151978233Y-89820154D01*
X151973251Y-89822477D01*
X151901944Y-89872407D01*
X151790211Y-89950643D01*
X151790208Y-89950645D01*
X151785700Y-89953802D01*
X151623802Y-90115700D01*
X151492477Y-90303251D01*
X151490154Y-90308233D01*
X151490151Y-90308238D01*
X151437308Y-90421562D01*
X151395716Y-90510757D01*
X151394294Y-90516065D01*
X151394293Y-90516067D01*
X151367358Y-90616590D01*
X151336457Y-90731913D01*
X151316502Y-90960000D01*
X151336457Y-91188087D01*
X151337881Y-91193400D01*
X151337881Y-91193402D01*
X151382251Y-91358990D01*
X151395716Y-91409243D01*
X151398039Y-91414224D01*
X151398039Y-91414225D01*
X151490151Y-91611762D01*
X151490154Y-91611767D01*
X151492477Y-91616749D01*
X151527406Y-91666632D01*
X151590429Y-91756638D01*
X151623802Y-91804300D01*
X151785700Y-91966198D01*
X151790208Y-91969355D01*
X151790211Y-91969357D01*
X151820611Y-91990643D01*
X151973251Y-92097523D01*
X151978233Y-92099846D01*
X151978238Y-92099849D01*
X152012457Y-92115805D01*
X152065742Y-92162722D01*
X152085203Y-92230999D01*
X152064661Y-92298959D01*
X152012457Y-92344195D01*
X151978238Y-92360151D01*
X151978233Y-92360154D01*
X151973251Y-92362477D01*
X151901944Y-92412407D01*
X151790211Y-92490643D01*
X151790208Y-92490645D01*
X151785700Y-92493802D01*
X151623802Y-92655700D01*
X151492477Y-92843251D01*
X151490154Y-92848233D01*
X151490151Y-92848238D01*
X151437308Y-92961562D01*
X151395716Y-93050757D01*
X151394294Y-93056065D01*
X151394293Y-93056067D01*
X151367358Y-93156590D01*
X151336457Y-93271913D01*
X151316502Y-93500000D01*
X151336457Y-93728087D01*
X151337881Y-93733400D01*
X151337881Y-93733402D01*
X151393489Y-93940930D01*
X151395716Y-93949243D01*
X151398039Y-93954224D01*
X151398039Y-93954225D01*
X151490151Y-94151762D01*
X151490154Y-94151767D01*
X151492477Y-94156749D01*
X151527406Y-94206632D01*
X151590429Y-94296638D01*
X151623802Y-94344300D01*
X151785700Y-94506198D01*
X151790208Y-94509355D01*
X151790211Y-94509357D01*
X151820611Y-94530643D01*
X151973251Y-94637523D01*
X151978233Y-94639846D01*
X151978238Y-94639849D01*
X152013049Y-94656081D01*
X152066334Y-94702998D01*
X152085795Y-94771275D01*
X152065253Y-94839235D01*
X152013049Y-94884471D01*
X151978489Y-94900586D01*
X151968993Y-94906069D01*
X151790533Y-95031028D01*
X151782125Y-95038084D01*
X151628084Y-95192125D01*
X151621028Y-95200533D01*
X151496069Y-95378993D01*
X151490586Y-95388489D01*
X151398510Y-95585947D01*
X151394764Y-95596239D01*
X151348606Y-95768503D01*
X151348942Y-95782599D01*
X151356884Y-95786000D01*
X153897967Y-95786000D01*
X153911498Y-95782027D01*
X153912727Y-95773478D01*
X153865236Y-95596239D01*
X153861490Y-95585947D01*
X153769414Y-95388489D01*
X153763931Y-95378993D01*
X153638972Y-95200533D01*
X153631916Y-95192125D01*
X153477875Y-95038084D01*
X153469467Y-95031028D01*
X153291007Y-94906069D01*
X153281511Y-94900586D01*
X153246951Y-94884471D01*
X153193666Y-94837554D01*
X153174205Y-94769277D01*
X153194747Y-94701317D01*
X153246951Y-94656081D01*
X153281762Y-94639849D01*
X153281767Y-94639846D01*
X153286749Y-94637523D01*
X153439389Y-94530643D01*
X153469789Y-94509357D01*
X153469792Y-94509355D01*
X153474300Y-94506198D01*
X153636198Y-94344300D01*
X153669572Y-94296638D01*
X153732594Y-94206632D01*
X153767523Y-94156749D01*
X153769846Y-94151767D01*
X153769849Y-94151762D01*
X153861961Y-93954225D01*
X153861961Y-93954224D01*
X153864284Y-93949243D01*
X153866512Y-93940930D01*
X153922119Y-93733402D01*
X153922119Y-93733400D01*
X153923543Y-93728087D01*
X153943498Y-93500000D01*
X153923543Y-93271913D01*
X153892642Y-93156590D01*
X153865707Y-93056067D01*
X153865706Y-93056065D01*
X153864284Y-93050757D01*
X153822692Y-92961562D01*
X153769849Y-92848238D01*
X153769846Y-92848233D01*
X153767523Y-92843251D01*
X153636198Y-92655700D01*
X153474300Y-92493802D01*
X153469792Y-92490645D01*
X153469789Y-92490643D01*
X153358056Y-92412407D01*
X153286749Y-92362477D01*
X153281767Y-92360154D01*
X153281762Y-92360151D01*
X153247543Y-92344195D01*
X153194258Y-92297278D01*
X153174797Y-92229001D01*
X153195339Y-92161041D01*
X153247543Y-92115805D01*
X153281762Y-92099849D01*
X153281767Y-92099846D01*
X153286749Y-92097523D01*
X153439389Y-91990643D01*
X153469789Y-91969357D01*
X153469792Y-91969355D01*
X153474300Y-91966198D01*
X153636198Y-91804300D01*
X153669572Y-91756638D01*
X153732594Y-91666632D01*
X153767523Y-91616749D01*
X153769846Y-91611767D01*
X153769849Y-91611762D01*
X153861961Y-91414225D01*
X153861961Y-91414224D01*
X153864284Y-91409243D01*
X153877750Y-91358990D01*
X153922119Y-91193402D01*
X153922119Y-91193400D01*
X153923543Y-91188087D01*
X153943498Y-90960000D01*
X153923543Y-90731913D01*
X153892642Y-90616590D01*
X153865707Y-90516067D01*
X153865706Y-90516065D01*
X153864284Y-90510757D01*
X153822692Y-90421562D01*
X153769849Y-90308238D01*
X153769846Y-90308233D01*
X153767523Y-90303251D01*
X153636198Y-90115700D01*
X153474300Y-89953802D01*
X153469792Y-89950645D01*
X153469789Y-89950643D01*
X153358056Y-89872407D01*
X153286749Y-89822477D01*
X153281767Y-89820154D01*
X153281762Y-89820151D01*
X153247543Y-89804195D01*
X153194258Y-89757278D01*
X153174797Y-89689001D01*
X153195339Y-89621041D01*
X153247543Y-89575805D01*
X153281762Y-89559849D01*
X153281767Y-89559846D01*
X153286749Y-89557523D01*
X153439389Y-89450643D01*
X153469789Y-89429357D01*
X153469792Y-89429355D01*
X153474300Y-89426198D01*
X153636198Y-89264300D01*
X153669572Y-89216638D01*
X153732594Y-89126632D01*
X153767523Y-89076749D01*
X153769846Y-89071767D01*
X153769849Y-89071762D01*
X153861961Y-88874225D01*
X153861961Y-88874224D01*
X153864284Y-88869243D01*
X153877750Y-88818990D01*
X153922119Y-88653402D01*
X153922119Y-88653400D01*
X153923543Y-88648087D01*
X153943498Y-88420000D01*
X153923543Y-88191913D01*
X153892642Y-88076590D01*
X153865707Y-87976067D01*
X153865706Y-87976065D01*
X153864284Y-87970757D01*
X153822692Y-87881562D01*
X153769849Y-87768238D01*
X153769846Y-87768233D01*
X153767523Y-87763251D01*
X153636198Y-87575700D01*
X153474300Y-87413802D01*
X153469792Y-87410645D01*
X153469789Y-87410643D01*
X153358056Y-87332407D01*
X153286749Y-87282477D01*
X153281767Y-87280154D01*
X153281762Y-87280151D01*
X153247543Y-87264195D01*
X153194258Y-87217278D01*
X153174797Y-87149001D01*
X153195339Y-87081041D01*
X153247543Y-87035805D01*
X153281762Y-87019849D01*
X153281767Y-87019846D01*
X153286749Y-87017523D01*
X153439389Y-86910643D01*
X153469789Y-86889357D01*
X153469792Y-86889355D01*
X153474300Y-86886198D01*
X153636198Y-86724300D01*
X153669572Y-86676638D01*
X153732594Y-86586632D01*
X153767523Y-86536749D01*
X153769846Y-86531767D01*
X153769849Y-86531762D01*
X153861961Y-86334225D01*
X153861961Y-86334224D01*
X153864284Y-86329243D01*
X153877750Y-86278990D01*
X153922119Y-86113402D01*
X153922119Y-86113400D01*
X153923543Y-86108087D01*
X153943498Y-85880000D01*
X153923543Y-85651913D01*
X153892642Y-85536590D01*
X153865707Y-85436067D01*
X153865706Y-85436065D01*
X153864284Y-85430757D01*
X153822692Y-85341562D01*
X153769849Y-85228238D01*
X153769846Y-85228233D01*
X153767523Y-85223251D01*
X153636198Y-85035700D01*
X153474300Y-84873802D01*
X153469792Y-84870645D01*
X153469789Y-84870643D01*
X153358056Y-84792407D01*
X153286749Y-84742477D01*
X153281767Y-84740154D01*
X153281762Y-84740151D01*
X153247543Y-84724195D01*
X153194258Y-84677278D01*
X153174797Y-84609001D01*
X153195339Y-84541041D01*
X153247543Y-84495805D01*
X153281762Y-84479849D01*
X153281767Y-84479846D01*
X153286749Y-84477523D01*
X153439389Y-84370643D01*
X153469789Y-84349357D01*
X153469792Y-84349355D01*
X153474300Y-84346198D01*
X153636198Y-84184300D01*
X153669572Y-84136638D01*
X153732594Y-84046632D01*
X153767523Y-83996749D01*
X153769846Y-83991767D01*
X153769849Y-83991762D01*
X153861961Y-83794225D01*
X153861961Y-83794224D01*
X153864284Y-83789243D01*
X153877750Y-83738990D01*
X153922119Y-83573402D01*
X153922119Y-83573400D01*
X153923543Y-83568087D01*
X153943498Y-83340000D01*
X153923543Y-83111913D01*
X153892642Y-82996590D01*
X153865707Y-82896067D01*
X153865706Y-82896065D01*
X153864284Y-82890757D01*
X153822692Y-82801562D01*
X153769849Y-82688238D01*
X153769846Y-82688233D01*
X153767523Y-82683251D01*
X153636198Y-82495700D01*
X153474300Y-82333802D01*
X153469792Y-82330645D01*
X153469789Y-82330643D01*
X153358056Y-82252407D01*
X153286749Y-82202477D01*
X153281767Y-82200154D01*
X153281762Y-82200151D01*
X153247543Y-82184195D01*
X153194258Y-82137278D01*
X153174797Y-82069001D01*
X153195339Y-82001041D01*
X153247543Y-81955805D01*
X153281762Y-81939849D01*
X153281767Y-81939846D01*
X153286749Y-81937523D01*
X153439389Y-81830643D01*
X153469789Y-81809357D01*
X153469792Y-81809355D01*
X153474300Y-81806198D01*
X153636198Y-81644300D01*
X153669572Y-81596638D01*
X153732594Y-81506632D01*
X153767523Y-81456749D01*
X153769846Y-81451767D01*
X153769849Y-81451762D01*
X153861961Y-81254225D01*
X153861961Y-81254224D01*
X153864284Y-81249243D01*
X153877750Y-81198990D01*
X153922119Y-81033402D01*
X153922119Y-81033400D01*
X153923543Y-81028087D01*
X153943498Y-80800000D01*
X153923543Y-80571913D01*
X153892642Y-80456590D01*
X153865707Y-80356067D01*
X153865706Y-80356065D01*
X153864284Y-80350757D01*
X153822692Y-80261562D01*
X153769849Y-80148238D01*
X153769846Y-80148233D01*
X153767523Y-80143251D01*
X153636198Y-79955700D01*
X153474300Y-79793802D01*
X153469789Y-79790643D01*
X153465576Y-79787108D01*
X153466527Y-79785974D01*
X153426529Y-79735929D01*
X153419224Y-79665310D01*
X153451258Y-79601951D01*
X153512462Y-79565970D01*
X153529517Y-79562918D01*
X153540316Y-79561745D01*
X153676705Y-79510615D01*
X153793261Y-79423261D01*
X153880615Y-79306705D01*
X153931745Y-79170316D01*
X153938500Y-79108134D01*
X153938500Y-77411866D01*
X153931745Y-77349684D01*
X153880615Y-77213295D01*
X153793261Y-77096739D01*
X153676705Y-77009385D01*
X153540316Y-76958255D01*
X153478134Y-76951500D01*
X151781866Y-76951500D01*
X151719684Y-76958255D01*
X151583295Y-77009385D01*
X151466739Y-77096739D01*
X151379385Y-77213295D01*
X151328255Y-77349684D01*
X151321500Y-77411866D01*
X151321500Y-77500500D01*
X151301498Y-77568621D01*
X151247842Y-77615114D01*
X151195500Y-77626500D01*
X150225507Y-77626500D01*
X150157386Y-77606498D01*
X150110893Y-77552842D01*
X150103303Y-77531195D01*
X150072477Y-77408469D01*
X150050431Y-77320702D01*
X149961354Y-77115840D01*
X149895970Y-77014771D01*
X149842822Y-76932617D01*
X149842820Y-76932614D01*
X149840014Y-76928277D01*
X149689670Y-76763051D01*
X149685619Y-76759852D01*
X149685615Y-76759848D01*
X149518414Y-76627800D01*
X149518410Y-76627798D01*
X149514359Y-76624598D01*
X149473053Y-76601796D01*
X149423084Y-76551364D01*
X149408312Y-76481921D01*
X149433428Y-76415516D01*
X149460780Y-76388909D01*
X149518793Y-76347529D01*
X149639860Y-76261173D01*
X149798096Y-76103489D01*
X149857594Y-76020689D01*
X149925435Y-75926277D01*
X149928453Y-75922077D01*
X149980656Y-75816453D01*
X150025136Y-75726453D01*
X150025137Y-75726451D01*
X150027430Y-75721811D01*
X150092370Y-75508069D01*
X150121529Y-75286590D01*
X150123156Y-75220000D01*
X150104852Y-74997361D01*
X150050431Y-74780702D01*
X149961354Y-74575840D01*
X149898238Y-74478277D01*
X149842822Y-74392617D01*
X149842820Y-74392614D01*
X149840014Y-74388277D01*
X149689670Y-74223051D01*
X149685619Y-74219852D01*
X149685615Y-74219848D01*
X149518414Y-74087800D01*
X149518410Y-74087798D01*
X149514359Y-74084598D01*
X149473053Y-74061796D01*
X149423084Y-74011364D01*
X149408312Y-73941921D01*
X149433428Y-73875516D01*
X149460780Y-73848909D01*
X149518793Y-73807529D01*
X149639860Y-73721173D01*
X149798096Y-73563489D01*
X149857594Y-73480689D01*
X149925435Y-73386277D01*
X149928453Y-73382077D01*
X149980656Y-73276453D01*
X150025136Y-73186453D01*
X150025137Y-73186451D01*
X150027430Y-73181811D01*
X150092370Y-72968069D01*
X150121529Y-72746590D01*
X150123156Y-72680000D01*
X150104852Y-72457361D01*
X150050431Y-72240702D01*
X149961354Y-72035840D01*
X149898238Y-71938277D01*
X149842822Y-71852617D01*
X149842820Y-71852614D01*
X149840014Y-71848277D01*
X149689670Y-71683051D01*
X149685619Y-71679852D01*
X149685615Y-71679848D01*
X149518414Y-71547800D01*
X149518410Y-71547798D01*
X149514359Y-71544598D01*
X149473053Y-71521796D01*
X149423084Y-71471364D01*
X149408312Y-71401921D01*
X149433428Y-71335516D01*
X149460780Y-71308909D01*
X149518793Y-71267529D01*
X149639860Y-71181173D01*
X149798096Y-71023489D01*
X149848318Y-70953598D01*
X149852991Y-70947095D01*
X153967001Y-70947095D01*
X153967338Y-70953614D01*
X153977257Y-71049206D01*
X153980149Y-71062600D01*
X154031588Y-71216784D01*
X154037761Y-71229962D01*
X154123063Y-71367807D01*
X154132099Y-71379208D01*
X154246829Y-71493739D01*
X154258240Y-71502751D01*
X154396243Y-71587816D01*
X154409424Y-71593963D01*
X154563710Y-71645138D01*
X154577086Y-71648005D01*
X154671438Y-71657672D01*
X154677854Y-71658000D01*
X154777885Y-71658000D01*
X154793124Y-71653525D01*
X154794329Y-71652135D01*
X154796000Y-71644452D01*
X154796000Y-71639884D01*
X155304000Y-71639884D01*
X155308475Y-71655123D01*
X155309865Y-71656328D01*
X155317548Y-71657999D01*
X155422095Y-71657999D01*
X155428614Y-71657662D01*
X155524206Y-71647743D01*
X155537600Y-71644851D01*
X155691784Y-71593412D01*
X155704962Y-71587239D01*
X155842807Y-71501937D01*
X155854208Y-71492901D01*
X155968739Y-71378171D01*
X155977751Y-71366760D01*
X156062816Y-71228757D01*
X156068963Y-71215576D01*
X156120138Y-71061290D01*
X156123005Y-71047914D01*
X156132672Y-70953562D01*
X156132834Y-70950400D01*
X156916500Y-70950400D01*
X156916837Y-70953646D01*
X156916837Y-70953650D01*
X156926752Y-71049206D01*
X156927474Y-71056166D01*
X156929655Y-71062702D01*
X156929655Y-71062704D01*
X156947850Y-71117240D01*
X156983450Y-71223946D01*
X157076522Y-71374348D01*
X157081704Y-71379521D01*
X157130274Y-71428006D01*
X157201697Y-71499305D01*
X157207927Y-71503145D01*
X157207928Y-71503146D01*
X157306616Y-71563978D01*
X157354109Y-71616750D01*
X157366500Y-71671238D01*
X157366500Y-93711233D01*
X157365973Y-93722416D01*
X157364298Y-93729909D01*
X157364547Y-93737835D01*
X157364547Y-93737836D01*
X157366438Y-93797986D01*
X157366500Y-93801945D01*
X157366500Y-93829856D01*
X157366997Y-93833790D01*
X157366997Y-93833791D01*
X157367005Y-93833856D01*
X157367938Y-93845693D01*
X157369327Y-93889889D01*
X157374978Y-93909339D01*
X157378987Y-93928700D01*
X157381526Y-93948797D01*
X157384445Y-93956168D01*
X157384445Y-93956170D01*
X157397804Y-93989912D01*
X157401649Y-94001142D01*
X157413982Y-94043593D01*
X157418015Y-94050412D01*
X157418017Y-94050417D01*
X157424293Y-94061028D01*
X157432988Y-94078776D01*
X157440448Y-94097617D01*
X157445110Y-94104033D01*
X157445110Y-94104034D01*
X157466436Y-94133387D01*
X157472952Y-94143307D01*
X157483568Y-94161257D01*
X157495458Y-94181362D01*
X157509779Y-94195683D01*
X157522619Y-94210716D01*
X157534528Y-94227107D01*
X157568605Y-94255298D01*
X157577384Y-94263288D01*
X158940848Y-95626752D01*
X158974874Y-95689064D01*
X158973459Y-95748459D01*
X158957882Y-95806591D01*
X158957881Y-95806598D01*
X158956457Y-95811913D01*
X158936502Y-96040000D01*
X158956457Y-96268087D01*
X158957881Y-96273400D01*
X158957881Y-96273402D01*
X159002251Y-96438990D01*
X159015716Y-96489243D01*
X159018039Y-96494224D01*
X159018039Y-96494225D01*
X159110151Y-96691762D01*
X159110154Y-96691767D01*
X159112477Y-96696749D01*
X159147406Y-96746632D01*
X159210429Y-96836638D01*
X159243802Y-96884300D01*
X159405700Y-97046198D01*
X159410208Y-97049355D01*
X159410211Y-97049357D01*
X159440611Y-97070643D01*
X159593251Y-97177523D01*
X159598233Y-97179846D01*
X159598238Y-97179849D01*
X159794765Y-97271490D01*
X159800757Y-97274284D01*
X159806065Y-97275706D01*
X159806067Y-97275707D01*
X160016598Y-97332119D01*
X160016600Y-97332119D01*
X160021913Y-97333543D01*
X160250000Y-97353498D01*
X160478087Y-97333543D01*
X160483400Y-97332119D01*
X160483402Y-97332119D01*
X160693933Y-97275707D01*
X160693935Y-97275706D01*
X160699243Y-97274284D01*
X160705235Y-97271490D01*
X160901762Y-97179849D01*
X160901767Y-97179846D01*
X160906749Y-97177523D01*
X161059389Y-97070643D01*
X161089789Y-97049357D01*
X161089792Y-97049355D01*
X161094300Y-97046198D01*
X161256198Y-96884300D01*
X161289572Y-96836638D01*
X161352594Y-96746632D01*
X161387523Y-96696749D01*
X161389846Y-96691767D01*
X161389849Y-96691762D01*
X161481961Y-96494225D01*
X161481961Y-96494224D01*
X161484284Y-96489243D01*
X161497750Y-96438990D01*
X161542119Y-96273402D01*
X161542119Y-96273400D01*
X161543543Y-96268087D01*
X161563498Y-96040000D01*
X161543543Y-95811913D01*
X161531911Y-95768503D01*
X161485707Y-95596067D01*
X161485706Y-95596065D01*
X161484284Y-95590757D01*
X161442692Y-95501562D01*
X161389849Y-95388238D01*
X161389846Y-95388233D01*
X161387523Y-95383251D01*
X161256198Y-95195700D01*
X161094300Y-95033802D01*
X161089792Y-95030645D01*
X161089789Y-95030643D01*
X160978056Y-94952407D01*
X160906749Y-94902477D01*
X160901767Y-94900154D01*
X160901762Y-94900151D01*
X160867543Y-94884195D01*
X160814258Y-94837278D01*
X160794797Y-94769001D01*
X160815339Y-94701041D01*
X160867543Y-94655805D01*
X160901762Y-94639849D01*
X160901767Y-94639846D01*
X160906749Y-94637523D01*
X161059389Y-94530643D01*
X161089789Y-94509357D01*
X161089792Y-94509355D01*
X161094300Y-94506198D01*
X161256198Y-94344300D01*
X161289572Y-94296638D01*
X161352594Y-94206632D01*
X161387523Y-94156749D01*
X161389846Y-94151767D01*
X161389849Y-94151762D01*
X161481961Y-93954225D01*
X161481961Y-93954224D01*
X161484284Y-93949243D01*
X161486512Y-93940930D01*
X161542119Y-93733402D01*
X161542119Y-93733400D01*
X161543543Y-93728087D01*
X161563498Y-93500000D01*
X161543543Y-93271913D01*
X161512642Y-93156590D01*
X161485707Y-93056067D01*
X161485706Y-93056065D01*
X161484284Y-93050757D01*
X161442692Y-92961562D01*
X161389849Y-92848238D01*
X161389846Y-92848233D01*
X161387523Y-92843251D01*
X161256198Y-92655700D01*
X161094300Y-92493802D01*
X161089792Y-92490645D01*
X161089789Y-92490643D01*
X160978056Y-92412407D01*
X160906749Y-92362477D01*
X160901767Y-92360154D01*
X160901762Y-92360151D01*
X160867543Y-92344195D01*
X160814258Y-92297278D01*
X160794797Y-92229001D01*
X160815339Y-92161041D01*
X160867543Y-92115805D01*
X160901762Y-92099849D01*
X160901767Y-92099846D01*
X160906749Y-92097523D01*
X161059389Y-91990643D01*
X161089789Y-91969357D01*
X161089792Y-91969355D01*
X161094300Y-91966198D01*
X161256198Y-91804300D01*
X161289572Y-91756638D01*
X161352594Y-91666632D01*
X161387523Y-91616749D01*
X161389846Y-91611767D01*
X161389849Y-91611762D01*
X161481961Y-91414225D01*
X161481961Y-91414224D01*
X161484284Y-91409243D01*
X161497750Y-91358990D01*
X161542119Y-91193402D01*
X161542119Y-91193400D01*
X161543543Y-91188087D01*
X161563498Y-90960000D01*
X161543543Y-90731913D01*
X161512642Y-90616590D01*
X161485707Y-90516067D01*
X161485706Y-90516065D01*
X161484284Y-90510757D01*
X161442692Y-90421562D01*
X161389849Y-90308238D01*
X161389846Y-90308233D01*
X161387523Y-90303251D01*
X161256198Y-90115700D01*
X161094300Y-89953802D01*
X161089792Y-89950645D01*
X161089789Y-89950643D01*
X160978056Y-89872407D01*
X160906749Y-89822477D01*
X160901767Y-89820154D01*
X160901762Y-89820151D01*
X160867543Y-89804195D01*
X160814258Y-89757278D01*
X160794797Y-89689001D01*
X160815339Y-89621041D01*
X160867543Y-89575805D01*
X160901762Y-89559849D01*
X160901767Y-89559846D01*
X160906749Y-89557523D01*
X161059389Y-89450643D01*
X161089789Y-89429357D01*
X161089792Y-89429355D01*
X161094300Y-89426198D01*
X161256198Y-89264300D01*
X161289572Y-89216638D01*
X161352594Y-89126632D01*
X161387523Y-89076749D01*
X161389846Y-89071767D01*
X161389849Y-89071762D01*
X161481961Y-88874225D01*
X161481961Y-88874224D01*
X161484284Y-88869243D01*
X161497750Y-88818990D01*
X161542119Y-88653402D01*
X161542119Y-88653400D01*
X161543543Y-88648087D01*
X161563498Y-88420000D01*
X161543543Y-88191913D01*
X161512642Y-88076590D01*
X161485707Y-87976067D01*
X161485706Y-87976065D01*
X161484284Y-87970757D01*
X161442692Y-87881562D01*
X161389849Y-87768238D01*
X161389846Y-87768233D01*
X161387523Y-87763251D01*
X161256198Y-87575700D01*
X161094300Y-87413802D01*
X161089792Y-87410645D01*
X161089789Y-87410643D01*
X160978056Y-87332407D01*
X160906749Y-87282477D01*
X160901767Y-87280154D01*
X160901762Y-87280151D01*
X160867543Y-87264195D01*
X160814258Y-87217278D01*
X160794797Y-87149001D01*
X160815339Y-87081041D01*
X160867543Y-87035805D01*
X160901762Y-87019849D01*
X160901767Y-87019846D01*
X160906749Y-87017523D01*
X161059389Y-86910643D01*
X161089789Y-86889357D01*
X161089792Y-86889355D01*
X161094300Y-86886198D01*
X161256198Y-86724300D01*
X161289572Y-86676638D01*
X161352594Y-86586632D01*
X161387523Y-86536749D01*
X161389846Y-86531767D01*
X161389849Y-86531762D01*
X161481961Y-86334225D01*
X161481961Y-86334224D01*
X161484284Y-86329243D01*
X161497750Y-86278990D01*
X161542119Y-86113402D01*
X161542119Y-86113400D01*
X161543543Y-86108087D01*
X161563498Y-85880000D01*
X161543543Y-85651913D01*
X161512642Y-85536590D01*
X161485707Y-85436067D01*
X161485706Y-85436065D01*
X161484284Y-85430757D01*
X161442692Y-85341562D01*
X161389849Y-85228238D01*
X161389846Y-85228233D01*
X161387523Y-85223251D01*
X161256198Y-85035700D01*
X161094300Y-84873802D01*
X161089792Y-84870645D01*
X161089789Y-84870643D01*
X160978056Y-84792407D01*
X160906749Y-84742477D01*
X160901767Y-84740154D01*
X160901762Y-84740151D01*
X160867543Y-84724195D01*
X160814258Y-84677278D01*
X160794797Y-84609001D01*
X160815339Y-84541041D01*
X160867543Y-84495805D01*
X160901762Y-84479849D01*
X160901767Y-84479846D01*
X160906749Y-84477523D01*
X161059389Y-84370643D01*
X161089789Y-84349357D01*
X161089792Y-84349355D01*
X161094300Y-84346198D01*
X161256198Y-84184300D01*
X161289572Y-84136638D01*
X161352594Y-84046632D01*
X161387523Y-83996749D01*
X161389846Y-83991767D01*
X161389849Y-83991762D01*
X161481961Y-83794225D01*
X161481961Y-83794224D01*
X161484284Y-83789243D01*
X161497750Y-83738990D01*
X161542119Y-83573402D01*
X161542119Y-83573400D01*
X161543543Y-83568087D01*
X161563498Y-83340000D01*
X161543543Y-83111913D01*
X161512642Y-82996590D01*
X161485707Y-82896067D01*
X161485706Y-82896065D01*
X161484284Y-82890757D01*
X161442692Y-82801562D01*
X161389849Y-82688238D01*
X161389846Y-82688233D01*
X161387523Y-82683251D01*
X161256198Y-82495700D01*
X161094300Y-82333802D01*
X161089792Y-82330645D01*
X161089789Y-82330643D01*
X160978056Y-82252407D01*
X160906749Y-82202477D01*
X160901767Y-82200154D01*
X160901762Y-82200151D01*
X160867543Y-82184195D01*
X160814258Y-82137278D01*
X160794797Y-82069001D01*
X160815339Y-82001041D01*
X160867543Y-81955805D01*
X160901762Y-81939849D01*
X160901767Y-81939846D01*
X160906749Y-81937523D01*
X161059389Y-81830643D01*
X161089789Y-81809357D01*
X161089792Y-81809355D01*
X161094300Y-81806198D01*
X161256198Y-81644300D01*
X161289572Y-81596638D01*
X161352594Y-81506632D01*
X161387523Y-81456749D01*
X161389846Y-81451767D01*
X161389849Y-81451762D01*
X161481961Y-81254225D01*
X161481961Y-81254224D01*
X161484284Y-81249243D01*
X161497750Y-81198990D01*
X161542119Y-81033402D01*
X161542119Y-81033400D01*
X161543543Y-81028087D01*
X161563498Y-80800000D01*
X161543543Y-80571913D01*
X161512642Y-80456590D01*
X161485707Y-80356067D01*
X161485706Y-80356065D01*
X161484284Y-80350757D01*
X161442692Y-80261562D01*
X161389849Y-80148238D01*
X161389846Y-80148233D01*
X161387523Y-80143251D01*
X161256198Y-79955700D01*
X161094300Y-79793802D01*
X161089792Y-79790645D01*
X161089789Y-79790643D01*
X160990864Y-79721375D01*
X160906749Y-79662477D01*
X160901767Y-79660154D01*
X160901762Y-79660151D01*
X160867543Y-79644195D01*
X160814258Y-79597278D01*
X160794797Y-79529001D01*
X160815339Y-79461041D01*
X160867543Y-79415805D01*
X160901762Y-79399849D01*
X160901767Y-79399846D01*
X160906749Y-79397523D01*
X161059389Y-79290643D01*
X161089789Y-79269357D01*
X161089792Y-79269355D01*
X161094300Y-79266198D01*
X161256198Y-79104300D01*
X161289572Y-79056638D01*
X161352594Y-78966632D01*
X161387523Y-78916749D01*
X161389846Y-78911767D01*
X161389849Y-78911762D01*
X161481961Y-78714225D01*
X161481961Y-78714224D01*
X161484284Y-78709243D01*
X161497750Y-78658990D01*
X161542119Y-78493402D01*
X161542119Y-78493400D01*
X161543543Y-78488087D01*
X161563498Y-78260000D01*
X161543543Y-78031913D01*
X161512642Y-77916590D01*
X161485707Y-77816067D01*
X161485706Y-77816065D01*
X161484284Y-77810757D01*
X161442692Y-77721562D01*
X161389849Y-77608238D01*
X161389846Y-77608233D01*
X161387523Y-77603251D01*
X161256198Y-77415700D01*
X161094300Y-77253802D01*
X161089792Y-77250645D01*
X161089789Y-77250643D01*
X160978056Y-77172407D01*
X160906749Y-77122477D01*
X160901767Y-77120154D01*
X160901762Y-77120151D01*
X160704225Y-77028039D01*
X160704224Y-77028039D01*
X160699243Y-77025716D01*
X160693935Y-77024294D01*
X160693933Y-77024293D01*
X160483402Y-76967881D01*
X160483400Y-76967881D01*
X160478087Y-76966457D01*
X160250000Y-76946502D01*
X160021913Y-76966457D01*
X160016600Y-76967881D01*
X160016598Y-76967881D01*
X159806067Y-77024293D01*
X159806065Y-77024294D01*
X159800757Y-77025716D01*
X159795776Y-77028039D01*
X159795775Y-77028039D01*
X159598238Y-77120151D01*
X159598233Y-77120154D01*
X159593251Y-77122477D01*
X159521944Y-77172407D01*
X159410211Y-77250643D01*
X159410208Y-77250645D01*
X159405700Y-77253802D01*
X159243802Y-77415700D01*
X159112477Y-77603251D01*
X159110154Y-77608233D01*
X159110151Y-77608238D01*
X159057308Y-77721562D01*
X159015716Y-77810757D01*
X159014294Y-77816065D01*
X159014293Y-77816067D01*
X158987358Y-77916590D01*
X158956457Y-78031913D01*
X158936502Y-78260000D01*
X158956457Y-78488087D01*
X158957881Y-78493400D01*
X158957881Y-78493402D01*
X159002251Y-78658990D01*
X159015716Y-78709243D01*
X159018039Y-78714224D01*
X159018039Y-78714225D01*
X159110151Y-78911762D01*
X159110154Y-78911767D01*
X159112477Y-78916749D01*
X159147406Y-78966632D01*
X159210429Y-79056638D01*
X159243802Y-79104300D01*
X159405700Y-79266198D01*
X159410208Y-79269355D01*
X159410211Y-79269357D01*
X159440611Y-79290643D01*
X159593251Y-79397523D01*
X159598233Y-79399846D01*
X159598238Y-79399849D01*
X159632457Y-79415805D01*
X159685742Y-79462722D01*
X159705203Y-79530999D01*
X159684661Y-79598959D01*
X159632457Y-79644195D01*
X159598238Y-79660151D01*
X159598233Y-79660154D01*
X159593251Y-79662477D01*
X159509136Y-79721375D01*
X159410211Y-79790643D01*
X159410208Y-79790645D01*
X159405700Y-79793802D01*
X159243802Y-79955700D01*
X159112477Y-80143251D01*
X159110154Y-80148233D01*
X159110151Y-80148238D01*
X159057308Y-80261562D01*
X159015716Y-80350757D01*
X159014294Y-80356065D01*
X159014293Y-80356067D01*
X158987358Y-80456590D01*
X158956457Y-80571913D01*
X158936502Y-80800000D01*
X158956457Y-81028087D01*
X158957881Y-81033400D01*
X158957881Y-81033402D01*
X159002251Y-81198990D01*
X159015716Y-81249243D01*
X159018039Y-81254224D01*
X159018039Y-81254225D01*
X159110151Y-81451762D01*
X159110154Y-81451767D01*
X159112477Y-81456749D01*
X159147406Y-81506632D01*
X159210429Y-81596638D01*
X159243802Y-81644300D01*
X159405700Y-81806198D01*
X159410208Y-81809355D01*
X159410211Y-81809357D01*
X159440611Y-81830643D01*
X159593251Y-81937523D01*
X159598233Y-81939846D01*
X159598238Y-81939849D01*
X159632457Y-81955805D01*
X159685742Y-82002722D01*
X159705203Y-82070999D01*
X159684661Y-82138959D01*
X159632457Y-82184195D01*
X159598238Y-82200151D01*
X159598233Y-82200154D01*
X159593251Y-82202477D01*
X159521944Y-82252407D01*
X159410211Y-82330643D01*
X159410208Y-82330645D01*
X159405700Y-82333802D01*
X159243802Y-82495700D01*
X159112477Y-82683251D01*
X159110154Y-82688233D01*
X159110151Y-82688238D01*
X159057308Y-82801562D01*
X159015716Y-82890757D01*
X159014294Y-82896065D01*
X159014293Y-82896067D01*
X158987358Y-82996590D01*
X158956457Y-83111913D01*
X158936502Y-83340000D01*
X158956457Y-83568087D01*
X158957881Y-83573400D01*
X158957881Y-83573402D01*
X159002251Y-83738990D01*
X159015716Y-83789243D01*
X159018039Y-83794224D01*
X159018039Y-83794225D01*
X159110151Y-83991762D01*
X159110154Y-83991767D01*
X159112477Y-83996749D01*
X159147406Y-84046632D01*
X159210429Y-84136638D01*
X159243802Y-84184300D01*
X159405700Y-84346198D01*
X159410208Y-84349355D01*
X159410211Y-84349357D01*
X159440611Y-84370643D01*
X159593251Y-84477523D01*
X159598233Y-84479846D01*
X159598238Y-84479849D01*
X159632457Y-84495805D01*
X159685742Y-84542722D01*
X159705203Y-84610999D01*
X159684661Y-84678959D01*
X159632457Y-84724195D01*
X159598238Y-84740151D01*
X159598233Y-84740154D01*
X159593251Y-84742477D01*
X159521944Y-84792407D01*
X159410211Y-84870643D01*
X159410208Y-84870645D01*
X159405700Y-84873802D01*
X159243802Y-85035700D01*
X159112477Y-85223251D01*
X159110154Y-85228233D01*
X159110151Y-85228238D01*
X159057308Y-85341562D01*
X159015716Y-85430757D01*
X159014294Y-85436065D01*
X159014293Y-85436067D01*
X158987358Y-85536590D01*
X158956457Y-85651913D01*
X158936502Y-85880000D01*
X158956457Y-86108087D01*
X158957881Y-86113400D01*
X158957881Y-86113402D01*
X159002251Y-86278990D01*
X159015716Y-86329243D01*
X159018039Y-86334224D01*
X159018039Y-86334225D01*
X159110151Y-86531762D01*
X159110154Y-86531767D01*
X159112477Y-86536749D01*
X159147406Y-86586632D01*
X159210429Y-86676638D01*
X159243802Y-86724300D01*
X159405700Y-86886198D01*
X159410208Y-86889355D01*
X159410211Y-86889357D01*
X159440611Y-86910643D01*
X159593251Y-87017523D01*
X159598233Y-87019846D01*
X159598238Y-87019849D01*
X159632457Y-87035805D01*
X159685742Y-87082722D01*
X159705203Y-87150999D01*
X159684661Y-87218959D01*
X159632457Y-87264195D01*
X159598238Y-87280151D01*
X159598233Y-87280154D01*
X159593251Y-87282477D01*
X159521944Y-87332407D01*
X159410211Y-87410643D01*
X159410208Y-87410645D01*
X159405700Y-87413802D01*
X159243802Y-87575700D01*
X159112477Y-87763251D01*
X159110154Y-87768233D01*
X159110151Y-87768238D01*
X159057308Y-87881562D01*
X159015716Y-87970757D01*
X159014294Y-87976065D01*
X159014293Y-87976067D01*
X158987358Y-88076590D01*
X158956457Y-88191913D01*
X158936502Y-88420000D01*
X158956457Y-88648087D01*
X158957881Y-88653400D01*
X158957881Y-88653402D01*
X159002251Y-88818990D01*
X159015716Y-88869243D01*
X159018039Y-88874224D01*
X159018039Y-88874225D01*
X159110151Y-89071762D01*
X159110154Y-89071767D01*
X159112477Y-89076749D01*
X159147406Y-89126632D01*
X159210429Y-89216638D01*
X159243802Y-89264300D01*
X159405700Y-89426198D01*
X159410208Y-89429355D01*
X159410211Y-89429357D01*
X159440611Y-89450643D01*
X159593251Y-89557523D01*
X159598233Y-89559846D01*
X159598238Y-89559849D01*
X159632457Y-89575805D01*
X159685742Y-89622722D01*
X159705203Y-89690999D01*
X159684661Y-89758959D01*
X159632457Y-89804195D01*
X159598238Y-89820151D01*
X159598233Y-89820154D01*
X159593251Y-89822477D01*
X159521944Y-89872407D01*
X159410211Y-89950643D01*
X159410208Y-89950645D01*
X159405700Y-89953802D01*
X159243802Y-90115700D01*
X159112477Y-90303251D01*
X159110154Y-90308233D01*
X159110151Y-90308238D01*
X159057308Y-90421562D01*
X159015716Y-90510757D01*
X159014294Y-90516065D01*
X159014293Y-90516067D01*
X158987358Y-90616590D01*
X158956457Y-90731913D01*
X158936502Y-90960000D01*
X158956457Y-91188087D01*
X158957881Y-91193400D01*
X158957881Y-91193402D01*
X159002251Y-91358990D01*
X159015716Y-91409243D01*
X159018039Y-91414224D01*
X159018039Y-91414225D01*
X159110151Y-91611762D01*
X159110154Y-91611767D01*
X159112477Y-91616749D01*
X159147406Y-91666632D01*
X159210429Y-91756638D01*
X159243802Y-91804300D01*
X159405700Y-91966198D01*
X159410208Y-91969355D01*
X159410211Y-91969357D01*
X159440611Y-91990643D01*
X159593251Y-92097523D01*
X159598233Y-92099846D01*
X159598238Y-92099849D01*
X159632457Y-92115805D01*
X159685742Y-92162722D01*
X159705203Y-92230999D01*
X159684661Y-92298959D01*
X159632457Y-92344195D01*
X159598238Y-92360151D01*
X159598233Y-92360154D01*
X159593251Y-92362477D01*
X159521944Y-92412407D01*
X159410211Y-92490643D01*
X159410208Y-92490645D01*
X159405700Y-92493802D01*
X159243802Y-92655700D01*
X159112477Y-92843251D01*
X159110154Y-92848233D01*
X159110151Y-92848238D01*
X159057308Y-92961562D01*
X159015716Y-93050757D01*
X159014294Y-93056065D01*
X159014293Y-93056067D01*
X158987358Y-93156590D01*
X158956457Y-93271913D01*
X158936502Y-93500000D01*
X158936981Y-93505475D01*
X158936981Y-93505485D01*
X158938026Y-93517428D01*
X158924038Y-93587033D01*
X158874639Y-93638026D01*
X158805514Y-93654217D01*
X158738608Y-93630465D01*
X158723411Y-93617506D01*
X158670405Y-93564500D01*
X158636379Y-93502188D01*
X158633500Y-93475405D01*
X158633500Y-71671311D01*
X158653502Y-71603190D01*
X158693196Y-71564167D01*
X158799348Y-71498478D01*
X158924305Y-71373303D01*
X158942783Y-71343327D01*
X159013275Y-71228968D01*
X159013276Y-71228966D01*
X159017115Y-71222738D01*
X159072797Y-71054861D01*
X159083500Y-70950400D01*
X159083500Y-69549600D01*
X159083163Y-69546350D01*
X159073238Y-69450692D01*
X159073237Y-69450688D01*
X159072526Y-69443834D01*
X159055172Y-69391816D01*
X159018868Y-69283002D01*
X159016550Y-69276054D01*
X158923478Y-69125652D01*
X158798303Y-69000695D01*
X158787066Y-68993768D01*
X158728025Y-68957375D01*
X158693383Y-68936021D01*
X158645891Y-68883250D01*
X158633500Y-68828762D01*
X158633500Y-68314594D01*
X158653502Y-68246473D01*
X158670405Y-68225499D01*
X164990499Y-61905405D01*
X165052811Y-61871379D01*
X165079594Y-61868500D01*
X165830400Y-61868500D01*
X165833646Y-61868163D01*
X165833650Y-61868163D01*
X165929308Y-61858238D01*
X165929312Y-61858237D01*
X165936166Y-61857526D01*
X165942702Y-61855345D01*
X165942704Y-61855345D01*
X166096998Y-61803868D01*
X166103946Y-61801550D01*
X166254348Y-61708478D01*
X166379305Y-61583303D01*
X166383146Y-61577072D01*
X166468275Y-61438968D01*
X166468276Y-61438966D01*
X166472115Y-61432738D01*
X166527797Y-61264861D01*
X166528578Y-61257245D01*
X166538172Y-61163598D01*
X166538500Y-61160400D01*
X166538500Y-59559600D01*
X166532553Y-59502284D01*
X166528238Y-59460692D01*
X166528237Y-59460688D01*
X166527526Y-59453834D01*
X166471550Y-59286054D01*
X166378478Y-59135652D01*
X166253303Y-59010695D01*
X166222965Y-58991994D01*
X166108968Y-58921725D01*
X166108966Y-58921724D01*
X166102738Y-58917885D01*
X165983498Y-58878335D01*
X165941389Y-58864368D01*
X165941387Y-58864368D01*
X165934861Y-58862203D01*
X165928025Y-58861503D01*
X165928022Y-58861502D01*
X165884969Y-58857091D01*
X165830400Y-58851500D01*
X164529600Y-58851500D01*
X164526354Y-58851837D01*
X164526350Y-58851837D01*
X164430692Y-58861762D01*
X164430688Y-58861763D01*
X164423834Y-58862474D01*
X164417298Y-58864655D01*
X164417296Y-58864655D01*
X164285194Y-58908728D01*
X164256054Y-58918450D01*
X164105652Y-59011522D01*
X163980695Y-59136697D01*
X163976855Y-59142927D01*
X163976854Y-59142928D01*
X163890648Y-59282780D01*
X163837876Y-59330273D01*
X163767804Y-59341697D01*
X163702680Y-59313423D01*
X163692218Y-59303636D01*
X163586766Y-59193094D01*
X163578814Y-59186059D01*
X163402475Y-59054859D01*
X163393438Y-59049255D01*
X163197516Y-58949643D01*
X163187665Y-58945643D01*
X162977760Y-58880466D01*
X162967376Y-58878183D01*
X162951957Y-58876139D01*
X162937793Y-58878335D01*
X162934000Y-58891522D01*
X162934000Y-61826192D01*
X162937973Y-61839723D01*
X162969864Y-61844308D01*
X162969391Y-61847595D01*
X163006579Y-61851728D01*
X163061699Y-61896475D01*
X163083877Y-61963919D01*
X163066072Y-62032647D01*
X163047037Y-62057058D01*
X157607747Y-67496348D01*
X157599461Y-67503888D01*
X157592982Y-67508000D01*
X157548476Y-67555395D01*
X157546357Y-67557651D01*
X157543602Y-67560493D01*
X157523865Y-67580230D01*
X157521385Y-67583427D01*
X157513682Y-67592447D01*
X157483414Y-67624679D01*
X157479595Y-67631625D01*
X157479593Y-67631628D01*
X157473652Y-67642434D01*
X157462801Y-67658953D01*
X157450386Y-67674959D01*
X157447241Y-67682228D01*
X157447238Y-67682232D01*
X157432826Y-67715537D01*
X157427609Y-67726187D01*
X157406305Y-67764940D01*
X157404334Y-67772615D01*
X157404334Y-67772616D01*
X157401267Y-67784562D01*
X157394863Y-67803266D01*
X157386819Y-67821855D01*
X157385580Y-67829678D01*
X157385577Y-67829688D01*
X157379901Y-67865524D01*
X157377495Y-67877144D01*
X157366500Y-67919970D01*
X157366500Y-67940224D01*
X157364949Y-67959934D01*
X157361780Y-67979943D01*
X157362526Y-67987835D01*
X157365941Y-68023961D01*
X157366500Y-68035819D01*
X157366500Y-68828689D01*
X157346498Y-68896810D01*
X157306804Y-68935833D01*
X157200652Y-69001522D01*
X157075695Y-69126697D01*
X157071855Y-69132927D01*
X157071854Y-69132928D01*
X157023955Y-69210635D01*
X156982885Y-69277262D01*
X156973867Y-69304450D01*
X156929893Y-69437030D01*
X156927203Y-69445139D01*
X156916500Y-69549600D01*
X156916500Y-70950400D01*
X156132834Y-70950400D01*
X156133000Y-70947146D01*
X156133000Y-70522115D01*
X156128525Y-70506876D01*
X156127135Y-70505671D01*
X156119452Y-70504000D01*
X155322115Y-70504000D01*
X155306876Y-70508475D01*
X155305671Y-70509865D01*
X155304000Y-70517548D01*
X155304000Y-71639884D01*
X154796000Y-71639884D01*
X154796000Y-70522115D01*
X154791525Y-70506876D01*
X154790135Y-70505671D01*
X154782452Y-70504000D01*
X153985116Y-70504000D01*
X153969877Y-70508475D01*
X153968672Y-70509865D01*
X153967001Y-70517548D01*
X153967001Y-70947095D01*
X149852991Y-70947095D01*
X149925435Y-70846277D01*
X149928453Y-70842077D01*
X149980656Y-70736453D01*
X150025136Y-70646453D01*
X150025137Y-70646451D01*
X150027430Y-70641811D01*
X150092370Y-70428069D01*
X150121529Y-70206590D01*
X150123156Y-70140000D01*
X150109828Y-69977885D01*
X153967000Y-69977885D01*
X153971475Y-69993124D01*
X153972865Y-69994329D01*
X153980548Y-69996000D01*
X154777885Y-69996000D01*
X154793124Y-69991525D01*
X154794329Y-69990135D01*
X154796000Y-69982452D01*
X154796000Y-69977885D01*
X155304000Y-69977885D01*
X155308475Y-69993124D01*
X155309865Y-69994329D01*
X155317548Y-69996000D01*
X156114884Y-69996000D01*
X156130123Y-69991525D01*
X156131328Y-69990135D01*
X156132999Y-69982452D01*
X156132999Y-69552905D01*
X156132662Y-69546386D01*
X156122743Y-69450794D01*
X156119851Y-69437400D01*
X156068412Y-69283216D01*
X156062239Y-69270038D01*
X155976937Y-69132193D01*
X155967901Y-69120792D01*
X155853171Y-69006261D01*
X155841760Y-68997249D01*
X155703757Y-68912184D01*
X155690576Y-68906037D01*
X155536290Y-68854862D01*
X155522914Y-68851995D01*
X155428562Y-68842328D01*
X155422145Y-68842000D01*
X155322115Y-68842000D01*
X155306876Y-68846475D01*
X155305671Y-68847865D01*
X155304000Y-68855548D01*
X155304000Y-69977885D01*
X154796000Y-69977885D01*
X154796000Y-68860116D01*
X154791525Y-68844877D01*
X154790135Y-68843672D01*
X154782452Y-68842001D01*
X154677905Y-68842001D01*
X154671386Y-68842338D01*
X154575794Y-68852257D01*
X154562400Y-68855149D01*
X154408216Y-68906588D01*
X154395038Y-68912761D01*
X154257193Y-68998063D01*
X154245792Y-69007099D01*
X154131261Y-69121829D01*
X154122249Y-69133240D01*
X154037184Y-69271243D01*
X154031037Y-69284424D01*
X153979862Y-69438710D01*
X153976995Y-69452086D01*
X153967328Y-69546438D01*
X153967000Y-69552855D01*
X153967000Y-69977885D01*
X150109828Y-69977885D01*
X150104852Y-69917361D01*
X150050431Y-69700702D01*
X149961354Y-69495840D01*
X149881046Y-69371703D01*
X149842822Y-69312617D01*
X149842820Y-69312614D01*
X149840014Y-69308277D01*
X149825317Y-69292125D01*
X149692798Y-69146488D01*
X149661746Y-69082642D01*
X149670141Y-69012143D01*
X149715317Y-68957375D01*
X149741761Y-68943706D01*
X149848297Y-68903767D01*
X149856705Y-68900615D01*
X149973261Y-68813261D01*
X150060615Y-68696705D01*
X150111745Y-68560316D01*
X150118500Y-68498134D01*
X150118500Y-66701866D01*
X150111745Y-66639684D01*
X150060615Y-66503295D01*
X149973261Y-66386739D01*
X149856705Y-66299385D01*
X149720316Y-66248255D01*
X149658134Y-66241500D01*
X147861866Y-66241500D01*
X147799684Y-66248255D01*
X147663295Y-66299385D01*
X147546739Y-66386739D01*
X147459385Y-66503295D01*
X147408255Y-66639684D01*
X147401500Y-66701866D01*
X147401500Y-68498134D01*
X147408255Y-68560316D01*
X147459385Y-68696705D01*
X147546739Y-68813261D01*
X147663295Y-68900615D01*
X147671704Y-68903767D01*
X147671705Y-68903768D01*
X147780451Y-68944535D01*
X147837216Y-68987176D01*
X147861916Y-69053738D01*
X147846709Y-69123087D01*
X147827316Y-69149568D01*
X147705289Y-69277262D01*
X147700629Y-69282138D01*
X147574743Y-69466680D01*
X147480688Y-69669305D01*
X147420989Y-69884570D01*
X147397251Y-70106695D01*
X147397548Y-70111848D01*
X147397548Y-70111851D01*
X147408007Y-70293240D01*
X147410110Y-70329715D01*
X147411247Y-70334761D01*
X147411248Y-70334767D01*
X147429228Y-70414547D01*
X147459222Y-70547639D01*
X147543266Y-70754616D01*
X147545965Y-70759020D01*
X147654588Y-70936277D01*
X147659987Y-70945088D01*
X147806250Y-71113938D01*
X147978126Y-71256632D01*
X147996774Y-71267529D01*
X148051445Y-71299476D01*
X148100169Y-71351114D01*
X148113240Y-71420897D01*
X148086509Y-71486669D01*
X148046055Y-71520027D01*
X148033607Y-71526507D01*
X148029474Y-71529610D01*
X148029471Y-71529612D01*
X147862306Y-71655123D01*
X147854965Y-71660635D01*
X147700629Y-71822138D01*
X147697715Y-71826410D01*
X147697714Y-71826411D01*
X147688300Y-71840211D01*
X147574743Y-72006680D01*
X147480688Y-72209305D01*
X147420989Y-72424570D01*
X147397251Y-72646695D01*
X147397548Y-72651848D01*
X147397548Y-72651851D01*
X147408007Y-72833240D01*
X147410110Y-72869715D01*
X147411247Y-72874761D01*
X147411248Y-72874767D01*
X147429228Y-72954547D01*
X147459222Y-73087639D01*
X147543266Y-73294616D01*
X147545965Y-73299020D01*
X147654588Y-73476277D01*
X147659987Y-73485088D01*
X147806250Y-73653938D01*
X147978126Y-73796632D01*
X147996774Y-73807529D01*
X148051445Y-73839476D01*
X148100169Y-73891114D01*
X148113240Y-73960897D01*
X148086509Y-74026669D01*
X148046055Y-74060027D01*
X148033607Y-74066507D01*
X148029474Y-74069610D01*
X148029471Y-74069612D01*
X147859100Y-74197530D01*
X147854965Y-74200635D01*
X147700629Y-74362138D01*
X147697715Y-74366410D01*
X147697714Y-74366411D01*
X147688300Y-74380211D01*
X147574743Y-74546680D01*
X147480688Y-74749305D01*
X147420989Y-74964570D01*
X147397251Y-75186695D01*
X147397548Y-75191848D01*
X147397548Y-75191851D01*
X147408007Y-75373240D01*
X147410110Y-75409715D01*
X147411247Y-75414761D01*
X147411248Y-75414767D01*
X147429228Y-75494547D01*
X147459222Y-75627639D01*
X147543266Y-75834616D01*
X147545965Y-75839020D01*
X147654588Y-76016277D01*
X147659987Y-76025088D01*
X147806250Y-76193938D01*
X147978126Y-76336632D01*
X147996774Y-76347529D01*
X148051445Y-76379476D01*
X148100169Y-76431114D01*
X148113240Y-76500897D01*
X148086509Y-76566669D01*
X148046055Y-76600027D01*
X148033607Y-76606507D01*
X148029474Y-76609610D01*
X148029471Y-76609612D01*
X147859100Y-76737530D01*
X147854965Y-76740635D01*
X147700629Y-76902138D01*
X147697715Y-76906410D01*
X147697714Y-76906411D01*
X147655782Y-76967881D01*
X147574743Y-77086680D01*
X147556661Y-77125634D01*
X147515971Y-77213295D01*
X147480688Y-77289305D01*
X147420989Y-77504570D01*
X147397251Y-77726695D01*
X147397548Y-77731848D01*
X147397548Y-77731851D01*
X147408007Y-77913240D01*
X147410110Y-77949715D01*
X147411247Y-77954761D01*
X147411248Y-77954767D01*
X147428634Y-78031913D01*
X147459222Y-78167639D01*
X147543266Y-78374616D01*
X147545965Y-78379020D01*
X147654588Y-78556277D01*
X147659987Y-78565088D01*
X147806250Y-78733938D01*
X147978126Y-78876632D01*
X148008141Y-78894171D01*
X148051445Y-78919476D01*
X148100169Y-78971114D01*
X148113240Y-79040897D01*
X148086509Y-79106669D01*
X148046055Y-79140027D01*
X148033607Y-79146507D01*
X148029474Y-79149610D01*
X148029471Y-79149612D01*
X147859100Y-79277530D01*
X147854965Y-79280635D01*
X147700629Y-79442138D01*
X147697715Y-79446410D01*
X147697714Y-79446411D01*
X147685404Y-79464457D01*
X147574743Y-79626680D01*
X147556812Y-79665310D01*
X147524032Y-79735929D01*
X147480688Y-79829305D01*
X147420989Y-80044570D01*
X147397251Y-80266695D01*
X147397548Y-80271848D01*
X147397548Y-80271851D01*
X147408007Y-80453240D01*
X147410110Y-80489715D01*
X147411247Y-80494761D01*
X147411248Y-80494767D01*
X147428634Y-80571913D01*
X147459222Y-80707639D01*
X147543266Y-80914616D01*
X147545965Y-80919020D01*
X147654588Y-81096277D01*
X147659987Y-81105088D01*
X147806250Y-81273938D01*
X147978126Y-81416632D01*
X148008141Y-81434171D01*
X148051445Y-81459476D01*
X148100169Y-81511114D01*
X148113240Y-81580897D01*
X148086509Y-81646669D01*
X148046055Y-81680027D01*
X148033607Y-81686507D01*
X148029474Y-81689610D01*
X148029471Y-81689612D01*
X147859100Y-81817530D01*
X147854965Y-81820635D01*
X147700629Y-81982138D01*
X147697715Y-81986410D01*
X147697714Y-81986411D01*
X147685404Y-82004457D01*
X147574743Y-82166680D01*
X147480688Y-82369305D01*
X147420989Y-82584570D01*
X147397251Y-82806695D01*
X147397548Y-82811848D01*
X147397548Y-82811851D01*
X147408007Y-82993240D01*
X147410110Y-83029715D01*
X147411247Y-83034761D01*
X147411248Y-83034767D01*
X147428634Y-83111913D01*
X147459222Y-83247639D01*
X147543266Y-83454616D01*
X147545965Y-83459020D01*
X147654588Y-83636277D01*
X147659987Y-83645088D01*
X147806250Y-83813938D01*
X147978126Y-83956632D01*
X148008141Y-83974171D01*
X148051445Y-83999476D01*
X148100169Y-84051114D01*
X148113240Y-84120897D01*
X148086509Y-84186669D01*
X148046055Y-84220027D01*
X148033607Y-84226507D01*
X148029474Y-84229610D01*
X148029471Y-84229612D01*
X147859100Y-84357530D01*
X147854965Y-84360635D01*
X147700629Y-84522138D01*
X147697715Y-84526410D01*
X147697714Y-84526411D01*
X147685404Y-84544457D01*
X147574743Y-84706680D01*
X147480688Y-84909305D01*
X147420989Y-85124570D01*
X147397251Y-85346695D01*
X147397548Y-85351848D01*
X147397548Y-85351851D01*
X147408007Y-85533240D01*
X147410110Y-85569715D01*
X147411247Y-85574761D01*
X147411248Y-85574767D01*
X147428634Y-85651913D01*
X147459222Y-85787639D01*
X147543266Y-85994616D01*
X147545965Y-85999020D01*
X147654588Y-86176277D01*
X147659987Y-86185088D01*
X147806250Y-86353938D01*
X147978126Y-86496632D01*
X148008141Y-86514171D01*
X148051445Y-86539476D01*
X148100169Y-86591114D01*
X148113240Y-86660897D01*
X148086509Y-86726669D01*
X148046055Y-86760027D01*
X148033607Y-86766507D01*
X148029474Y-86769610D01*
X148029471Y-86769612D01*
X147859100Y-86897530D01*
X147854965Y-86900635D01*
X147700629Y-87062138D01*
X147697715Y-87066410D01*
X147697714Y-87066411D01*
X147685404Y-87084457D01*
X147574743Y-87246680D01*
X147480688Y-87449305D01*
X147420989Y-87664570D01*
X147397251Y-87886695D01*
X147397548Y-87891848D01*
X147397548Y-87891851D01*
X147408007Y-88073240D01*
X147410110Y-88109715D01*
X147411247Y-88114761D01*
X147411248Y-88114767D01*
X147428634Y-88191913D01*
X147459222Y-88327639D01*
X147543266Y-88534616D01*
X147545965Y-88539020D01*
X147654588Y-88716277D01*
X147659987Y-88725088D01*
X147806250Y-88893938D01*
X147978126Y-89036632D01*
X147996774Y-89047529D01*
X148051445Y-89079476D01*
X148100169Y-89131114D01*
X148113240Y-89200897D01*
X148086509Y-89266669D01*
X148046055Y-89300027D01*
X148033607Y-89306507D01*
X148029474Y-89309610D01*
X148029471Y-89309612D01*
X147859100Y-89437530D01*
X147854965Y-89440635D01*
X147700629Y-89602138D01*
X147697715Y-89606410D01*
X147697714Y-89606411D01*
X147685404Y-89624457D01*
X147574743Y-89786680D01*
X147480688Y-89989305D01*
X147420989Y-90204570D01*
X147397251Y-90426695D01*
X147397548Y-90431848D01*
X147397548Y-90431851D01*
X147408007Y-90613240D01*
X147410110Y-90649715D01*
X147411247Y-90654761D01*
X147411248Y-90654767D01*
X147428634Y-90731913D01*
X147459222Y-90867639D01*
X147543266Y-91074616D01*
X147545965Y-91079020D01*
X147654588Y-91256277D01*
X147659987Y-91265088D01*
X147806250Y-91433938D01*
X147978126Y-91576632D01*
X147996774Y-91587529D01*
X148051445Y-91619476D01*
X148100169Y-91671114D01*
X148113240Y-91740897D01*
X148086509Y-91806669D01*
X148046055Y-91840027D01*
X148033607Y-91846507D01*
X148029474Y-91849610D01*
X148029471Y-91849612D01*
X147859100Y-91977530D01*
X147854965Y-91980635D01*
X147700629Y-92142138D01*
X147697715Y-92146410D01*
X147697714Y-92146411D01*
X147685404Y-92164457D01*
X147574743Y-92326680D01*
X147480688Y-92529305D01*
X147420989Y-92744570D01*
X147397251Y-92966695D01*
X147397548Y-92971848D01*
X147397548Y-92971851D01*
X147408007Y-93153240D01*
X147410110Y-93189715D01*
X147411247Y-93194761D01*
X147411248Y-93194767D01*
X147428634Y-93271913D01*
X147459222Y-93407639D01*
X147543266Y-93614616D01*
X147594019Y-93697438D01*
X147654588Y-93796277D01*
X147659987Y-93805088D01*
X147806250Y-93973938D01*
X147978126Y-94116632D01*
X147996774Y-94127529D01*
X148051445Y-94159476D01*
X148100169Y-94211114D01*
X148113240Y-94280897D01*
X148086509Y-94346669D01*
X148046055Y-94380027D01*
X148033607Y-94386507D01*
X148029474Y-94389610D01*
X148029471Y-94389612D01*
X147859100Y-94517530D01*
X147854965Y-94520635D01*
X147700629Y-94682138D01*
X147697715Y-94686410D01*
X147697714Y-94686411D01*
X147688300Y-94700211D01*
X147574743Y-94866680D01*
X147534950Y-94952407D01*
X147498456Y-95031028D01*
X147480688Y-95069305D01*
X147420989Y-95284570D01*
X147397251Y-95506695D01*
X147397548Y-95511848D01*
X147397548Y-95511851D01*
X147407139Y-95678192D01*
X147410110Y-95729715D01*
X147411247Y-95734761D01*
X147411248Y-95734767D01*
X147428634Y-95811913D01*
X147459222Y-95947639D01*
X147543266Y-96154616D01*
X147545965Y-96159020D01*
X147654588Y-96336277D01*
X147659987Y-96345088D01*
X147806250Y-96513938D01*
X147978126Y-96656632D01*
X147996774Y-96667529D01*
X148051445Y-96699476D01*
X148100169Y-96751114D01*
X148113240Y-96820897D01*
X148086509Y-96886669D01*
X148046055Y-96920027D01*
X148033607Y-96926507D01*
X148029474Y-96929610D01*
X148029471Y-96929612D01*
X147859100Y-97057530D01*
X147854965Y-97060635D01*
X147700629Y-97222138D01*
X147697715Y-97226410D01*
X147697714Y-97226411D01*
X147688300Y-97240211D01*
X147574743Y-97406680D01*
X147480688Y-97609305D01*
X147420989Y-97824570D01*
X147397251Y-98046695D01*
X147397548Y-98051848D01*
X147397548Y-98051851D01*
X147408007Y-98233240D01*
X147410110Y-98269715D01*
X147411247Y-98274761D01*
X147411248Y-98274767D01*
X147429228Y-98354547D01*
X147459222Y-98487639D01*
X147543266Y-98694616D01*
X147545965Y-98699020D01*
X147654588Y-98876277D01*
X147659987Y-98885088D01*
X147806250Y-99053938D01*
X147978126Y-99196632D01*
X147996774Y-99207529D01*
X148051445Y-99239476D01*
X148100169Y-99291114D01*
X148113240Y-99360897D01*
X148086509Y-99426669D01*
X148046055Y-99460027D01*
X148033607Y-99466507D01*
X148029474Y-99469610D01*
X148029471Y-99469612D01*
X147859100Y-99597530D01*
X147854965Y-99600635D01*
X147700629Y-99762138D01*
X147697715Y-99766410D01*
X147697714Y-99766411D01*
X147688300Y-99780211D01*
X147574743Y-99946680D01*
X147480688Y-100149305D01*
X147420989Y-100364570D01*
X147397251Y-100586695D01*
X147397548Y-100591848D01*
X147397548Y-100591851D01*
X147408007Y-100773240D01*
X147410110Y-100809715D01*
X147411247Y-100814761D01*
X147411248Y-100814767D01*
X147429228Y-100894547D01*
X147459222Y-101027639D01*
X147543266Y-101234616D01*
X147545965Y-101239020D01*
X147655799Y-101418253D01*
X147659987Y-101425088D01*
X147806250Y-101593938D01*
X147978126Y-101736632D01*
X147996774Y-101747529D01*
X148051445Y-101779476D01*
X148100169Y-101831114D01*
X148113240Y-101900897D01*
X148086509Y-101966669D01*
X148046055Y-102000027D01*
X148033607Y-102006507D01*
X148029474Y-102009610D01*
X148029471Y-102009612D01*
X147859100Y-102137530D01*
X147854965Y-102140635D01*
X147700629Y-102302138D01*
X147697715Y-102306410D01*
X147697714Y-102306411D01*
X147688300Y-102320211D01*
X147574743Y-102486680D01*
X147480688Y-102689305D01*
X147420989Y-102904570D01*
X147397251Y-103126695D01*
X146462570Y-103126695D01*
X146465102Y-103121562D01*
X146558414Y-102932342D01*
X146591059Y-102866145D01*
X146642042Y-102715954D01*
X146684896Y-102589710D01*
X146684897Y-102589706D01*
X146686224Y-102585797D01*
X146688038Y-102576680D01*
X146743180Y-102299465D01*
X146743181Y-102299459D01*
X146743983Y-102295426D01*
X146753266Y-102153802D01*
X146762716Y-102009612D01*
X146763346Y-102000000D01*
X146757882Y-101916638D01*
X146744253Y-101708686D01*
X146744252Y-101708679D01*
X146743983Y-101704574D01*
X146739879Y-101683938D01*
X146687030Y-101418253D01*
X146687028Y-101418247D01*
X146686224Y-101414203D01*
X146657309Y-101329020D01*
X146592385Y-101137761D01*
X146592384Y-101137760D01*
X146591059Y-101133855D01*
X146479714Y-100908069D01*
X146461942Y-100872031D01*
X146461939Y-100872026D01*
X146460115Y-100868327D01*
X146356573Y-100713365D01*
X146297926Y-100625593D01*
X146297922Y-100625588D01*
X146295633Y-100622162D01*
X146292919Y-100619068D01*
X146292915Y-100619062D01*
X146103136Y-100402662D01*
X146100427Y-100399573D01*
X146092182Y-100392342D01*
X145880938Y-100207085D01*
X145880932Y-100207081D01*
X145877838Y-100204367D01*
X145874412Y-100202078D01*
X145874407Y-100202074D01*
X145635106Y-100042179D01*
X145631673Y-100039885D01*
X145627974Y-100038061D01*
X145627969Y-100038058D01*
X145476275Y-99963251D01*
X145366145Y-99908941D01*
X145288609Y-99882621D01*
X145089710Y-99815104D01*
X145089706Y-99815103D01*
X145085797Y-99813776D01*
X145081753Y-99812972D01*
X145081747Y-99812970D01*
X144799465Y-99756820D01*
X144799459Y-99756819D01*
X144795426Y-99756017D01*
X144791321Y-99755748D01*
X144791314Y-99755747D01*
X144504119Y-99736924D01*
X144500000Y-99736654D01*
X144495881Y-99736924D01*
X144208686Y-99755747D01*
X144208679Y-99755748D01*
X144204574Y-99756017D01*
X144200541Y-99756819D01*
X144200535Y-99756820D01*
X143918253Y-99812970D01*
X143918247Y-99812972D01*
X143914203Y-99813776D01*
X143910294Y-99815103D01*
X143910290Y-99815104D01*
X143711391Y-99882621D01*
X143633855Y-99908941D01*
X143523725Y-99963251D01*
X143372031Y-100038058D01*
X143372026Y-100038061D01*
X143368327Y-100039885D01*
X143364894Y-100042179D01*
X143125593Y-100202074D01*
X143125588Y-100202078D01*
X143122162Y-100204367D01*
X143119068Y-100207081D01*
X143119062Y-100207085D01*
X142907818Y-100392342D01*
X142899573Y-100399573D01*
X142896864Y-100402662D01*
X142707085Y-100619062D01*
X142707081Y-100619068D01*
X142704367Y-100622162D01*
X142702078Y-100625588D01*
X142702074Y-100625593D01*
X142643427Y-100713365D01*
X142539885Y-100868327D01*
X142538061Y-100872026D01*
X142538058Y-100872031D01*
X142497006Y-100955277D01*
X142448938Y-101007526D01*
X142380252Y-101025493D01*
X142312756Y-101003474D01*
X142267880Y-100948459D01*
X142258000Y-100899549D01*
X142258000Y-68350451D01*
X142278002Y-68282330D01*
X142331658Y-68235837D01*
X142401932Y-68225733D01*
X142466512Y-68255227D01*
X142497006Y-68294723D01*
X142539885Y-68381673D01*
X142542179Y-68385106D01*
X142677838Y-68588134D01*
X142704367Y-68627838D01*
X142707081Y-68630932D01*
X142707085Y-68630938D01*
X142836316Y-68778297D01*
X142899573Y-68850427D01*
X142902662Y-68853136D01*
X143119062Y-69042915D01*
X143119068Y-69042919D01*
X143122162Y-69045633D01*
X143125588Y-69047922D01*
X143125593Y-69047926D01*
X143273102Y-69146488D01*
X143368327Y-69210115D01*
X143372026Y-69211939D01*
X143372031Y-69211942D01*
X143489405Y-69269824D01*
X143633855Y-69341059D01*
X143637760Y-69342384D01*
X143637761Y-69342385D01*
X143910290Y-69434896D01*
X143910294Y-69434897D01*
X143914203Y-69436224D01*
X143918247Y-69437028D01*
X143918253Y-69437030D01*
X144200535Y-69493180D01*
X144200541Y-69493181D01*
X144204574Y-69493983D01*
X144208679Y-69494252D01*
X144208686Y-69494253D01*
X144495881Y-69513076D01*
X144500000Y-69513346D01*
X144504119Y-69513076D01*
X144791314Y-69494253D01*
X144791321Y-69494252D01*
X144795426Y-69493983D01*
X144799459Y-69493181D01*
X144799465Y-69493180D01*
X145081747Y-69437030D01*
X145081753Y-69437028D01*
X145085797Y-69436224D01*
X145089706Y-69434897D01*
X145089710Y-69434896D01*
X145362239Y-69342385D01*
X145362240Y-69342384D01*
X145366145Y-69341059D01*
X145510595Y-69269824D01*
X145627969Y-69211942D01*
X145627974Y-69211939D01*
X145631673Y-69210115D01*
X145726898Y-69146488D01*
X145874407Y-69047926D01*
X145874412Y-69047922D01*
X145877838Y-69045633D01*
X145880932Y-69042919D01*
X145880938Y-69042915D01*
X146097338Y-68853136D01*
X146100427Y-68850427D01*
X146163684Y-68778297D01*
X146292915Y-68630938D01*
X146292919Y-68630932D01*
X146295633Y-68627838D01*
X146322163Y-68588134D01*
X146457821Y-68385106D01*
X146460115Y-68381673D01*
X146591059Y-68116145D01*
X146686224Y-67835797D01*
X146687030Y-67831747D01*
X146743180Y-67549465D01*
X146743181Y-67549459D01*
X146743983Y-67545426D01*
X146746058Y-67513777D01*
X146763076Y-67254119D01*
X146763346Y-67250000D01*
X146743983Y-66954574D01*
X146710943Y-66788469D01*
X146687030Y-66668253D01*
X146687028Y-66668247D01*
X146686224Y-66664203D01*
X146675390Y-66632285D01*
X146592385Y-66387761D01*
X146592384Y-66387760D01*
X146591059Y-66383855D01*
X146460115Y-66118327D01*
X146295633Y-65872162D01*
X146292919Y-65869068D01*
X146292915Y-65869062D01*
X146103136Y-65652662D01*
X146100427Y-65649573D01*
X146097338Y-65646864D01*
X145880938Y-65457085D01*
X145880932Y-65457081D01*
X145877838Y-65454367D01*
X145874412Y-65452078D01*
X145874407Y-65452074D01*
X145635106Y-65292179D01*
X145631673Y-65289885D01*
X145627974Y-65288061D01*
X145627969Y-65288058D01*
X145491687Y-65220852D01*
X145366145Y-65158941D01*
X145362239Y-65157615D01*
X145089710Y-65065104D01*
X145089706Y-65065103D01*
X145085797Y-65063776D01*
X145081753Y-65062972D01*
X145081747Y-65062970D01*
X144799465Y-65006820D01*
X144799459Y-65006819D01*
X144795426Y-65006017D01*
X144791321Y-65005748D01*
X144791314Y-65005747D01*
X144504119Y-64986924D01*
X144500000Y-64986654D01*
X144495881Y-64986924D01*
X144208686Y-65005747D01*
X144208679Y-65005748D01*
X144204574Y-65006017D01*
X144200541Y-65006819D01*
X144200535Y-65006820D01*
X143918253Y-65062970D01*
X143918247Y-65062972D01*
X143914203Y-65063776D01*
X143910294Y-65065103D01*
X143910290Y-65065104D01*
X143637761Y-65157615D01*
X143633855Y-65158941D01*
X143508313Y-65220852D01*
X143372031Y-65288058D01*
X143372026Y-65288061D01*
X143368327Y-65289885D01*
X143364894Y-65292179D01*
X143125593Y-65452074D01*
X143125588Y-65452078D01*
X143122162Y-65454367D01*
X143119068Y-65457081D01*
X143119062Y-65457085D01*
X142902662Y-65646864D01*
X142899573Y-65649573D01*
X142896864Y-65652662D01*
X142707085Y-65869062D01*
X142707081Y-65869068D01*
X142704367Y-65872162D01*
X142539885Y-66118327D01*
X142538061Y-66122026D01*
X142538058Y-66122031D01*
X142497006Y-66205277D01*
X142448938Y-66257526D01*
X142380252Y-66275493D01*
X142312756Y-66253474D01*
X142267880Y-66198459D01*
X142258000Y-66149549D01*
X142258000Y-60542890D01*
X146321500Y-60542890D01*
X146336080Y-60714720D01*
X146337418Y-60719875D01*
X146337419Y-60719881D01*
X146341168Y-60734325D01*
X146393999Y-60937872D01*
X146488688Y-61148075D01*
X146617441Y-61339319D01*
X146621120Y-61343176D01*
X146621122Y-61343178D01*
X146682710Y-61407738D01*
X146776576Y-61506135D01*
X146961542Y-61643754D01*
X146966293Y-61646170D01*
X146966297Y-61646172D01*
X147003607Y-61665141D01*
X147167051Y-61748240D01*
X147172145Y-61749822D01*
X147172148Y-61749823D01*
X147338736Y-61801550D01*
X147387227Y-61816607D01*
X147392516Y-61817308D01*
X147610489Y-61846198D01*
X147610494Y-61846198D01*
X147615774Y-61846898D01*
X147621103Y-61846698D01*
X147621105Y-61846698D01*
X147730966Y-61842573D01*
X147846158Y-61838249D01*
X147868802Y-61833498D01*
X147958975Y-61814578D01*
X148071791Y-61790907D01*
X148076750Y-61788949D01*
X148076752Y-61788948D01*
X148281256Y-61708185D01*
X148281258Y-61708184D01*
X148286221Y-61706224D01*
X148291047Y-61703296D01*
X148478757Y-61589390D01*
X148478756Y-61589390D01*
X148483317Y-61586623D01*
X148552142Y-61526900D01*
X148653412Y-61439023D01*
X148653414Y-61439021D01*
X148657445Y-61435523D01*
X148721048Y-61357954D01*
X148800240Y-61261373D01*
X148800244Y-61261367D01*
X148803624Y-61257245D01*
X148821552Y-61225750D01*
X148872632Y-61176445D01*
X148942262Y-61162583D01*
X149008333Y-61188566D01*
X149035573Y-61217716D01*
X149117441Y-61339319D01*
X149121120Y-61343176D01*
X149121122Y-61343178D01*
X149182710Y-61407738D01*
X149276576Y-61506135D01*
X149461542Y-61643754D01*
X149466293Y-61646170D01*
X149466297Y-61646172D01*
X149503607Y-61665141D01*
X149667051Y-61748240D01*
X149672145Y-61749822D01*
X149672148Y-61749823D01*
X149838736Y-61801550D01*
X149887227Y-61816607D01*
X149892516Y-61817308D01*
X150110489Y-61846198D01*
X150110494Y-61846198D01*
X150115774Y-61846898D01*
X150121103Y-61846698D01*
X150121105Y-61846698D01*
X150230966Y-61842573D01*
X150346158Y-61838249D01*
X150368802Y-61833498D01*
X150458975Y-61814578D01*
X150571791Y-61790907D01*
X150576750Y-61788949D01*
X150576752Y-61788948D01*
X150781256Y-61708185D01*
X150781258Y-61708184D01*
X150786221Y-61706224D01*
X150791047Y-61703296D01*
X150978757Y-61589390D01*
X150978756Y-61589390D01*
X150983317Y-61586623D01*
X151052142Y-61526900D01*
X151153412Y-61439023D01*
X151153414Y-61439021D01*
X151157445Y-61435523D01*
X151221048Y-61357954D01*
X151300240Y-61261373D01*
X151300244Y-61261367D01*
X151303624Y-61257245D01*
X151321552Y-61225750D01*
X151372632Y-61176445D01*
X151442262Y-61162583D01*
X151508333Y-61188566D01*
X151535573Y-61217716D01*
X151617441Y-61339319D01*
X151621120Y-61343176D01*
X151621122Y-61343178D01*
X151682710Y-61407738D01*
X151776576Y-61506135D01*
X151961542Y-61643754D01*
X151966293Y-61646170D01*
X151966297Y-61646172D01*
X152003607Y-61665141D01*
X152167051Y-61748240D01*
X152172145Y-61749822D01*
X152172148Y-61749823D01*
X152338736Y-61801550D01*
X152387227Y-61816607D01*
X152392516Y-61817308D01*
X152610489Y-61846198D01*
X152610494Y-61846198D01*
X152615774Y-61846898D01*
X152621103Y-61846698D01*
X152621105Y-61846698D01*
X152730966Y-61842573D01*
X152846158Y-61838249D01*
X152868802Y-61833498D01*
X152958975Y-61814578D01*
X153071791Y-61790907D01*
X153076750Y-61788949D01*
X153076752Y-61788948D01*
X153281256Y-61708185D01*
X153281258Y-61708184D01*
X153286221Y-61706224D01*
X153291047Y-61703296D01*
X153478757Y-61589390D01*
X153478756Y-61589390D01*
X153483317Y-61586623D01*
X153552142Y-61526900D01*
X153653412Y-61439023D01*
X153653414Y-61439021D01*
X153657445Y-61435523D01*
X153686670Y-61399880D01*
X153745329Y-61359886D01*
X153816299Y-61357954D01*
X153877048Y-61394698D01*
X153891248Y-61413468D01*
X153898874Y-61425791D01*
X153981522Y-61559348D01*
X154106697Y-61684305D01*
X154112927Y-61688145D01*
X154112928Y-61688146D01*
X154250090Y-61772694D01*
X154257262Y-61777115D01*
X154292938Y-61788948D01*
X154418611Y-61830632D01*
X154418613Y-61830632D01*
X154425139Y-61832797D01*
X154431975Y-61833497D01*
X154431978Y-61833498D01*
X154467663Y-61837154D01*
X154529600Y-61843500D01*
X155830400Y-61843500D01*
X155833646Y-61843163D01*
X155833650Y-61843163D01*
X155929308Y-61833238D01*
X155929312Y-61833237D01*
X155936166Y-61832526D01*
X155942702Y-61830345D01*
X155942704Y-61830345D01*
X156074806Y-61786272D01*
X156103946Y-61776550D01*
X156254348Y-61683478D01*
X156379305Y-61558303D01*
X156411462Y-61506135D01*
X156468275Y-61413968D01*
X156468276Y-61413966D01*
X156472115Y-61407738D01*
X156517340Y-61271389D01*
X156525632Y-61246389D01*
X156525632Y-61246387D01*
X156527797Y-61239861D01*
X156538500Y-61135400D01*
X156538500Y-60630193D01*
X161327289Y-60630193D01*
X161336124Y-60734325D01*
X161337914Y-60744797D01*
X161393130Y-60957535D01*
X161396665Y-60967575D01*
X161486937Y-61167970D01*
X161492106Y-61177256D01*
X161614850Y-61359575D01*
X161621519Y-61367870D01*
X161773228Y-61526900D01*
X161781186Y-61533941D01*
X161957525Y-61665141D01*
X161966562Y-61670745D01*
X162162484Y-61770357D01*
X162172335Y-61774357D01*
X162382240Y-61839534D01*
X162392624Y-61841817D01*
X162408043Y-61843861D01*
X162422207Y-61841665D01*
X162426000Y-61828478D01*
X162426000Y-60632115D01*
X162421525Y-60616876D01*
X162420135Y-60615671D01*
X162412452Y-60614000D01*
X161344030Y-60614000D01*
X161329352Y-60618310D01*
X161327289Y-60630193D01*
X156538500Y-60630193D01*
X156538500Y-60090376D01*
X161322732Y-60090376D01*
X161326475Y-60103124D01*
X161327865Y-60104329D01*
X161335548Y-60106000D01*
X162407885Y-60106000D01*
X162423124Y-60101525D01*
X162424329Y-60100135D01*
X162426000Y-60092452D01*
X162426000Y-58893808D01*
X162422027Y-58880277D01*
X162411420Y-58878752D01*
X162293579Y-58903477D01*
X162283383Y-58906537D01*
X162078971Y-58987263D01*
X162069439Y-58991994D01*
X161881538Y-59106016D01*
X161872948Y-59112280D01*
X161706948Y-59256327D01*
X161699528Y-59263958D01*
X161560174Y-59433911D01*
X161554150Y-59442678D01*
X161445424Y-59633682D01*
X161440959Y-59643346D01*
X161365969Y-59849941D01*
X161363198Y-59860208D01*
X161323877Y-60077655D01*
X161322944Y-60085884D01*
X161322732Y-60090376D01*
X156538500Y-60090376D01*
X156538500Y-59584600D01*
X156535569Y-59556350D01*
X156528238Y-59485692D01*
X156528237Y-59485688D01*
X156527526Y-59478834D01*
X156523710Y-59467394D01*
X156473868Y-59318002D01*
X156471550Y-59311054D01*
X156378478Y-59160652D01*
X156253303Y-59035695D01*
X156222494Y-59016704D01*
X156108968Y-58946725D01*
X156108966Y-58946724D01*
X156102738Y-58942885D01*
X155993152Y-58906537D01*
X155941389Y-58889368D01*
X155941387Y-58889368D01*
X155934861Y-58887203D01*
X155928025Y-58886503D01*
X155928022Y-58886502D01*
X155884969Y-58882091D01*
X155830400Y-58876500D01*
X154529600Y-58876500D01*
X154526354Y-58876837D01*
X154526350Y-58876837D01*
X154430692Y-58886762D01*
X154430688Y-58886763D01*
X154423834Y-58887474D01*
X154417298Y-58889655D01*
X154417296Y-58889655D01*
X154319430Y-58922306D01*
X154256054Y-58943450D01*
X154105652Y-59036522D01*
X153980695Y-59161697D01*
X153976855Y-59167927D01*
X153976854Y-59167928D01*
X153954843Y-59203637D01*
X153893203Y-59303636D01*
X153890920Y-59307339D01*
X153838148Y-59354832D01*
X153768076Y-59366256D01*
X153702952Y-59337982D01*
X153692490Y-59328195D01*
X153587103Y-59217722D01*
X153583424Y-59213865D01*
X153398458Y-59076246D01*
X153393707Y-59073830D01*
X153393703Y-59073828D01*
X153271155Y-59011522D01*
X153192949Y-58971760D01*
X153187855Y-58970178D01*
X153187852Y-58970177D01*
X152977871Y-58904976D01*
X152972773Y-58903393D01*
X152967484Y-58902692D01*
X152749511Y-58873802D01*
X152749506Y-58873802D01*
X152744226Y-58873102D01*
X152738897Y-58873302D01*
X152738895Y-58873302D01*
X152629034Y-58877426D01*
X152513842Y-58881751D01*
X152508623Y-58882846D01*
X152486566Y-58887474D01*
X152288209Y-58929093D01*
X152283250Y-58931051D01*
X152283248Y-58931052D01*
X152078744Y-59011815D01*
X152078742Y-59011816D01*
X152073779Y-59013776D01*
X152069220Y-59016543D01*
X152069217Y-59016544D01*
X151970832Y-59076246D01*
X151876683Y-59133377D01*
X151872653Y-59136874D01*
X151779484Y-59217722D01*
X151702555Y-59284477D01*
X151683809Y-59307339D01*
X151559760Y-59458627D01*
X151559756Y-59458633D01*
X151556376Y-59462755D01*
X151538448Y-59494250D01*
X151487368Y-59543555D01*
X151417738Y-59557417D01*
X151351667Y-59531434D01*
X151324427Y-59502284D01*
X151297814Y-59462755D01*
X151242559Y-59380681D01*
X151083424Y-59213865D01*
X150898458Y-59076246D01*
X150893707Y-59073830D01*
X150893703Y-59073828D01*
X150771155Y-59011522D01*
X150692949Y-58971760D01*
X150687855Y-58970178D01*
X150687852Y-58970177D01*
X150477871Y-58904976D01*
X150472773Y-58903393D01*
X150467484Y-58902692D01*
X150249511Y-58873802D01*
X150249506Y-58873802D01*
X150244226Y-58873102D01*
X150238897Y-58873302D01*
X150238895Y-58873302D01*
X150129034Y-58877426D01*
X150013842Y-58881751D01*
X150008623Y-58882846D01*
X149986566Y-58887474D01*
X149788209Y-58929093D01*
X149783250Y-58931051D01*
X149783248Y-58931052D01*
X149578744Y-59011815D01*
X149578742Y-59011816D01*
X149573779Y-59013776D01*
X149569220Y-59016543D01*
X149569217Y-59016544D01*
X149470832Y-59076246D01*
X149376683Y-59133377D01*
X149372653Y-59136874D01*
X149279484Y-59217722D01*
X149202555Y-59284477D01*
X149183809Y-59307339D01*
X149059760Y-59458627D01*
X149059756Y-59458633D01*
X149056376Y-59462755D01*
X149038448Y-59494250D01*
X148987368Y-59543555D01*
X148917738Y-59557417D01*
X148851667Y-59531434D01*
X148824427Y-59502284D01*
X148797814Y-59462755D01*
X148742559Y-59380681D01*
X148583424Y-59213865D01*
X148398458Y-59076246D01*
X148393707Y-59073830D01*
X148393703Y-59073828D01*
X148271155Y-59011522D01*
X148192949Y-58971760D01*
X148187855Y-58970178D01*
X148187852Y-58970177D01*
X147977871Y-58904976D01*
X147972773Y-58903393D01*
X147967484Y-58902692D01*
X147749511Y-58873802D01*
X147749506Y-58873802D01*
X147744226Y-58873102D01*
X147738897Y-58873302D01*
X147738895Y-58873302D01*
X147629034Y-58877426D01*
X147513842Y-58881751D01*
X147508623Y-58882846D01*
X147486566Y-58887474D01*
X147288209Y-58929093D01*
X147283250Y-58931051D01*
X147283248Y-58931052D01*
X147078744Y-59011815D01*
X147078742Y-59011816D01*
X147073779Y-59013776D01*
X147069220Y-59016543D01*
X147069217Y-59016544D01*
X146970832Y-59076246D01*
X146876683Y-59133377D01*
X146872653Y-59136874D01*
X146779484Y-59217722D01*
X146702555Y-59284477D01*
X146683809Y-59307339D01*
X146559760Y-59458627D01*
X146559756Y-59458633D01*
X146556376Y-59462755D01*
X146553738Y-59467390D01*
X146553735Y-59467394D01*
X146499389Y-59562866D01*
X146442325Y-59663114D01*
X146363663Y-59879825D01*
X146362714Y-59885074D01*
X146362713Y-59885077D01*
X146323377Y-60102608D01*
X146323376Y-60102615D01*
X146322639Y-60106692D01*
X146321500Y-60130844D01*
X146321500Y-60542890D01*
X142258000Y-60542890D01*
X142258000Y-57634000D01*
X142278002Y-57565879D01*
X142331658Y-57519386D01*
X142384000Y-57508000D01*
X170116000Y-57508000D01*
X170184121Y-57528002D01*
G37*
%TD.AperFunction*%
%TD*%
M02*
